STARTFONT 2.1
FONT -TakWolf-Ark Pixel 16px M ko-Regular-R-Normal-Sans Serif-16-160-75-75-M-131-ISO10646-1
SIZE 16 75 75
FONTBOUNDINGBOX 16 16 0 -3
STARTPROPERTIES 24
FOUNDRY "TakWolf"
FAMILY_NAME "Ark Pixel 16px M ko"
WEIGHT_NAME "Regular"
SLANT "R"
SETWIDTH_NAME "Normal"
ADD_STYLE_NAME "Sans Serif"
PIXEL_SIZE 16
POINT_SIZE 160
RESOLUTION_X 75
RESOLUTION_Y 75
SPACING "M"
AVERAGE_WIDTH 131
CHARSET_REGISTRY "ISO10646"
CHARSET_ENCODING "1"
DEFAULT_CHAR 65534
FONT_ASCENT 13
FONT_DESCENT 3
X_HEIGHT 7
CAP_HEIGHT 10
UNDERLINE_POSITION -3
UNDERLINE_THICKNESS 1
FONT_VERSION "2025.12.25"
COPYRIGHT "Copyright (c) 2021, TakWolf (https://takwolf.com), with Reserved Font Name ""Ark Pixel"""
LICENSE "This Font Software is licensed under the SIL Open Font License, Version 1.1"
ENDPROPERTIES
CHARS 2927
STARTCHAR u0020
ENCODING 32
SWIDTH 500 0
DWIDTH 8 0
BBX 8 16 0 -3
BITMAP
00
00
00
00
00
00
00
00
00
00
00
00
00
00
00
00
ENDCHAR
STARTCHAR u0021
ENCODING 33
SWIDTH 500 0
DWIDTH 8 0
BBX 8 16 0 -3
BITMAP
00
00
00
10
38
38
38
10
10
10
10
00
10
00
00
00
ENDCHAR
STARTCHAR u0022
ENCODING 34
SWIDTH 500 0
DWIDTH 8 0
BBX 8 16 0 -3
BITMAP
00
00
00
28
28
28
00
00
00
00
00
00
00
00
00
00
ENDCHAR
STARTCHAR u0023
ENCODING 35
SWIDTH 500 0
DWIDTH 8 0
BBX 8 16 0 -3
BITMAP
00
00
00
24
24
7E
24
24
24
24
7E
24
24
00
00
00
ENDCHAR
STARTCHAR u0024
ENCODING 36
SWIDTH 500 0
DWIDTH 8 0
BBX 8 16 0 -3
BITMAP
00
00
10
7C
92
90
90
70
1C
12
12
92
7C
10
00
00
ENDCHAR
STARTCHAR u0025
ENCODING 37
SWIDTH 500 0
DWIDTH 8 0
BBX 8 16 0 -3
BITMAP
00
00
00
44
A4
48
08
10
10
20
24
4A
44
00
00
00
ENDCHAR
STARTCHAR u0026
ENCODING 38
SWIDTH 500 0
DWIDTH 8 0
BBX 8 16 0 -3
BITMAP
00
00
00
30
48
48
48
30
52
8A
84
84
7A
00
00
00
ENDCHAR
STARTCHAR u0027
ENCODING 39
SWIDTH 500 0
DWIDTH 8 0
BBX 8 16 0 -3
BITMAP
00
00
00
10
10
10
00
00
00
00
00
00
00
00
00
00
ENDCHAR
STARTCHAR u0028
ENCODING 40
SWIDTH 500 0
DWIDTH 8 0
BBX 8 16 0 -3
BITMAP
00
00
04
08
08
10
10
10
10
10
10
10
08
08
04
00
ENDCHAR
STARTCHAR u0029
ENCODING 41
SWIDTH 500 0
DWIDTH 8 0
BBX 8 16 0 -3
BITMAP
00
00
40
20
20
10
10
10
10
10
10
10
20
20
40
00
ENDCHAR
STARTCHAR u002A
ENCODING 42
SWIDTH 500 0
DWIDTH 8 0
BBX 8 16 0 -3
BITMAP
00
00
00
00
00
00
10
54
38
54
10
00
00
00
00
00
ENDCHAR
STARTCHAR u002B
ENCODING 43
SWIDTH 500 0
DWIDTH 8 0
BBX 8 16 0 -3
BITMAP
00
00
00
00
00
00
10
10
7C
10
10
00
00
00
00
00
ENDCHAR
STARTCHAR u002C
ENCODING 44
SWIDTH 500 0
DWIDTH 8 0
BBX 8 16 0 -3
BITMAP
00
00
00
00
00
00
00
00
00
00
00
18
18
08
10
00
ENDCHAR
STARTCHAR u002D
ENCODING 45
SWIDTH 500 0
DWIDTH 8 0
BBX 8 16 0 -3
BITMAP
00
00
00
00
00
00
00
00
7C
00
00
00
00
00
00
00
ENDCHAR
STARTCHAR u002E
ENCODING 46
SWIDTH 500 0
DWIDTH 8 0
BBX 8 16 0 -3
BITMAP
00
00
00
00
00
00
00
00
00
00
00
18
18
00
00
00
ENDCHAR
STARTCHAR u002F
ENCODING 47
SWIDTH 500 0
DWIDTH 8 0
BBX 8 16 0 -3
BITMAP
00
00
04
04
08
08
08
10
10
10
20
20
20
40
40
00
ENDCHAR
STARTCHAR u0030
ENCODING 48
SWIDTH 500 0
DWIDTH 8 0
BBX 8 16 0 -3
BITMAP
00
00
00
3C
42
42
46
4A
52
62
42
42
3C
00
00
00
ENDCHAR
STARTCHAR u0031
ENCODING 49
SWIDTH 500 0
DWIDTH 8 0
BBX 8 16 0 -3
BITMAP
00
00
00
08
18
28
08
08
08
08
08
08
3E
00
00
00
ENDCHAR
STARTCHAR u0032
ENCODING 50
SWIDTH 500 0
DWIDTH 8 0
BBX 8 16 0 -3
BITMAP
00
00
00
3C
42
02
02
04
08
10
20
40
7E
00
00
00
ENDCHAR
STARTCHAR u0033
ENCODING 51
SWIDTH 500 0
DWIDTH 8 0
BBX 8 16 0 -3
BITMAP
00
00
00
3C
42
02
02
1C
02
02
02
42
3C
00
00
00
ENDCHAR
STARTCHAR u0034
ENCODING 52
SWIDTH 500 0
DWIDTH 8 0
BBX 8 16 0 -3
BITMAP
00
00
00
0C
14
14
24
24
44
44
7E
04
04
00
00
00
ENDCHAR
STARTCHAR u0035
ENCODING 53
SWIDTH 500 0
DWIDTH 8 0
BBX 8 16 0 -3
BITMAP
00
00
00
7E
40
40
40
7C
02
02
02
42
3C
00
00
00
ENDCHAR
STARTCHAR u0036
ENCODING 54
SWIDTH 500 0
DWIDTH 8 0
BBX 8 16 0 -3
BITMAP
00
00
00
3C
42
40
40
7C
42
42
42
42
3C
00
00
00
ENDCHAR
STARTCHAR u0037
ENCODING 55
SWIDTH 500 0
DWIDTH 8 0
BBX 8 16 0 -3
BITMAP
00
00
00
7E
02
02
04
04
04
08
08
08
08
00
00
00
ENDCHAR
STARTCHAR u0038
ENCODING 56
SWIDTH 500 0
DWIDTH 8 0
BBX 8 16 0 -3
BITMAP
00
00
00
3C
42
42
42
3C
42
42
42
42
3C
00
00
00
ENDCHAR
STARTCHAR u0039
ENCODING 57
SWIDTH 500 0
DWIDTH 8 0
BBX 8 16 0 -3
BITMAP
00
00
00
3C
42
42
42
42
3E
02
02
42
3C
00
00
00
ENDCHAR
STARTCHAR u003A
ENCODING 58
SWIDTH 500 0
DWIDTH 8 0
BBX 8 16 0 -3
BITMAP
00
00
00
00
00
00
18
18
00
00
00
18
18
00
00
00
ENDCHAR
STARTCHAR u003B
ENCODING 59
SWIDTH 500 0
DWIDTH 8 0
BBX 8 16 0 -3
BITMAP
00
00
00
00
00
00
18
18
00
00
00
18
18
08
10
00
ENDCHAR
STARTCHAR u003C
ENCODING 60
SWIDTH 500 0
DWIDTH 8 0
BBX 8 16 0 -3
BITMAP
00
00
00
00
00
04
08
10
20
10
08
04
00
00
00
00
ENDCHAR
STARTCHAR u003D
ENCODING 61
SWIDTH 500 0
DWIDTH 8 0
BBX 8 16 0 -3
BITMAP
00
00
00
00
00
00
00
7C
00
7C
00
00
00
00
00
00
ENDCHAR
STARTCHAR u003E
ENCODING 62
SWIDTH 500 0
DWIDTH 8 0
BBX 8 16 0 -3
BITMAP
00
00
00
00
00
20
10
08
04
08
10
20
00
00
00
00
ENDCHAR
STARTCHAR u003F
ENCODING 63
SWIDTH 500 0
DWIDTH 8 0
BBX 8 16 0 -3
BITMAP
00
00
00
3C
42
42
02
04
08
08
08
00
08
00
00
00
ENDCHAR
STARTCHAR u0040
ENCODING 64
SWIDTH 500 0
DWIDTH 8 0
BBX 8 16 0 -3
BITMAP
00
00
00
38
44
82
9A
AA
AA
AA
B6
80
40
3C
00
00
ENDCHAR
STARTCHAR u0041
ENCODING 65
SWIDTH 500 0
DWIDTH 8 0
BBX 8 16 0 -3
BITMAP
00
00
00
10
10
28
28
44
44
7C
82
82
82
00
00
00
ENDCHAR
STARTCHAR u0042
ENCODING 66
SWIDTH 500 0
DWIDTH 8 0
BBX 8 16 0 -3
BITMAP
00
00
00
FC
82
82
82
FC
82
82
82
82
FC
00
00
00
ENDCHAR
STARTCHAR u0043
ENCODING 67
SWIDTH 500 0
DWIDTH 8 0
BBX 8 16 0 -3
BITMAP
00
00
00
3C
42
80
80
80
80
80
80
42
3C
00
00
00
ENDCHAR
STARTCHAR u0044
ENCODING 68
SWIDTH 500 0
DWIDTH 8 0
BBX 8 16 0 -3
BITMAP
00
00
00
F8
84
82
82
82
82
82
82
84
F8
00
00
00
ENDCHAR
STARTCHAR u0045
ENCODING 69
SWIDTH 500 0
DWIDTH 8 0
BBX 8 16 0 -3
BITMAP
00
00
00
FE
80
80
80
FC
80
80
80
80
FE
00
00
00
ENDCHAR
STARTCHAR u0046
ENCODING 70
SWIDTH 500 0
DWIDTH 8 0
BBX 8 16 0 -3
BITMAP
00
00
00
FE
80
80
80
FC
80
80
80
80
80
00
00
00
ENDCHAR
STARTCHAR u0047
ENCODING 71
SWIDTH 500 0
DWIDTH 8 0
BBX 8 16 0 -3
BITMAP
00
00
00
3C
42
80
80
80
8E
82
82
42
3E
00
00
00
ENDCHAR
STARTCHAR u0048
ENCODING 72
SWIDTH 500 0
DWIDTH 8 0
BBX 8 16 0 -3
BITMAP
00
00
00
82
82
82
82
FE
82
82
82
82
82
00
00
00
ENDCHAR
STARTCHAR u0049
ENCODING 73
SWIDTH 500 0
DWIDTH 8 0
BBX 8 16 0 -3
BITMAP
00
00
00
FE
10
10
10
10
10
10
10
10
FE
00
00
00
ENDCHAR
STARTCHAR u004A
ENCODING 74
SWIDTH 500 0
DWIDTH 8 0
BBX 8 16 0 -3
BITMAP
00
00
00
02
02
02
02
02
02
82
82
44
38
00
00
00
ENDCHAR
STARTCHAR u004B
ENCODING 75
SWIDTH 500 0
DWIDTH 8 0
BBX 8 16 0 -3
BITMAP
00
00
00
82
84
88
B0
C0
A0
90
88
84
82
00
00
00
ENDCHAR
STARTCHAR u004C
ENCODING 76
SWIDTH 500 0
DWIDTH 8 0
BBX 8 16 0 -3
BITMAP
00
00
00
80
80
80
80
80
80
80
80
80
FE
00
00
00
ENDCHAR
STARTCHAR u004D
ENCODING 77
SWIDTH 500 0
DWIDTH 8 0
BBX 8 16 0 -3
BITMAP
00
00
00
82
82
C6
C6
AA
AA
92
92
82
82
00
00
00
ENDCHAR
STARTCHAR u004E
ENCODING 78
SWIDTH 500 0
DWIDTH 8 0
BBX 8 16 0 -3
BITMAP
00
00
00
82
C2
C2
A2
92
92
8A
86
86
82
00
00
00
ENDCHAR
STARTCHAR u004F
ENCODING 79
SWIDTH 500 0
DWIDTH 8 0
BBX 8 16 0 -3
BITMAP
00
00
00
38
44
82
82
82
82
82
82
44
38
00
00
00
ENDCHAR
STARTCHAR u0050
ENCODING 80
SWIDTH 500 0
DWIDTH 8 0
BBX 8 16 0 -3
BITMAP
00
00
00
FC
82
82
82
82
FC
80
80
80
80
00
00
00
ENDCHAR
STARTCHAR u0051
ENCODING 81
SWIDTH 500 0
DWIDTH 8 0
BBX 8 16 0 -3
BITMAP
00
00
00
38
44
82
82
82
82
82
8A
44
3A
00
00
00
ENDCHAR
STARTCHAR u0052
ENCODING 82
SWIDTH 500 0
DWIDTH 8 0
BBX 8 16 0 -3
BITMAP
00
00
00
FC
82
82
82
82
FC
88
84
84
82
00
00
00
ENDCHAR
STARTCHAR u0053
ENCODING 83
SWIDTH 500 0
DWIDTH 8 0
BBX 8 16 0 -3
BITMAP
00
00
00
7C
82
80
80
70
0C
02
02
82
7C
00
00
00
ENDCHAR
STARTCHAR u0054
ENCODING 84
SWIDTH 500 0
DWIDTH 8 0
BBX 8 16 0 -3
BITMAP
00
00
00
FE
10
10
10
10
10
10
10
10
10
00
00
00
ENDCHAR
STARTCHAR u0055
ENCODING 85
SWIDTH 500 0
DWIDTH 8 0
BBX 8 16 0 -3
BITMAP
00
00
00
82
82
82
82
82
82
82
82
44
38
00
00
00
ENDCHAR
STARTCHAR u0056
ENCODING 86
SWIDTH 500 0
DWIDTH 8 0
BBX 8 16 0 -3
BITMAP
00
00
00
82
82
44
44
44
28
28
28
10
10
00
00
00
ENDCHAR
STARTCHAR u0057
ENCODING 87
SWIDTH 500 0
DWIDTH 8 0
BBX 8 16 0 -3
BITMAP
00
00
00
92
92
92
92
AA
AA
AA
44
44
44
00
00
00
ENDCHAR
STARTCHAR u0058
ENCODING 88
SWIDTH 500 0
DWIDTH 8 0
BBX 8 16 0 -3
BITMAP
00
00
00
82
44
44
28
10
28
44
44
82
82
00
00
00
ENDCHAR
STARTCHAR u0059
ENCODING 89
SWIDTH 500 0
DWIDTH 8 0
BBX 8 16 0 -3
BITMAP
00
00
00
82
82
44
44
28
28
10
10
10
10
00
00
00
ENDCHAR
STARTCHAR u005A
ENCODING 90
SWIDTH 500 0
DWIDTH 8 0
BBX 8 16 0 -3
BITMAP
00
00
00
FE
02
04
08
10
10
20
40
80
FE
00
00
00
ENDCHAR
STARTCHAR u005B
ENCODING 91
SWIDTH 500 0
DWIDTH 8 0
BBX 8 16 0 -3
BITMAP
00
00
1C
10
10
10
10
10
10
10
10
10
10
10
1C
00
ENDCHAR
STARTCHAR u005C
ENCODING 92
SWIDTH 500 0
DWIDTH 8 0
BBX 8 16 0 -3
BITMAP
00
00
40
40
20
20
20
10
10
10
08
08
08
04
04
00
ENDCHAR
STARTCHAR u005D
ENCODING 93
SWIDTH 500 0
DWIDTH 8 0
BBX 8 16 0 -3
BITMAP
00
00
70
10
10
10
10
10
10
10
10
10
10
10
70
00
ENDCHAR
STARTCHAR u005E
ENCODING 94
SWIDTH 500 0
DWIDTH 8 0
BBX 8 16 0 -3
BITMAP
00
00
00
10
28
44
00
00
00
00
00
00
00
00
00
00
ENDCHAR
STARTCHAR u005F
ENCODING 95
SWIDTH 500 0
DWIDTH 8 0
BBX 8 16 0 -3
BITMAP
00
00
00
00
00
00
00
00
00
00
00
00
00
00
00
FE
ENDCHAR
STARTCHAR u0060
ENCODING 96
SWIDTH 500 0
DWIDTH 8 0
BBX 8 16 0 -3
BITMAP
00
00
00
20
10
08
00
00
00
00
00
00
00
00
00
00
ENDCHAR
STARTCHAR u0061
ENCODING 97
SWIDTH 500 0
DWIDTH 8 0
BBX 8 16 0 -3
BITMAP
00
00
00
00
00
00
3C
02
02
3E
42
42
3E
00
00
00
ENDCHAR
STARTCHAR u0062
ENCODING 98
SWIDTH 500 0
DWIDTH 8 0
BBX 8 16 0 -3
BITMAP
00
00
00
40
40
40
7C
42
42
42
42
42
7C
00
00
00
ENDCHAR
STARTCHAR u0063
ENCODING 99
SWIDTH 500 0
DWIDTH 8 0
BBX 8 16 0 -3
BITMAP
00
00
00
00
00
00
3C
42
40
40
40
42
3C
00
00
00
ENDCHAR
STARTCHAR u0064
ENCODING 100
SWIDTH 500 0
DWIDTH 8 0
BBX 8 16 0 -3
BITMAP
00
00
00
02
02
02
3E
42
42
42
42
42
3E
00
00
00
ENDCHAR
STARTCHAR u0065
ENCODING 101
SWIDTH 500 0
DWIDTH 8 0
BBX 8 16 0 -3
BITMAP
00
00
00
00
00
00
3C
42
42
7E
40
42
3C
00
00
00
ENDCHAR
STARTCHAR u0066
ENCODING 102
SWIDTH 500 0
DWIDTH 8 0
BBX 8 16 0 -3
BITMAP
00
00
00
0E
10
10
7E
10
10
10
10
10
10
00
00
00
ENDCHAR
STARTCHAR u0067
ENCODING 103
SWIDTH 500 0
DWIDTH 8 0
BBX 8 16 0 -3
BITMAP
00
00
00
00
00
00
3E
42
42
42
42
42
3E
02
02
3C
ENDCHAR
STARTCHAR u0068
ENCODING 104
SWIDTH 500 0
DWIDTH 8 0
BBX 8 16 0 -3
BITMAP
00
00
00
40
40
40
5C
62
42
42
42
42
42
00
00
00
ENDCHAR
STARTCHAR u0069
ENCODING 105
SWIDTH 500 0
DWIDTH 8 0
BBX 8 16 0 -3
BITMAP
00
00
00
08
00
00
78
08
08
08
08
08
7E
00
00
00
ENDCHAR
STARTCHAR u006A
ENCODING 106
SWIDTH 500 0
DWIDTH 8 0
BBX 8 16 0 -3
BITMAP
00
00
00
04
00
00
7C
04
04
04
04
04
04
04
04
78
ENDCHAR
STARTCHAR u006B
ENCODING 107
SWIDTH 500 0
DWIDTH 8 0
BBX 8 16 0 -3
BITMAP
00
00
00
40
40
40
42
44
58
60
50
48
46
00
00
00
ENDCHAR
STARTCHAR u006C
ENCODING 108
SWIDTH 500 0
DWIDTH 8 0
BBX 8 16 0 -3
BITMAP
00
00
00
70
10
10
10
10
10
10
10
10
0E
00
00
00
ENDCHAR
STARTCHAR u006D
ENCODING 109
SWIDTH 500 0
DWIDTH 8 0
BBX 8 16 0 -3
BITMAP
00
00
00
00
00
00
EC
92
92
92
92
92
92
00
00
00
ENDCHAR
STARTCHAR u006E
ENCODING 110
SWIDTH 500 0
DWIDTH 8 0
BBX 8 16 0 -3
BITMAP
00
00
00
00
00
00
5C
62
42
42
42
42
42
00
00
00
ENDCHAR
STARTCHAR u006F
ENCODING 111
SWIDTH 500 0
DWIDTH 8 0
BBX 8 16 0 -3
BITMAP
00
00
00
00
00
00
3C
42
42
42
42
42
3C
00
00
00
ENDCHAR
STARTCHAR u0070
ENCODING 112
SWIDTH 500 0
DWIDTH 8 0
BBX 8 16 0 -3
BITMAP
00
00
00
00
00
00
7C
42
42
42
42
42
7C
40
40
40
ENDCHAR
STARTCHAR u0071
ENCODING 113
SWIDTH 500 0
DWIDTH 8 0
BBX 8 16 0 -3
BITMAP
00
00
00
00
00
00
3E
42
42
42
42
42
3E
02
02
02
ENDCHAR
STARTCHAR u0072
ENCODING 114
SWIDTH 500 0
DWIDTH 8 0
BBX 8 16 0 -3
BITMAP
00
00
00
00
00
00
5C
62
40
40
40
40
40
00
00
00
ENDCHAR
STARTCHAR u0073
ENCODING 115
SWIDTH 500 0
DWIDTH 8 0
BBX 8 16 0 -3
BITMAP
00
00
00
00
00
00
3C
42
40
3C
02
42
3C
00
00
00
ENDCHAR
STARTCHAR u0074
ENCODING 116
SWIDTH 500 0
DWIDTH 8 0
BBX 8 16 0 -3
BITMAP
00
00
00
10
10
10
7E
10
10
10
10
10
0E
00
00
00
ENDCHAR
STARTCHAR u0075
ENCODING 117
SWIDTH 500 0
DWIDTH 8 0
BBX 8 16 0 -3
BITMAP
00
00
00
00
00
00
42
42
42
42
42
46
3A
00
00
00
ENDCHAR
STARTCHAR u0076
ENCODING 118
SWIDTH 500 0
DWIDTH 8 0
BBX 8 16 0 -3
BITMAP
00
00
00
00
00
00
82
82
44
44
28
28
10
00
00
00
ENDCHAR
STARTCHAR u0077
ENCODING 119
SWIDTH 500 0
DWIDTH 8 0
BBX 8 16 0 -3
BITMAP
00
00
00
00
00
00
92
92
92
AA
AA
44
44
00
00
00
ENDCHAR
STARTCHAR u0078
ENCODING 120
SWIDTH 500 0
DWIDTH 8 0
BBX 8 16 0 -3
BITMAP
00
00
00
00
00
00
82
44
28
10
28
44
82
00
00
00
ENDCHAR
STARTCHAR u0079
ENCODING 121
SWIDTH 500 0
DWIDTH 8 0
BBX 8 16 0 -3
BITMAP
00
00
00
00
00
00
82
82
44
44
28
28
10
10
20
C0
ENDCHAR
STARTCHAR u007A
ENCODING 122
SWIDTH 500 0
DWIDTH 8 0
BBX 8 16 0 -3
BITMAP
00
00
00
00
00
00
7E
04
08
10
20
40
7E
00
00
00
ENDCHAR
STARTCHAR u007B
ENCODING 123
SWIDTH 500 0
DWIDTH 8 0
BBX 8 16 0 -3
BITMAP
00
00
0C
10
10
10
10
10
20
10
10
10
10
10
0C
00
ENDCHAR
STARTCHAR u007C
ENCODING 124
SWIDTH 500 0
DWIDTH 8 0
BBX 8 16 0 -3
BITMAP
00
00
10
10
10
10
10
10
10
10
10
10
10
10
10
00
ENDCHAR
STARTCHAR u007D
ENCODING 125
SWIDTH 500 0
DWIDTH 8 0
BBX 8 16 0 -3
BITMAP
00
00
60
10
10
10
10
10
08
10
10
10
10
10
60
00
ENDCHAR
STARTCHAR u007E
ENCODING 126
SWIDTH 500 0
DWIDTH 8 0
BBX 8 16 0 -3
BITMAP
00
00
00
00
00
00
00
60
92
0C
00
00
00
00
00
00
ENDCHAR
STARTCHAR u00A1
ENCODING 161
SWIDTH 500 0
DWIDTH 8 0
BBX 8 16 0 -3
BITMAP
00
00
00
00
00
00
10
00
10
10
10
10
38
38
38
10
ENDCHAR
STARTCHAR u00A2
ENCODING 162
SWIDTH 500 0
DWIDTH 8 0
BBX 8 16 0 -3
BITMAP
00
00
00
00
00
10
7C
92
90
90
90
92
7C
10
00
00
ENDCHAR
STARTCHAR u00A3
ENCODING 163
SWIDTH 500 0
DWIDTH 8 0
BBX 8 16 0 -3
BITMAP
00
00
00
3C
42
40
40
20
7C
10
20
40
7E
00
00
00
ENDCHAR
STARTCHAR u00A4
ENCODING 164
SWIDTH 500 0
DWIDTH 8 0
BBX 8 16 0 -3
BITMAP
00
00
00
00
00
BA
44
82
82
82
44
BA
00
00
00
00
ENDCHAR
STARTCHAR u00A5
ENCODING 165
SWIDTH 500 0
DWIDTH 8 0
BBX 8 16 0 -3
BITMAP
00
00
00
82
82
44
44
28
FE
10
FE
10
10
00
00
00
ENDCHAR
STARTCHAR u00A6
ENCODING 166
SWIDTH 500 0
DWIDTH 8 0
BBX 8 16 0 -3
BITMAP
00
00
10
10
10
10
10
00
00
10
10
10
10
10
10
00
ENDCHAR
STARTCHAR u00A7
ENCODING 167
SWIDTH 500 0
DWIDTH 8 0
BBX 8 16 0 -3
BITMAP
00
00
00
3C
42
40
40
38
44
42
22
1C
02
02
42
3C
ENDCHAR
STARTCHAR u00A8
ENCODING 168
SWIDTH 500 0
DWIDTH 8 0
BBX 8 16 0 -3
BITMAP
00
00
00
24
00
00
00
00
00
00
00
00
00
00
00
00
ENDCHAR
STARTCHAR u00A9
ENCODING 169
SWIDTH 1000 0
DWIDTH 16 0
BBX 16 16 0 -3
BITMAP
0000
0000
0000
07C0
0820
1390
2448
2408
2408
2408
2448
1390
0820
07C0
0000
0000
ENDCHAR
STARTCHAR u00AA
ENCODING 170
SWIDTH 500 0
DWIDTH 8 0
BBX 8 16 0 -3
BITMAP
00
00
00
38
04
3C
44
3C
00
00
00
00
00
00
00
00
ENDCHAR
STARTCHAR u00AB
ENCODING 171
SWIDTH 500 0
DWIDTH 8 0
BBX 8 16 0 -3
BITMAP
00
00
00
00
00
00
12
24
48
90
48
24
12
00
00
00
ENDCHAR
STARTCHAR u00AC
ENCODING 172
SWIDTH 500 0
DWIDTH 8 0
BBX 8 16 0 -3
BITMAP
00
00
00
00
00
00
00
FE
02
02
02
00
00
00
00
00
ENDCHAR
STARTCHAR u00AE
ENCODING 174
SWIDTH 1000 0
DWIDTH 16 0
BBX 16 16 0 -3
BITMAP
0000
3F00
4080
9C40
9240
9240
9C40
9240
9240
4080
3F00
0000
0000
0000
0000
0000
ENDCHAR
STARTCHAR u00AF
ENCODING 175
SWIDTH 500 0
DWIDTH 8 0
BBX 8 16 0 -3
BITMAP
00
00
00
FE
00
00
00
00
00
00
00
00
00
00
00
00
ENDCHAR
STARTCHAR u00B0
ENCODING 176
SWIDTH 500 0
DWIDTH 8 0
BBX 8 16 0 -3
BITMAP
00
00
18
24
24
18
00
00
00
00
00
00
00
00
00
00
ENDCHAR
STARTCHAR u00B1
ENCODING 177
SWIDTH 500 0
DWIDTH 8 0
BBX 8 16 0 -3
BITMAP
00
00
00
00
00
00
10
10
7C
10
10
00
7C
00
00
00
ENDCHAR
STARTCHAR u00B2
ENCODING 178
SWIDTH 500 0
DWIDTH 8 0
BBX 8 16 0 -3
BITMAP
00
38
44
04
18
20
40
7C
00
00
00
00
00
00
00
00
ENDCHAR
STARTCHAR u00B3
ENCODING 179
SWIDTH 500 0
DWIDTH 8 0
BBX 8 16 0 -3
BITMAP
00
38
44
04
18
04
44
38
00
00
00
00
00
00
00
00
ENDCHAR
STARTCHAR u00B4
ENCODING 180
SWIDTH 500 0
DWIDTH 8 0
BBX 8 16 0 -3
BITMAP
00
00
00
08
10
20
00
00
00
00
00
00
00
00
00
00
ENDCHAR
STARTCHAR u00B5
ENCODING 181
SWIDTH 500 0
DWIDTH 8 0
BBX 8 16 0 -3
BITMAP
00
00
00
00
00
00
42
42
42
42
42
66
5A
40
40
40
ENDCHAR
STARTCHAR u00B6
ENCODING 182
SWIDTH 500 0
DWIDTH 8 0
BBX 8 16 0 -3
BITMAP
00
00
00
1E
7A
FA
FA
FA
FA
7A
1A
0A
0A
0A
0A
0A
ENDCHAR
STARTCHAR u00B7
ENCODING 183
SWIDTH 500 0
DWIDTH 8 0
BBX 8 16 0 -3
BITMAP
00
00
00
00
00
00
00
00
18
18
00
00
00
00
00
00
ENDCHAR
STARTCHAR u00B8
ENCODING 184
SWIDTH 500 0
DWIDTH 8 0
BBX 8 16 0 -3
BITMAP
00
00
00
00
00
00
00
00
00
00
00
00
08
08
04
18
ENDCHAR
STARTCHAR u00B9
ENCODING 185
SWIDTH 500 0
DWIDTH 8 0
BBX 8 16 0 -3
BITMAP
00
10
70
10
10
10
10
7C
00
00
00
00
00
00
00
00
ENDCHAR
STARTCHAR u00BA
ENCODING 186
SWIDTH 500 0
DWIDTH 8 0
BBX 8 16 0 -3
BITMAP
00
00
00
38
44
44
44
38
00
00
00
00
00
00
00
00
ENDCHAR
STARTCHAR u00BB
ENCODING 187
SWIDTH 500 0
DWIDTH 8 0
BBX 8 16 0 -3
BITMAP
00
00
00
00
00
00
90
48
24
12
24
48
90
00
00
00
ENDCHAR
STARTCHAR u00BC
ENCODING 188
SWIDTH 1000 0
DWIDTH 16 0
BBX 16 16 0 -3
BITMAP
0000
1002
7004
1008
1010
1020
1040
7C80
0100
0218
0428
0828
1048
2048
407C
8008
ENDCHAR
STARTCHAR u00BD
ENCODING 189
SWIDTH 1000 0
DWIDTH 16 0
BBX 16 16 0 -3
BITMAP
0000
1002
7004
1008
1010
1020
1040
7C80
0100
0238
0444
0804
1018
2020
4040
807C
ENDCHAR
STARTCHAR u00BE
ENCODING 190
SWIDTH 1000 0
DWIDTH 16 0
BBX 16 16 0 -3
BITMAP
0000
3802
4404
0408
1810
0420
4440
3880
0100
0218
0428
0828
1048
2048
407C
8008
ENDCHAR
STARTCHAR u00BF
ENCODING 191
SWIDTH 500 0
DWIDTH 8 0
BBX 8 16 0 -3
BITMAP
00
00
00
00
00
00
10
00
10
10
10
20
40
42
42
3C
ENDCHAR
STARTCHAR u00C0
ENCODING 192
SWIDTH 500 0
DWIDTH 8 0
BBX 8 16 0 -3
BITMAP
00
20
10
00
10
10
28
28
44
7C
44
82
82
00
00
00
ENDCHAR
STARTCHAR u00C1
ENCODING 193
SWIDTH 500 0
DWIDTH 8 0
BBX 8 16 0 -3
BITMAP
00
08
10
00
10
10
28
28
44
7C
44
82
82
00
00
00
ENDCHAR
STARTCHAR u00C2
ENCODING 194
SWIDTH 500 0
DWIDTH 8 0
BBX 8 16 0 -3
BITMAP
00
10
28
00
10
10
28
28
44
7C
44
82
82
00
00
00
ENDCHAR
STARTCHAR u00C3
ENCODING 195
SWIDTH 500 0
DWIDTH 8 0
BBX 8 16 0 -3
BITMAP
00
34
48
00
10
10
28
28
44
7C
44
82
82
00
00
00
ENDCHAR
STARTCHAR u00C4
ENCODING 196
SWIDTH 500 0
DWIDTH 8 0
BBX 8 16 0 -3
BITMAP
00
44
00
10
10
28
28
44
44
7C
82
82
82
00
00
00
ENDCHAR
STARTCHAR u00C5
ENCODING 197
SWIDTH 500 0
DWIDTH 8 0
BBX 8 16 0 -3
BITMAP
00
10
28
10
00
10
28
28
44
7C
44
82
82
00
00
00
ENDCHAR
STARTCHAR u00C6
ENCODING 198
SWIDTH 500 0
DWIDTH 8 0
BBX 8 16 0 -3
BITMAP
00
00
00
1E
18
28
28
4E
48
78
88
88
8E
00
00
00
ENDCHAR
STARTCHAR u00C7
ENCODING 199
SWIDTH 500 0
DWIDTH 8 0
BBX 8 16 0 -3
BITMAP
00
00
00
3C
42
80
80
80
80
80
80
42
3C
08
04
18
ENDCHAR
STARTCHAR u00C8
ENCODING 200
SWIDTH 500 0
DWIDTH 8 0
BBX 8 16 0 -3
BITMAP
00
20
10
00
FE
80
80
80
FC
80
80
80
FE
00
00
00
ENDCHAR
STARTCHAR u00C9
ENCODING 201
SWIDTH 500 0
DWIDTH 8 0
BBX 8 16 0 -3
BITMAP
00
08
10
00
FE
80
80
80
FC
80
80
80
FE
00
00
00
ENDCHAR
STARTCHAR u00CA
ENCODING 202
SWIDTH 500 0
DWIDTH 8 0
BBX 8 16 0 -3
BITMAP
00
10
28
00
FE
80
80
80
FC
80
80
80
FE
00
00
00
ENDCHAR
STARTCHAR u00CB
ENCODING 203
SWIDTH 500 0
DWIDTH 8 0
BBX 8 16 0 -3
BITMAP
00
44
00
FE
80
80
80
FC
80
80
80
80
FE
00
00
00
ENDCHAR
STARTCHAR u00CC
ENCODING 204
SWIDTH 500 0
DWIDTH 8 0
BBX 8 16 0 -3
BITMAP
00
20
10
00
FE
10
10
10
10
10
10
10
FE
00
00
00
ENDCHAR
STARTCHAR u00CD
ENCODING 205
SWIDTH 500 0
DWIDTH 8 0
BBX 8 16 0 -3
BITMAP
00
08
10
00
FE
10
10
10
10
10
10
10
FE
00
00
00
ENDCHAR
STARTCHAR u00CE
ENCODING 206
SWIDTH 500 0
DWIDTH 8 0
BBX 8 16 0 -3
BITMAP
00
10
28
00
FE
10
10
10
10
10
10
10
FE
00
00
00
ENDCHAR
STARTCHAR u00CF
ENCODING 207
SWIDTH 500 0
DWIDTH 8 0
BBX 8 16 0 -3
BITMAP
00
44
00
FE
10
10
10
10
10
10
10
10
FE
00
00
00
ENDCHAR
STARTCHAR u00D0
ENCODING 208
SWIDTH 500 0
DWIDTH 8 0
BBX 8 16 0 -3
BITMAP
00
00
00
78
44
42
42
F2
42
42
42
44
78
00
00
00
ENDCHAR
STARTCHAR u00D1
ENCODING 209
SWIDTH 500 0
DWIDTH 8 0
BBX 8 16 0 -3
BITMAP
00
34
48
00
82
C2
A2
A2
92
8A
8A
86
82
00
00
00
ENDCHAR
STARTCHAR u00D2
ENCODING 210
SWIDTH 500 0
DWIDTH 8 0
BBX 8 16 0 -3
BITMAP
00
20
10
00
38
44
82
82
82
82
82
44
38
00
00
00
ENDCHAR
STARTCHAR u00D3
ENCODING 211
SWIDTH 500 0
DWIDTH 8 0
BBX 8 16 0 -3
BITMAP
00
08
10
00
38
44
82
82
82
82
82
44
38
00
00
00
ENDCHAR
STARTCHAR u00D4
ENCODING 212
SWIDTH 500 0
DWIDTH 8 0
BBX 8 16 0 -3
BITMAP
00
10
28
00
38
44
82
82
82
82
82
44
38
00
00
00
ENDCHAR
STARTCHAR u00D5
ENCODING 213
SWIDTH 500 0
DWIDTH 8 0
BBX 8 16 0 -3
BITMAP
00
34
48
00
38
44
82
82
82
82
82
44
38
00
00
00
ENDCHAR
STARTCHAR u00D6
ENCODING 214
SWIDTH 500 0
DWIDTH 8 0
BBX 8 16 0 -3
BITMAP
00
44
00
38
44
82
82
82
82
82
82
44
38
00
00
00
ENDCHAR
STARTCHAR u00D7
ENCODING 215
SWIDTH 500 0
DWIDTH 8 0
BBX 8 16 0 -3
BITMAP
00
00
00
00
00
00
44
28
10
28
44
00
00
00
00
00
ENDCHAR
STARTCHAR u00D8
ENCODING 216
SWIDTH 500 0
DWIDTH 8 0
BBX 8 16 0 -3
BITMAP
00
00
02
3A
44
8A
8A
92
92
A2
A2
44
B8
80
00
00
ENDCHAR
STARTCHAR u00D9
ENCODING 217
SWIDTH 500 0
DWIDTH 8 0
BBX 8 16 0 -3
BITMAP
00
20
10
00
82
82
82
82
82
82
82
44
38
00
00
00
ENDCHAR
STARTCHAR u00DA
ENCODING 218
SWIDTH 500 0
DWIDTH 8 0
BBX 8 16 0 -3
BITMAP
00
08
10
00
82
82
82
82
82
82
82
44
38
00
00
00
ENDCHAR
STARTCHAR u00DB
ENCODING 219
SWIDTH 500 0
DWIDTH 8 0
BBX 8 16 0 -3
BITMAP
00
10
28
00
82
82
82
82
82
82
82
44
38
00
00
00
ENDCHAR
STARTCHAR u00DC
ENCODING 220
SWIDTH 500 0
DWIDTH 8 0
BBX 8 16 0 -3
BITMAP
00
44
00
82
82
82
82
82
82
82
82
44
38
00
00
00
ENDCHAR
STARTCHAR u00DD
ENCODING 221
SWIDTH 500 0
DWIDTH 8 0
BBX 8 16 0 -3
BITMAP
00
08
10
00
82
44
44
28
28
10
10
10
10
00
00
00
ENDCHAR
STARTCHAR u00DE
ENCODING 222
SWIDTH 500 0
DWIDTH 8 0
BBX 8 16 0 -3
BITMAP
00
00
00
80
80
FC
82
82
82
82
FC
80
80
00
00
00
ENDCHAR
STARTCHAR u00DF
ENCODING 223
SWIDTH 500 0
DWIDTH 8 0
BBX 8 16 0 -3
BITMAP
00
00
00
38
44
44
44
48
44
42
42
52
4C
00
00
00
ENDCHAR
STARTCHAR u00E0
ENCODING 224
SWIDTH 500 0
DWIDTH 8 0
BBX 8 16 0 -3
BITMAP
00
00
00
10
08
00
3C
02
02
3E
42
42
3E
00
00
00
ENDCHAR
STARTCHAR u00E1
ENCODING 225
SWIDTH 500 0
DWIDTH 8 0
BBX 8 16 0 -3
BITMAP
00
00
00
08
10
00
3C
02
02
3E
42
42
3E
00
00
00
ENDCHAR
STARTCHAR u00E2
ENCODING 226
SWIDTH 500 0
DWIDTH 8 0
BBX 8 16 0 -3
BITMAP
00
00
00
08
14
00
3C
02
02
3E
42
42
3E
00
00
00
ENDCHAR
STARTCHAR u00E3
ENCODING 227
SWIDTH 500 0
DWIDTH 8 0
BBX 8 16 0 -3
BITMAP
00
00
00
1A
24
00
3C
02
02
3E
42
42
3E
00
00
00
ENDCHAR
STARTCHAR u00E4
ENCODING 228
SWIDTH 500 0
DWIDTH 8 0
BBX 8 16 0 -3
BITMAP
00
00
00
24
00
00
3C
02
02
3E
42
42
3E
00
00
00
ENDCHAR
STARTCHAR u00E5
ENCODING 229
SWIDTH 500 0
DWIDTH 8 0
BBX 8 16 0 -3
BITMAP
00
00
08
14
08
00
3C
02
02
3E
42
42
3E
00
00
00
ENDCHAR
STARTCHAR u00E6
ENCODING 230
SWIDTH 500 0
DWIDTH 8 0
BBX 8 16 0 -3
BITMAP
00
00
00
00
00
00
6C
12
12
7E
90
92
6C
00
00
00
ENDCHAR
STARTCHAR u00E7
ENCODING 231
SWIDTH 500 0
DWIDTH 8 0
BBX 8 16 0 -3
BITMAP
00
00
00
00
00
00
3C
42
40
40
40
42
3C
08
04
18
ENDCHAR
STARTCHAR u00E8
ENCODING 232
SWIDTH 500 0
DWIDTH 8 0
BBX 8 16 0 -3
BITMAP
00
00
00
10
08
00
3C
42
42
7E
40
42
3C
00
00
00
ENDCHAR
STARTCHAR u00E9
ENCODING 233
SWIDTH 500 0
DWIDTH 8 0
BBX 8 16 0 -3
BITMAP
00
00
00
08
10
00
3C
42
42
7E
40
42
3C
00
00
00
ENDCHAR
STARTCHAR u00EA
ENCODING 234
SWIDTH 500 0
DWIDTH 8 0
BBX 8 16 0 -3
BITMAP
00
00
00
08
14
00
3C
42
42
7E
40
42
3C
00
00
00
ENDCHAR
STARTCHAR u00EB
ENCODING 235
SWIDTH 500 0
DWIDTH 8 0
BBX 8 16 0 -3
BITMAP
00
00
00
24
00
00
3C
42
42
7E
40
42
3C
00
00
00
ENDCHAR
STARTCHAR u00EC
ENCODING 236
SWIDTH 500 0
DWIDTH 8 0
BBX 8 16 0 -3
BITMAP
00
00
00
10
08
00
78
08
08
08
08
08
7E
00
00
00
ENDCHAR
STARTCHAR u00ED
ENCODING 237
SWIDTH 500 0
DWIDTH 8 0
BBX 8 16 0 -3
BITMAP
00
00
00
08
10
00
78
08
08
08
08
08
7E
00
00
00
ENDCHAR
STARTCHAR u00EE
ENCODING 238
SWIDTH 500 0
DWIDTH 8 0
BBX 8 16 0 -3
BITMAP
00
00
00
08
14
00
78
08
08
08
08
08
7E
00
00
00
ENDCHAR
STARTCHAR u00EF
ENCODING 239
SWIDTH 500 0
DWIDTH 8 0
BBX 8 16 0 -3
BITMAP
00
00
00
28
00
00
78
08
08
08
08
08
7E
00
00
00
ENDCHAR
STARTCHAR u00F0
ENCODING 240
SWIDTH 500 0
DWIDTH 8 0
BBX 8 16 0 -3
BITMAP
00
00
10
0E
38
04
3C
42
42
42
42
42
3C
00
00
00
ENDCHAR
STARTCHAR u00F1
ENCODING 241
SWIDTH 500 0
DWIDTH 8 0
BBX 8 16 0 -3
BITMAP
00
00
00
1A
24
00
5C
62
42
42
42
42
42
00
00
00
ENDCHAR
STARTCHAR u00F2
ENCODING 242
SWIDTH 500 0
DWIDTH 8 0
BBX 8 16 0 -3
BITMAP
00
00
00
10
08
00
3C
42
42
42
42
42
3C
00
00
00
ENDCHAR
STARTCHAR u00F3
ENCODING 243
SWIDTH 500 0
DWIDTH 8 0
BBX 8 16 0 -3
BITMAP
00
00
00
08
10
00
3C
42
42
42
42
42
3C
00
00
00
ENDCHAR
STARTCHAR u00F4
ENCODING 244
SWIDTH 500 0
DWIDTH 8 0
BBX 8 16 0 -3
BITMAP
00
00
00
08
14
00
3C
42
42
42
42
42
3C
00
00
00
ENDCHAR
STARTCHAR u00F5
ENCODING 245
SWIDTH 500 0
DWIDTH 8 0
BBX 8 16 0 -3
BITMAP
00
00
00
1A
24
00
3C
42
42
42
42
42
3C
00
00
00
ENDCHAR
STARTCHAR u00F6
ENCODING 246
SWIDTH 500 0
DWIDTH 8 0
BBX 8 16 0 -3
BITMAP
00
00
00
24
00
00
3C
42
42
42
42
42
3C
00
00
00
ENDCHAR
STARTCHAR u00F7
ENCODING 247
SWIDTH 500 0
DWIDTH 8 0
BBX 8 16 0 -3
BITMAP
00
00
00
00
00
00
10
00
7C
00
10
00
00
00
00
00
ENDCHAR
STARTCHAR u00F8
ENCODING 248
SWIDTH 500 0
DWIDTH 8 0
BBX 8 16 0 -3
BITMAP
00
00
00
00
00
02
3C
46
4A
4A
52
62
3C
40
00
00
ENDCHAR
STARTCHAR u00F9
ENCODING 249
SWIDTH 500 0
DWIDTH 8 0
BBX 8 16 0 -3
BITMAP
00
00
00
10
08
00
42
42
42
42
42
46
3A
00
00
00
ENDCHAR
STARTCHAR u00FA
ENCODING 250
SWIDTH 500 0
DWIDTH 8 0
BBX 8 16 0 -3
BITMAP
00
00
00
08
10
00
42
42
42
42
42
46
3A
00
00
00
ENDCHAR
STARTCHAR u00FB
ENCODING 251
SWIDTH 500 0
DWIDTH 8 0
BBX 8 16 0 -3
BITMAP
00
00
00
08
14
00
42
42
42
42
42
46
3A
00
00
00
ENDCHAR
STARTCHAR u00FC
ENCODING 252
SWIDTH 500 0
DWIDTH 8 0
BBX 8 16 0 -3
BITMAP
00
00
00
24
00
00
42
42
42
42
42
46
3A
00
00
00
ENDCHAR
STARTCHAR u00FD
ENCODING 253
SWIDTH 500 0
DWIDTH 8 0
BBX 8 16 0 -3
BITMAP
00
00
00
08
10
00
82
82
44
44
28
28
10
10
20
C0
ENDCHAR
STARTCHAR u00FE
ENCODING 254
SWIDTH 500 0
DWIDTH 8 0
BBX 8 16 0 -3
BITMAP
00
00
00
40
40
40
7C
42
42
42
42
42
7C
40
40
40
ENDCHAR
STARTCHAR u00FF
ENCODING 255
SWIDTH 500 0
DWIDTH 8 0
BBX 8 16 0 -3
BITMAP
00
00
00
44
00
00
82
82
44
44
28
28
10
10
20
C0
ENDCHAR
STARTCHAR u0100
ENCODING 256
SWIDTH 500 0
DWIDTH 8 0
BBX 8 16 0 -3
BITMAP
00
7C
00
10
10
28
28
44
44
7C
82
82
82
00
00
00
ENDCHAR
STARTCHAR u0101
ENCODING 257
SWIDTH 500 0
DWIDTH 8 0
BBX 8 16 0 -3
BITMAP
00
00
00
3C
00
00
3C
02
02
3E
42
42
3E
00
00
00
ENDCHAR
STARTCHAR u0102
ENCODING 258
SWIDTH 500 0
DWIDTH 8 0
BBX 8 16 0 -3
BITMAP
00
44
38
00
10
10
28
28
44
7C
44
82
82
00
00
00
ENDCHAR
STARTCHAR u0103
ENCODING 259
SWIDTH 500 0
DWIDTH 8 0
BBX 8 16 0 -3
BITMAP
00
00
00
24
18
00
3C
02
02
3E
42
42
3E
00
00
00
ENDCHAR
STARTCHAR u0104
ENCODING 260
SWIDTH 500 0
DWIDTH 8 0
BBX 8 16 0 -3
BITMAP
00
00
00
10
10
28
28
44
44
7C
82
82
82
04
02
00
ENDCHAR
STARTCHAR u0105
ENCODING 261
SWIDTH 500 0
DWIDTH 8 0
BBX 8 16 0 -3
BITMAP
00
00
00
00
00
00
3C
02
02
3E
42
42
3E
02
04
02
ENDCHAR
STARTCHAR u0106
ENCODING 262
SWIDTH 500 0
DWIDTH 8 0
BBX 8 16 0 -3
BITMAP
00
08
10
00
3C
42
80
80
80
80
80
42
3C
00
00
00
ENDCHAR
STARTCHAR u0107
ENCODING 263
SWIDTH 500 0
DWIDTH 8 0
BBX 8 16 0 -3
BITMAP
00
00
00
08
10
00
3C
42
40
40
40
42
3C
00
00
00
ENDCHAR
STARTCHAR u0108
ENCODING 264
SWIDTH 500 0
DWIDTH 8 0
BBX 8 16 0 -3
BITMAP
00
10
28
00
3C
42
80
80
80
80
80
42
3C
00
00
00
ENDCHAR
STARTCHAR u0109
ENCODING 265
SWIDTH 500 0
DWIDTH 8 0
BBX 8 16 0 -3
BITMAP
00
00
00
08
14
00
3C
42
40
40
40
42
3C
00
00
00
ENDCHAR
STARTCHAR u010A
ENCODING 266
SWIDTH 500 0
DWIDTH 8 0
BBX 8 16 0 -3
BITMAP
00
08
00
3C
42
80
80
80
80
80
80
42
3C
00
00
00
ENDCHAR
STARTCHAR u010B
ENCODING 267
SWIDTH 500 0
DWIDTH 8 0
BBX 8 16 0 -3
BITMAP
00
00
00
08
00
00
3C
42
40
40
40
42
3C
00
00
00
ENDCHAR
STARTCHAR u010C
ENCODING 268
SWIDTH 500 0
DWIDTH 8 0
BBX 8 16 0 -3
BITMAP
00
28
10
00
3C
42
80
80
80
80
80
42
3C
00
00
00
ENDCHAR
STARTCHAR u010D
ENCODING 269
SWIDTH 500 0
DWIDTH 8 0
BBX 8 16 0 -3
BITMAP
00
00
00
14
08
00
3C
42
40
40
40
42
3C
00
00
00
ENDCHAR
STARTCHAR u010E
ENCODING 270
SWIDTH 500 0
DWIDTH 8 0
BBX 8 16 0 -3
BITMAP
00
28
10
00
F8
84
82
82
82
82
82
84
F8
00
00
00
ENDCHAR
STARTCHAR u010F
ENCODING 271
SWIDTH 500 0
DWIDTH 8 0
BBX 8 16 0 -3
BITMAP
00
00
00
0A
0A
08
78
88
88
88
88
88
78
00
00
00
ENDCHAR
STARTCHAR u0110
ENCODING 272
SWIDTH 500 0
DWIDTH 8 0
BBX 8 16 0 -3
BITMAP
00
00
00
78
44
42
42
F2
42
42
42
44
78
00
00
00
ENDCHAR
STARTCHAR u0111
ENCODING 273
SWIDTH 500 0
DWIDTH 8 0
BBX 8 16 0 -3
BITMAP
00
00
00
04
1E
04
7C
84
84
84
84
84
7C
00
00
00
ENDCHAR
STARTCHAR u0112
ENCODING 274
SWIDTH 500 0
DWIDTH 8 0
BBX 8 16 0 -3
BITMAP
00
7C
00
FE
80
80
80
FC
80
80
80
80
FE
00
00
00
ENDCHAR
STARTCHAR u0113
ENCODING 275
SWIDTH 500 0
DWIDTH 8 0
BBX 8 16 0 -3
BITMAP
00
00
00
3C
00
00
3C
42
42
7E
40
42
3C
00
00
00
ENDCHAR
STARTCHAR u0114
ENCODING 276
SWIDTH 500 0
DWIDTH 8 0
BBX 8 16 0 -3
BITMAP
00
44
38
00
FE
80
80
80
FC
80
80
80
FE
00
00
00
ENDCHAR
STARTCHAR u0115
ENCODING 277
SWIDTH 500 0
DWIDTH 8 0
BBX 8 16 0 -3
BITMAP
00
00
00
24
18
00
3C
42
42
7E
40
42
3C
00
00
00
ENDCHAR
STARTCHAR u0116
ENCODING 278
SWIDTH 500 0
DWIDTH 8 0
BBX 8 16 0 -3
BITMAP
00
10
00
FE
80
80
80
FC
80
80
80
80
FE
00
00
00
ENDCHAR
STARTCHAR u0117
ENCODING 279
SWIDTH 500 0
DWIDTH 8 0
BBX 8 16 0 -3
BITMAP
00
00
00
08
00
00
3C
42
42
7E
40
42
3C
00
00
00
ENDCHAR
STARTCHAR u0118
ENCODING 280
SWIDTH 500 0
DWIDTH 8 0
BBX 8 16 0 -3
BITMAP
00
00
00
FE
80
80
80
FC
80
80
80
80
FE
04
08
06
ENDCHAR
STARTCHAR u0119
ENCODING 281
SWIDTH 500 0
DWIDTH 8 0
BBX 8 16 0 -3
BITMAP
00
00
00
00
00
00
3C
42
42
7E
40
42
3C
04
08
06
ENDCHAR
STARTCHAR u011A
ENCODING 282
SWIDTH 500 0
DWIDTH 8 0
BBX 8 16 0 -3
BITMAP
00
28
10
00
FE
80
80
80
FC
80
80
80
FE
00
00
00
ENDCHAR
STARTCHAR u011B
ENCODING 283
SWIDTH 500 0
DWIDTH 8 0
BBX 8 16 0 -3
BITMAP
00
00
00
14
08
00
3C
42
42
7E
40
42
3C
00
00
00
ENDCHAR
STARTCHAR u011C
ENCODING 284
SWIDTH 500 0
DWIDTH 8 0
BBX 8 16 0 -3
BITMAP
00
10
28
00
3C
42
80
80
80
8E
82
42
3E
00
00
00
ENDCHAR
STARTCHAR u011D
ENCODING 285
SWIDTH 500 0
DWIDTH 8 0
BBX 8 16 0 -3
BITMAP
00
00
00
08
14
00
3E
42
42
42
42
42
3E
02
02
3C
ENDCHAR
STARTCHAR u011E
ENCODING 286
SWIDTH 500 0
DWIDTH 8 0
BBX 8 16 0 -3
BITMAP
00
44
38
00
3C
42
80
80
80
8E
82
42
3E
00
00
00
ENDCHAR
STARTCHAR u011F
ENCODING 287
SWIDTH 500 0
DWIDTH 8 0
BBX 8 16 0 -3
BITMAP
00
00
00
24
18
00
3E
42
42
42
42
42
3E
02
02
3C
ENDCHAR
STARTCHAR u0120
ENCODING 288
SWIDTH 500 0
DWIDTH 8 0
BBX 8 16 0 -3
BITMAP
00
08
00
3C
42
80
80
80
8E
82
82
42
3E
00
00
00
ENDCHAR
STARTCHAR u0121
ENCODING 289
SWIDTH 500 0
DWIDTH 8 0
BBX 8 16 0 -3
BITMAP
00
00
00
08
00
00
3E
42
42
42
42
42
3E
02
02
3C
ENDCHAR
STARTCHAR u0122
ENCODING 290
SWIDTH 500 0
DWIDTH 8 0
BBX 8 16 0 -3
BITMAP
00
00
00
3C
42
80
80
80
8E
82
82
42
3E
00
10
20
ENDCHAR
STARTCHAR u0123
ENCODING 291
SWIDTH 500 0
DWIDTH 8 0
BBX 8 16 0 -3
BITMAP
00
00
00
08
10
00
3E
42
42
42
42
42
3E
02
02
3C
ENDCHAR
STARTCHAR u0124
ENCODING 292
SWIDTH 500 0
DWIDTH 8 0
BBX 8 16 0 -3
BITMAP
00
10
28
00
82
82
82
82
FE
82
82
82
82
00
00
00
ENDCHAR
STARTCHAR u0125
ENCODING 293
SWIDTH 500 0
DWIDTH 8 0
BBX 8 16 0 -3
BITMAP
00
08
14
00
40
40
40
5C
62
42
42
42
42
00
00
00
ENDCHAR
STARTCHAR u0126
ENCODING 294
SWIDTH 500 0
DWIDTH 8 0
BBX 8 16 0 -3
BITMAP
00
00
00
44
44
FE
44
7C
44
44
44
44
44
00
00
00
ENDCHAR
STARTCHAR u0127
ENCODING 295
SWIDTH 500 0
DWIDTH 8 0
BBX 8 16 0 -3
BITMAP
00
00
00
40
F0
40
5C
62
42
42
42
42
42
00
00
00
ENDCHAR
STARTCHAR u0128
ENCODING 296
SWIDTH 500 0
DWIDTH 8 0
BBX 8 16 0 -3
BITMAP
00
34
48
00
FE
10
10
10
10
10
10
10
FE
00
00
00
ENDCHAR
STARTCHAR u0129
ENCODING 297
SWIDTH 500 0
DWIDTH 8 0
BBX 8 16 0 -3
BITMAP
00
00
00
1A
24
00
78
08
08
08
08
08
7E
00
00
00
ENDCHAR
STARTCHAR u012A
ENCODING 298
SWIDTH 500 0
DWIDTH 8 0
BBX 8 16 0 -3
BITMAP
00
00
38
00
FE
10
10
10
10
10
10
10
FE
00
00
00
ENDCHAR
STARTCHAR u012B
ENCODING 299
SWIDTH 500 0
DWIDTH 8 0
BBX 8 16 0 -3
BITMAP
00
00
00
1C
00
00
78
08
08
08
08
08
7E
00
00
00
ENDCHAR
STARTCHAR u012C
ENCODING 300
SWIDTH 500 0
DWIDTH 8 0
BBX 8 16 0 -3
BITMAP
00
44
38
00
FE
10
10
10
10
10
10
10
FE
00
00
00
ENDCHAR
STARTCHAR u012D
ENCODING 301
SWIDTH 500 0
DWIDTH 8 0
BBX 8 16 0 -3
BITMAP
00
00
00
24
18
00
78
08
08
08
08
08
7E
00
00
00
ENDCHAR
STARTCHAR u012E
ENCODING 302
SWIDTH 500 0
DWIDTH 8 0
BBX 8 16 0 -3
BITMAP
00
00
00
FE
10
10
10
10
10
10
10
10
FE
10
20
18
ENDCHAR
STARTCHAR u012F
ENCODING 303
SWIDTH 500 0
DWIDTH 8 0
BBX 8 16 0 -3
BITMAP
00
00
00
08
00
00
78
08
08
08
08
08
7E
08
10
0C
ENDCHAR
STARTCHAR u0130
ENCODING 304
SWIDTH 500 0
DWIDTH 8 0
BBX 8 16 0 -3
BITMAP
00
10
00
FE
10
10
10
10
10
10
10
10
FE
00
00
00
ENDCHAR
STARTCHAR u0131
ENCODING 305
SWIDTH 500 0
DWIDTH 8 0
BBX 8 16 0 -3
BITMAP
00
00
00
00
00
00
78
08
08
08
08
08
7E
00
00
00
ENDCHAR
STARTCHAR u0134
ENCODING 308
SWIDTH 500 0
DWIDTH 8 0
BBX 8 16 0 -3
BITMAP
00
10
28
00
02
02
02
02
02
82
82
44
38
00
00
00
ENDCHAR
STARTCHAR u0135
ENCODING 309
SWIDTH 500 0
DWIDTH 8 0
BBX 8 16 0 -3
BITMAP
00
00
00
08
14
00
7C
04
04
04
04
04
04
04
04
78
ENDCHAR
STARTCHAR u0136
ENCODING 310
SWIDTH 500 0
DWIDTH 8 0
BBX 8 16 0 -3
BITMAP
00
00
00
82
84
88
B0
C0
A0
90
88
84
82
00
10
20
ENDCHAR
STARTCHAR u0137
ENCODING 311
SWIDTH 500 0
DWIDTH 8 0
BBX 8 16 0 -3
BITMAP
00
00
00
40
40
40
42
44
58
60
50
48
46
00
10
20
ENDCHAR
STARTCHAR u0138
ENCODING 312
SWIDTH 500 0
DWIDTH 8 0
BBX 8 16 0 -3
BITMAP
00
00
00
00
00
00
42
44
58
60
50
48
46
00
00
00
ENDCHAR
STARTCHAR u0139
ENCODING 313
SWIDTH 500 0
DWIDTH 8 0
BBX 8 16 0 -3
BITMAP
00
40
80
00
80
80
80
80
80
80
80
80
FE
00
00
00
ENDCHAR
STARTCHAR u013A
ENCODING 314
SWIDTH 500 0
DWIDTH 8 0
BBX 8 16 0 -3
BITMAP
08
10
00
70
10
10
10
10
10
10
10
10
0E
00
00
00
ENDCHAR
STARTCHAR u013B
ENCODING 315
SWIDTH 500 0
DWIDTH 8 0
BBX 8 16 0 -3
BITMAP
00
00
00
80
80
80
80
80
80
80
80
80
FE
00
10
20
ENDCHAR
STARTCHAR u013C
ENCODING 316
SWIDTH 500 0
DWIDTH 8 0
BBX 8 16 0 -3
BITMAP
00
00
00
70
10
10
10
10
10
10
10
10
0E
00
10
20
ENDCHAR
STARTCHAR u013D
ENCODING 317
SWIDTH 500 0
DWIDTH 8 0
BBX 8 16 0 -3
BITMAP
00
00
00
A0
A0
80
80
80
80
80
80
80
FE
00
00
00
ENDCHAR
STARTCHAR u013E
ENCODING 318
SWIDTH 500 0
DWIDTH 8 0
BBX 8 16 0 -3
BITMAP
00
00
00
74
14
10
10
10
10
10
10
10
0E
00
00
00
ENDCHAR
STARTCHAR u013F
ENCODING 319
SWIDTH 500 0
DWIDTH 8 0
BBX 8 16 0 -3
BITMAP
00
00
00
80
80
80
80
A0
80
80
80
80
FE
00
00
00
ENDCHAR
STARTCHAR u0140
ENCODING 320
SWIDTH 500 0
DWIDTH 8 0
BBX 8 16 0 -3
BITMAP
00
00
00
70
10
10
10
14
10
10
10
10
0E
00
00
00
ENDCHAR
STARTCHAR u0141
ENCODING 321
SWIDTH 500 0
DWIDTH 8 0
BBX 8 16 0 -3
BITMAP
00
00
00
40
40
40
50
60
C0
40
40
40
7E
00
00
00
ENDCHAR
STARTCHAR u0142
ENCODING 322
SWIDTH 500 0
DWIDTH 8 0
BBX 8 16 0 -3
BITMAP
00
00
00
70
10
10
14
18
30
50
10
10
0E
00
00
00
ENDCHAR
STARTCHAR u0143
ENCODING 323
SWIDTH 500 0
DWIDTH 8 0
BBX 8 16 0 -3
BITMAP
00
08
10
00
82
C2
A2
A2
92
8A
8A
86
82
00
00
00
ENDCHAR
STARTCHAR u0144
ENCODING 324
SWIDTH 500 0
DWIDTH 8 0
BBX 8 16 0 -3
BITMAP
00
00
00
08
10
00
5C
62
42
42
42
42
42
00
00
00
ENDCHAR
STARTCHAR u0145
ENCODING 325
SWIDTH 500 0
DWIDTH 8 0
BBX 8 16 0 -3
BITMAP
00
00
00
82
C2
C2
A2
92
92
8A
86
86
82
00
10
20
ENDCHAR
STARTCHAR u0146
ENCODING 326
SWIDTH 500 0
DWIDTH 8 0
BBX 8 16 0 -3
BITMAP
00
00
00
00
00
00
5C
62
42
42
42
42
42
00
08
10
ENDCHAR
STARTCHAR u0147
ENCODING 327
SWIDTH 500 0
DWIDTH 8 0
BBX 8 16 0 -3
BITMAP
00
28
10
00
82
C2
A2
A2
92
8A
8A
86
82
00
00
00
ENDCHAR
STARTCHAR u0148
ENCODING 328
SWIDTH 500 0
DWIDTH 8 0
BBX 8 16 0 -3
BITMAP
00
00
00
14
08
00
5C
62
42
42
42
42
42
00
00
00
ENDCHAR
STARTCHAR u0149
ENCODING 329
SWIDTH 500 0
DWIDTH 8 0
BBX 8 16 0 -3
BITMAP
00
00
00
20
40
00
5C
62
42
42
42
42
42
00
00
00
ENDCHAR
STARTCHAR u014A
ENCODING 330
SWIDTH 500 0
DWIDTH 8 0
BBX 8 16 0 -3
BITMAP
00
00
00
82
C2
C2
A2
92
92
8A
86
86
82
02
0C
00
ENDCHAR
STARTCHAR u014B
ENCODING 331
SWIDTH 500 0
DWIDTH 8 0
BBX 8 16 0 -3
BITMAP
00
00
00
00
00
00
5C
62
42
42
42
42
42
02
0C
00
ENDCHAR
STARTCHAR u014C
ENCODING 332
SWIDTH 500 0
DWIDTH 8 0
BBX 8 16 0 -3
BITMAP
00
7C
00
38
44
82
82
82
82
82
82
44
38
00
00
00
ENDCHAR
STARTCHAR u014D
ENCODING 333
SWIDTH 500 0
DWIDTH 8 0
BBX 8 16 0 -3
BITMAP
00
00
00
3C
00
00
3C
42
42
42
42
42
3C
00
00
00
ENDCHAR
STARTCHAR u014E
ENCODING 334
SWIDTH 500 0
DWIDTH 8 0
BBX 8 16 0 -3
BITMAP
00
44
38
00
38
44
82
82
82
82
82
44
38
00
00
00
ENDCHAR
STARTCHAR u014F
ENCODING 335
SWIDTH 500 0
DWIDTH 8 0
BBX 8 16 0 -3
BITMAP
00
00
00
24
18
00
3C
42
42
42
42
42
3C
00
00
00
ENDCHAR
STARTCHAR u0150
ENCODING 336
SWIDTH 500 0
DWIDTH 8 0
BBX 8 16 0 -3
BITMAP
00
14
28
00
38
44
82
82
82
82
82
44
38
00
00
00
ENDCHAR
STARTCHAR u0151
ENCODING 337
SWIDTH 500 0
DWIDTH 8 0
BBX 8 16 0 -3
BITMAP
00
00
00
14
28
00
3C
42
42
42
42
42
3C
00
00
00
ENDCHAR
STARTCHAR u0152
ENCODING 338
SWIDTH 500 0
DWIDTH 8 0
BBX 8 16 0 -3
BITMAP
00
00
00
3E
48
88
88
8E
88
88
88
48
3E
00
00
00
ENDCHAR
STARTCHAR u0153
ENCODING 339
SWIDTH 500 0
DWIDTH 8 0
BBX 8 16 0 -3
BITMAP
00
00
00
00
00
00
6C
92
92
9E
90
92
6C
00
00
00
ENDCHAR
STARTCHAR u0154
ENCODING 340
SWIDTH 500 0
DWIDTH 8 0
BBX 8 16 0 -3
BITMAP
00
08
10
00
FC
82
82
82
FC
88
84
84
82
00
00
00
ENDCHAR
STARTCHAR u0155
ENCODING 341
SWIDTH 500 0
DWIDTH 8 0
BBX 8 16 0 -3
BITMAP
00
00
00
08
10
00
5C
62
40
40
40
40
40
00
00
00
ENDCHAR
STARTCHAR u0156
ENCODING 342
SWIDTH 500 0
DWIDTH 8 0
BBX 8 16 0 -3
BITMAP
00
00
00
FC
82
82
82
82
FC
88
84
84
82
00
10
20
ENDCHAR
STARTCHAR u0157
ENCODING 343
SWIDTH 500 0
DWIDTH 8 0
BBX 8 16 0 -3
BITMAP
00
00
00
00
00
00
5C
62
40
40
40
40
40
00
08
10
ENDCHAR
STARTCHAR u0158
ENCODING 344
SWIDTH 500 0
DWIDTH 8 0
BBX 8 16 0 -3
BITMAP
00
28
10
00
FC
82
82
82
FC
88
84
84
82
00
00
00
ENDCHAR
STARTCHAR u0159
ENCODING 345
SWIDTH 500 0
DWIDTH 8 0
BBX 8 16 0 -3
BITMAP
00
00
00
14
08
00
5C
62
40
40
40
40
40
00
00
00
ENDCHAR
STARTCHAR u015A
ENCODING 346
SWIDTH 500 0
DWIDTH 8 0
BBX 8 16 0 -3
BITMAP
00
08
10
00
7C
82
80
80
7C
02
02
82
7C
00
00
00
ENDCHAR
STARTCHAR u015B
ENCODING 347
SWIDTH 500 0
DWIDTH 8 0
BBX 8 16 0 -3
BITMAP
00
00
00
08
10
00
3C
42
40
3C
02
42
3C
00
00
00
ENDCHAR
STARTCHAR u015C
ENCODING 348
SWIDTH 500 0
DWIDTH 8 0
BBX 8 16 0 -3
BITMAP
00
10
28
00
7C
82
80
80
7C
02
02
82
7C
00
00
00
ENDCHAR
STARTCHAR u015D
ENCODING 349
SWIDTH 500 0
DWIDTH 8 0
BBX 8 16 0 -3
BITMAP
00
00
00
08
14
00
3C
42
40
3C
02
42
3C
00
00
00
ENDCHAR
STARTCHAR u015E
ENCODING 350
SWIDTH 500 0
DWIDTH 8 0
BBX 8 16 0 -3
BITMAP
00
00
00
7C
82
80
80
70
0C
02
02
82
7C
10
08
30
ENDCHAR
STARTCHAR u015F
ENCODING 351
SWIDTH 500 0
DWIDTH 8 0
BBX 8 16 0 -3
BITMAP
00
00
00
00
00
00
3C
42
40
3C
02
42
3C
08
04
18
ENDCHAR
STARTCHAR u0160
ENCODING 352
SWIDTH 500 0
DWIDTH 8 0
BBX 8 16 0 -3
BITMAP
00
28
10
00
7C
82
80
80
7C
02
02
82
7C
00
00
00
ENDCHAR
STARTCHAR u0161
ENCODING 353
SWIDTH 500 0
DWIDTH 8 0
BBX 8 16 0 -3
BITMAP
00
00
00
14
08
00
3C
42
40
3C
02
42
3C
00
00
00
ENDCHAR
STARTCHAR u0162
ENCODING 354
SWIDTH 500 0
DWIDTH 8 0
BBX 8 16 0 -3
BITMAP
00
00
00
FE
10
10
10
10
10
10
10
10
10
08
30
00
ENDCHAR
STARTCHAR u0163
ENCODING 355
SWIDTH 500 0
DWIDTH 8 0
BBX 8 16 0 -3
BITMAP
00
00
00
10
10
10
7E
10
10
10
10
10
0E
08
04
18
ENDCHAR
STARTCHAR u0164
ENCODING 356
SWIDTH 500 0
DWIDTH 8 0
BBX 8 16 0 -3
BITMAP
00
28
10
00
FE
10
10
10
10
10
10
10
10
00
00
00
ENDCHAR
STARTCHAR u0165
ENCODING 357
SWIDTH 500 0
DWIDTH 8 0
BBX 8 16 0 -3
BITMAP
00
00
04
14
10
10
7E
10
10
10
10
10
0E
00
00
00
ENDCHAR
STARTCHAR u0166
ENCODING 358
SWIDTH 500 0
DWIDTH 8 0
BBX 8 16 0 -3
BITMAP
00
00
00
FE
10
10
10
7C
10
10
10
10
10
00
00
00
ENDCHAR
STARTCHAR u0167
ENCODING 359
SWIDTH 500 0
DWIDTH 8 0
BBX 8 16 0 -3
BITMAP
00
00
00
10
10
10
7E
10
10
7E
10
10
0E
00
00
00
ENDCHAR
STARTCHAR u0168
ENCODING 360
SWIDTH 500 0
DWIDTH 8 0
BBX 8 16 0 -3
BITMAP
00
34
48
00
82
82
82
82
82
82
82
44
38
00
00
00
ENDCHAR
STARTCHAR u0169
ENCODING 361
SWIDTH 500 0
DWIDTH 8 0
BBX 8 16 0 -3
BITMAP
00
00
00
1A
24
00
42
42
42
42
42
46
3A
00
00
00
ENDCHAR
STARTCHAR u016A
ENCODING 362
SWIDTH 500 0
DWIDTH 8 0
BBX 8 16 0 -3
BITMAP
00
7C
00
82
82
82
82
82
82
82
82
44
38
00
00
00
ENDCHAR
STARTCHAR u016B
ENCODING 363
SWIDTH 500 0
DWIDTH 8 0
BBX 8 16 0 -3
BITMAP
00
00
00
3C
00
00
42
42
42
42
42
46
3A
00
00
00
ENDCHAR
STARTCHAR u016C
ENCODING 364
SWIDTH 500 0
DWIDTH 8 0
BBX 8 16 0 -3
BITMAP
00
44
38
00
82
82
82
82
82
82
82
44
38
00
00
00
ENDCHAR
STARTCHAR u016D
ENCODING 365
SWIDTH 500 0
DWIDTH 8 0
BBX 8 16 0 -3
BITMAP
00
00
00
24
18
00
42
42
42
42
42
46
3A
00
00
00
ENDCHAR
STARTCHAR u016E
ENCODING 366
SWIDTH 500 0
DWIDTH 8 0
BBX 8 16 0 -3
BITMAP
10
28
10
00
82
82
82
82
82
82
82
44
38
00
00
00
ENDCHAR
STARTCHAR u016F
ENCODING 367
SWIDTH 500 0
DWIDTH 8 0
BBX 8 16 0 -3
BITMAP
00
00
08
14
08
00
42
42
42
42
42
46
3A
00
00
00
ENDCHAR
STARTCHAR u0170
ENCODING 368
SWIDTH 500 0
DWIDTH 8 0
BBX 8 16 0 -3
BITMAP
00
14
28
00
82
82
82
82
82
82
82
44
38
00
00
00
ENDCHAR
STARTCHAR u0171
ENCODING 369
SWIDTH 500 0
DWIDTH 8 0
BBX 8 16 0 -3
BITMAP
00
00
00
14
28
00
42
42
42
42
42
46
3A
00
00
00
ENDCHAR
STARTCHAR u0172
ENCODING 370
SWIDTH 500 0
DWIDTH 8 0
BBX 8 16 0 -3
BITMAP
00
00
00
82
82
82
82
82
82
82
82
44
38
10
20
18
ENDCHAR
STARTCHAR u0173
ENCODING 371
SWIDTH 500 0
DWIDTH 8 0
BBX 8 16 0 -3
BITMAP
00
00
00
00
00
00
42
42
42
42
42
46
3A
04
08
06
ENDCHAR
STARTCHAR u0174
ENCODING 372
SWIDTH 500 0
DWIDTH 8 0
BBX 8 16 0 -3
BITMAP
00
10
28
00
92
92
92
AA
AA
AA
44
44
44
00
00
00
ENDCHAR
STARTCHAR u0175
ENCODING 373
SWIDTH 500 0
DWIDTH 8 0
BBX 8 16 0 -3
BITMAP
00
00
00
10
28
00
92
92
92
AA
AA
44
44
00
00
00
ENDCHAR
STARTCHAR u0176
ENCODING 374
SWIDTH 500 0
DWIDTH 8 0
BBX 8 16 0 -3
BITMAP
00
10
28
00
82
44
44
28
28
10
10
10
10
00
00
00
ENDCHAR
STARTCHAR u0177
ENCODING 375
SWIDTH 500 0
DWIDTH 8 0
BBX 8 16 0 -3
BITMAP
00
00
00
10
28
00
82
82
44
44
28
28
10
10
20
C0
ENDCHAR
STARTCHAR u0178
ENCODING 376
SWIDTH 500 0
DWIDTH 8 0
BBX 8 16 0 -3
BITMAP
00
44
00
82
82
44
44
28
28
10
10
10
10
00
00
00
ENDCHAR
STARTCHAR u0179
ENCODING 377
SWIDTH 500 0
DWIDTH 8 0
BBX 8 16 0 -3
BITMAP
00
08
10
00
FE
02
04
08
10
20
40
80
FE
00
00
00
ENDCHAR
STARTCHAR u017A
ENCODING 378
SWIDTH 500 0
DWIDTH 8 0
BBX 8 16 0 -3
BITMAP
00
00
00
08
10
00
7E
04
08
10
20
40
7E
00
00
00
ENDCHAR
STARTCHAR u017B
ENCODING 379
SWIDTH 500 0
DWIDTH 8 0
BBX 8 16 0 -3
BITMAP
00
10
00
FE
02
04
08
10
10
20
40
80
FE
00
00
00
ENDCHAR
STARTCHAR u017C
ENCODING 380
SWIDTH 500 0
DWIDTH 8 0
BBX 8 16 0 -3
BITMAP
00
00
00
08
00
00
7E
04
08
10
20
40
7E
00
00
00
ENDCHAR
STARTCHAR u017D
ENCODING 381
SWIDTH 500 0
DWIDTH 8 0
BBX 8 16 0 -3
BITMAP
00
28
10
00
FE
02
04
08
10
20
40
80
FE
00
00
00
ENDCHAR
STARTCHAR u017E
ENCODING 382
SWIDTH 500 0
DWIDTH 8 0
BBX 8 16 0 -3
BITMAP
00
00
00
24
18
00
7E
04
08
10
20
40
7E
00
00
00
ENDCHAR
STARTCHAR u017F
ENCODING 383
SWIDTH 500 0
DWIDTH 8 0
BBX 8 16 0 -3
BITMAP
00
00
00
0E
10
10
70
10
10
10
10
10
10
00
00
00
ENDCHAR
STARTCHAR u0180
ENCODING 384
SWIDTH 500 0
DWIDTH 8 0
BBX 8 16 0 -3
BITMAP
00
00
00
40
F0
40
7C
42
42
42
42
42
7C
00
00
00
ENDCHAR
STARTCHAR u0182
ENCODING 386
SWIDTH 500 0
DWIDTH 8 0
BBX 8 16 0 -3
BITMAP
00
00
00
FC
80
80
80
FC
82
82
82
82
FC
00
00
00
ENDCHAR
STARTCHAR u0183
ENCODING 387
SWIDTH 500 0
DWIDTH 8 0
BBX 8 16 0 -3
BITMAP
00
00
00
7C
40
40
7C
42
42
42
42
42
7C
00
00
00
ENDCHAR
STARTCHAR u0186
ENCODING 390
SWIDTH 500 0
DWIDTH 8 0
BBX 8 16 0 -3
BITMAP
00
00
00
78
84
02
02
02
02
02
02
84
78
00
00
00
ENDCHAR
STARTCHAR u0189
ENCODING 393
SWIDTH 500 0
DWIDTH 8 0
BBX 8 16 0 -3
BITMAP
00
00
00
78
44
42
42
F2
42
42
42
44
78
00
00
00
ENDCHAR
STARTCHAR u018B
ENCODING 395
SWIDTH 500 0
DWIDTH 8 0
BBX 8 16 0 -3
BITMAP
00
00
00
7E
02
02
02
7E
82
82
82
82
7E
00
00
00
ENDCHAR
STARTCHAR u018C
ENCODING 396
SWIDTH 500 0
DWIDTH 8 0
BBX 8 16 0 -3
BITMAP
00
00
00
3E
02
02
3E
42
42
42
42
42
3E
00
00
00
ENDCHAR
STARTCHAR u018E
ENCODING 398
SWIDTH 500 0
DWIDTH 8 0
BBX 8 16 0 -3
BITMAP
00
00
00
FE
02
02
02
7E
02
02
02
02
FE
00
00
00
ENDCHAR
STARTCHAR u018F
ENCODING 399
SWIDTH 500 0
DWIDTH 8 0
BBX 8 16 0 -3
BITMAP
00
00
00
38
44
02
02
02
FE
82
82
44
38
00
00
00
ENDCHAR
STARTCHAR u0191
ENCODING 401
SWIDTH 500 0
DWIDTH 8 0
BBX 8 16 0 -3
BITMAP
00
00
00
3E
20
20
20
3C
20
20
20
20
20
20
C0
00
ENDCHAR
STARTCHAR u0192
ENCODING 402
SWIDTH 500 0
DWIDTH 8 0
BBX 8 16 0 -3
BITMAP
00
00
00
0E
10
10
7E
10
10
10
10
10
10
10
10
60
ENDCHAR
STARTCHAR u019A
ENCODING 410
SWIDTH 500 0
DWIDTH 8 0
BBX 8 16 0 -3
BITMAP
00
00
00
70
10
10
10
7C
10
10
10
10
0E
00
00
00
ENDCHAR
STARTCHAR u019E
ENCODING 414
SWIDTH 500 0
DWIDTH 8 0
BBX 8 16 0 -3
BITMAP
00
00
00
00
00
00
5C
62
42
42
42
42
42
02
02
00
ENDCHAR
STARTCHAR u019F
ENCODING 415
SWIDTH 500 0
DWIDTH 8 0
BBX 8 16 0 -3
BITMAP
00
00
00
38
44
82
82
FE
82
82
82
44
38
00
00
00
ENDCHAR
STARTCHAR u01A0
ENCODING 416
SWIDTH 500 0
DWIDTH 8 0
BBX 8 16 0 -3
BITMAP
00
00
02
3A
44
82
82
82
82
82
82
44
38
00
00
00
ENDCHAR
STARTCHAR u01A1
ENCODING 417
SWIDTH 500 0
DWIDTH 8 0
BBX 8 16 0 -3
BITMAP
00
00
00
00
00
02
7A
84
84
84
84
84
78
00
00
00
ENDCHAR
STARTCHAR u01A7
ENCODING 423
SWIDTH 500 0
DWIDTH 8 0
BBX 8 16 0 -3
BITMAP
00
00
00
7C
82
02
02
1C
60
80
80
82
7C
00
00
00
ENDCHAR
STARTCHAR u01A8
ENCODING 424
SWIDTH 500 0
DWIDTH 8 0
BBX 8 16 0 -3
BITMAP
00
00
00
00
00
00
3C
42
02
3C
40
42
3C
00
00
00
ENDCHAR
STARTCHAR u01A9
ENCODING 425
SWIDTH 500 0
DWIDTH 8 0
BBX 8 16 0 -3
BITMAP
00
00
00
FE
20
10
08
04
08
10
20
40
FE
00
00
00
ENDCHAR
STARTCHAR u01AF
ENCODING 431
SWIDTH 500 0
DWIDTH 8 0
BBX 8 16 0 -3
BITMAP
00
02
02
84
84
84
84
84
84
84
84
48
30
00
00
00
ENDCHAR
STARTCHAR u01B0
ENCODING 432
SWIDTH 500 0
DWIDTH 8 0
BBX 8 16 0 -3
BITMAP
00
00
00
00
02
02
84
84
84
84
84
8C
74
00
00
00
ENDCHAR
STARTCHAR u01B1
ENCODING 433
SWIDTH 500 0
DWIDTH 8 0
BBX 8 16 0 -3
BITMAP
00
00
00
EE
28
44
82
82
82
82
82
44
38
00
00
00
ENDCHAR
STARTCHAR u01CD
ENCODING 461
SWIDTH 500 0
DWIDTH 8 0
BBX 8 16 0 -3
BITMAP
00
28
10
00
10
10
28
28
44
7C
44
82
82
00
00
00
ENDCHAR
STARTCHAR u01CE
ENCODING 462
SWIDTH 500 0
DWIDTH 8 0
BBX 8 16 0 -3
BITMAP
00
00
00
14
08
00
3C
02
02
3E
42
42
3E
00
00
00
ENDCHAR
STARTCHAR u01CF
ENCODING 463
SWIDTH 500 0
DWIDTH 8 0
BBX 8 16 0 -3
BITMAP
00
28
10
00
FE
10
10
10
10
10
10
10
FE
00
00
00
ENDCHAR
STARTCHAR u01D0
ENCODING 464
SWIDTH 500 0
DWIDTH 8 0
BBX 8 16 0 -3
BITMAP
00
00
00
14
08
00
78
08
08
08
08
08
7E
00
00
00
ENDCHAR
STARTCHAR u01D1
ENCODING 465
SWIDTH 500 0
DWIDTH 8 0
BBX 8 16 0 -3
BITMAP
00
28
10
00
38
44
82
82
82
82
82
44
38
00
00
00
ENDCHAR
STARTCHAR u01D2
ENCODING 466
SWIDTH 500 0
DWIDTH 8 0
BBX 8 16 0 -3
BITMAP
00
00
00
14
08
00
3C
42
42
42
42
42
3C
00
00
00
ENDCHAR
STARTCHAR u01D3
ENCODING 467
SWIDTH 500 0
DWIDTH 8 0
BBX 8 16 0 -3
BITMAP
00
28
10
00
82
82
82
82
82
82
82
44
38
00
00
00
ENDCHAR
STARTCHAR u01D4
ENCODING 468
SWIDTH 500 0
DWIDTH 8 0
BBX 8 16 0 -3
BITMAP
00
00
00
14
08
00
42
42
42
42
42
46
3A
00
00
00
ENDCHAR
STARTCHAR u01D5
ENCODING 469
SWIDTH 500 0
DWIDTH 8 0
BBX 8 16 0 -3
BITMAP
00
7C
00
44
00
82
82
82
82
82
82
44
38
00
00
00
ENDCHAR
STARTCHAR u01D6
ENCODING 470
SWIDTH 500 0
DWIDTH 8 0
BBX 8 16 0 -3
BITMAP
00
00
3C
00
24
00
42
42
42
42
42
46
3A
00
00
00
ENDCHAR
STARTCHAR u01D7
ENCODING 471
SWIDTH 500 0
DWIDTH 8 0
BBX 8 16 0 -3
BITMAP
08
10
00
44
00
82
82
82
82
82
82
44
38
00
00
00
ENDCHAR
STARTCHAR u01D8
ENCODING 472
SWIDTH 500 0
DWIDTH 8 0
BBX 8 16 0 -3
BITMAP
00
08
10
00
24
00
42
42
42
42
42
46
3A
00
00
00
ENDCHAR
STARTCHAR u01D9
ENCODING 473
SWIDTH 500 0
DWIDTH 8 0
BBX 8 16 0 -3
BITMAP
28
10
00
44
00
82
82
82
82
82
82
44
38
00
00
00
ENDCHAR
STARTCHAR u01DA
ENCODING 474
SWIDTH 500 0
DWIDTH 8 0
BBX 8 16 0 -3
BITMAP
00
14
08
00
24
00
42
42
42
42
42
46
3A
00
00
00
ENDCHAR
STARTCHAR u01DB
ENCODING 475
SWIDTH 500 0
DWIDTH 8 0
BBX 8 16 0 -3
BITMAP
20
10
00
44
00
82
82
82
82
82
82
44
38
00
00
00
ENDCHAR
STARTCHAR u01DC
ENCODING 476
SWIDTH 500 0
DWIDTH 8 0
BBX 8 16 0 -3
BITMAP
00
10
08
00
24
00
42
42
42
42
42
46
3A
00
00
00
ENDCHAR
STARTCHAR u01DD
ENCODING 477
SWIDTH 500 0
DWIDTH 8 0
BBX 8 16 0 -3
BITMAP
00
00
00
00
00
00
3C
42
02
7E
42
42
3C
00
00
00
ENDCHAR
STARTCHAR u01DE
ENCODING 478
SWIDTH 500 0
DWIDTH 8 0
BBX 8 16 0 -3
BITMAP
00
7C
00
44
00
10
28
28
44
7C
44
82
82
00
00
00
ENDCHAR
STARTCHAR u01DF
ENCODING 479
SWIDTH 500 0
DWIDTH 8 0
BBX 8 16 0 -3
BITMAP
00
00
3C
00
24
00
3C
02
02
3E
42
42
3E
00
00
00
ENDCHAR
STARTCHAR u01E0
ENCODING 480
SWIDTH 500 0
DWIDTH 8 0
BBX 8 16 0 -3
BITMAP
00
7C
00
10
00
10
28
28
44
7C
44
82
82
00
00
00
ENDCHAR
STARTCHAR u01E1
ENCODING 481
SWIDTH 500 0
DWIDTH 8 0
BBX 8 16 0 -3
BITMAP
00
00
3C
00
08
00
3C
02
02
3E
42
42
3E
00
00
00
ENDCHAR
STARTCHAR u01E2
ENCODING 482
SWIDTH 500 0
DWIDTH 8 0
BBX 8 16 0 -3
BITMAP
00
7C
00
1E
18
28
28
4E
48
78
88
88
8E
00
00
00
ENDCHAR
STARTCHAR u01E3
ENCODING 483
SWIDTH 500 0
DWIDTH 8 0
BBX 8 16 0 -3
BITMAP
00
00
00
38
00
00
6C
12
12
7E
90
92
6C
00
00
00
ENDCHAR
STARTCHAR u01E6
ENCODING 486
SWIDTH 500 0
DWIDTH 8 0
BBX 8 16 0 -3
BITMAP
00
28
10
00
3C
42
80
80
80
8E
82
42
3E
00
00
00
ENDCHAR
STARTCHAR u01E7
ENCODING 487
SWIDTH 500 0
DWIDTH 8 0
BBX 8 16 0 -3
BITMAP
00
00
00
14
08
00
3E
42
42
42
42
42
3E
02
02
3C
ENDCHAR
STARTCHAR u01E8
ENCODING 488
SWIDTH 500 0
DWIDTH 8 0
BBX 8 16 0 -3
BITMAP
00
28
10
00
82
84
88
B0
C0
A0
90
88
86
00
00
00
ENDCHAR
STARTCHAR u01E9
ENCODING 489
SWIDTH 500 0
DWIDTH 8 0
BBX 8 16 0 -3
BITMAP
00
14
08
40
40
40
42
44
58
60
50
48
46
00
00
00
ENDCHAR
STARTCHAR u01EA
ENCODING 490
SWIDTH 500 0
DWIDTH 8 0
BBX 8 16 0 -3
BITMAP
00
00
00
38
44
82
82
82
82
82
82
44
38
10
20
18
ENDCHAR
STARTCHAR u01EB
ENCODING 491
SWIDTH 500 0
DWIDTH 8 0
BBX 8 16 0 -3
BITMAP
00
00
00
00
00
00
3C
42
42
42
42
42
3C
08
10
0C
ENDCHAR
STARTCHAR u01EC
ENCODING 492
SWIDTH 500 0
DWIDTH 8 0
BBX 8 16 0 -3
BITMAP
00
7C
00
38
44
82
82
82
82
82
82
44
38
10
20
18
ENDCHAR
STARTCHAR u01ED
ENCODING 493
SWIDTH 500 0
DWIDTH 8 0
BBX 8 16 0 -3
BITMAP
00
00
00
3C
00
00
3C
42
42
42
42
42
3C
08
10
0C
ENDCHAR
STARTCHAR u01F0
ENCODING 496
SWIDTH 500 0
DWIDTH 8 0
BBX 8 16 0 -3
BITMAP
00
00
00
14
08
00
7C
04
04
04
04
04
04
04
04
78
ENDCHAR
STARTCHAR u01F4
ENCODING 500
SWIDTH 500 0
DWIDTH 8 0
BBX 8 16 0 -3
BITMAP
00
08
10
00
3C
42
80
80
80
8E
82
42
3E
00
00
00
ENDCHAR
STARTCHAR u01F5
ENCODING 501
SWIDTH 500 0
DWIDTH 8 0
BBX 8 16 0 -3
BITMAP
00
00
00
08
10
00
3E
42
42
42
42
42
3E
02
02
3C
ENDCHAR
STARTCHAR u01F8
ENCODING 504
SWIDTH 500 0
DWIDTH 8 0
BBX 8 16 0 -3
BITMAP
00
10
08
00
82
C2
A2
A2
92
8A
8A
86
82
00
00
00
ENDCHAR
STARTCHAR u01F9
ENCODING 505
SWIDTH 500 0
DWIDTH 8 0
BBX 8 16 0 -3
BITMAP
00
00
00
10
08
00
5C
62
42
42
42
42
42
00
00
00
ENDCHAR
STARTCHAR u01FA
ENCODING 506
SWIDTH 500 0
DWIDTH 8 0
BBX 8 16 0 -3
BITMAP
08
10
28
10
00
10
28
28
44
7C
44
82
82
00
00
00
ENDCHAR
STARTCHAR u01FB
ENCODING 507
SWIDTH 500 0
DWIDTH 8 0
BBX 8 16 0 -3
BITMAP
00
04
08
14
08
00
3C
02
02
3E
42
42
3E
00
00
00
ENDCHAR
STARTCHAR u01FC
ENCODING 508
SWIDTH 500 0
DWIDTH 8 0
BBX 8 16 0 -3
BITMAP
00
08
10
00
1E
28
28
48
4E
78
88
88
8E
00
00
00
ENDCHAR
STARTCHAR u01FD
ENCODING 509
SWIDTH 500 0
DWIDTH 8 0
BBX 8 16 0 -3
BITMAP
00
00
00
08
10
00
6C
12
12
7E
90
92
6C
00
00
00
ENDCHAR
STARTCHAR u01FE
ENCODING 510
SWIDTH 500 0
DWIDTH 8 0
BBX 8 16 0 -3
BITMAP
00
08
10
02
3A
44
8A
8A
92
A2
A2
44
B8
80
00
00
ENDCHAR
STARTCHAR u01FF
ENCODING 511
SWIDTH 500 0
DWIDTH 8 0
BBX 8 16 0 -3
BITMAP
00
00
00
08
10
02
3C
46
4A
4A
52
62
3C
40
00
00
ENDCHAR
STARTCHAR u0200
ENCODING 512
SWIDTH 500 0
DWIDTH 8 0
BBX 8 16 0 -3
BITMAP
00
50
28
00
10
10
28
28
44
7C
44
82
82
00
00
00
ENDCHAR
STARTCHAR u0201
ENCODING 513
SWIDTH 500 0
DWIDTH 8 0
BBX 8 16 0 -3
BITMAP
00
00
00
28
14
00
3C
02
02
3E
42
42
3E
00
00
00
ENDCHAR
STARTCHAR u0202
ENCODING 514
SWIDTH 500 0
DWIDTH 8 0
BBX 8 16 0 -3
BITMAP
00
38
44
00
10
10
28
28
44
7C
44
82
82
00
00
00
ENDCHAR
STARTCHAR u0203
ENCODING 515
SWIDTH 500 0
DWIDTH 8 0
BBX 8 16 0 -3
BITMAP
00
00
00
18
24
00
3C
02
02
3E
42
42
3E
00
00
00
ENDCHAR
STARTCHAR u0204
ENCODING 516
SWIDTH 500 0
DWIDTH 8 0
BBX 8 16 0 -3
BITMAP
00
50
28
00
FE
80
80
80
FC
80
80
80
FE
00
00
00
ENDCHAR
STARTCHAR u0205
ENCODING 517
SWIDTH 500 0
DWIDTH 8 0
BBX 8 16 0 -3
BITMAP
00
00
00
28
14
00
3C
42
42
7E
40
42
3C
00
00
00
ENDCHAR
STARTCHAR u0206
ENCODING 518
SWIDTH 500 0
DWIDTH 8 0
BBX 8 16 0 -3
BITMAP
00
38
44
00
FE
80
80
80
FC
80
80
80
FE
00
00
00
ENDCHAR
STARTCHAR u0207
ENCODING 519
SWIDTH 500 0
DWIDTH 8 0
BBX 8 16 0 -3
BITMAP
00
00
00
18
24
00
3C
42
42
7E
40
42
3C
00
00
00
ENDCHAR
STARTCHAR u0208
ENCODING 520
SWIDTH 500 0
DWIDTH 8 0
BBX 8 16 0 -3
BITMAP
00
50
28
00
FE
10
10
10
10
10
10
10
FE
00
00
00
ENDCHAR
STARTCHAR u0209
ENCODING 521
SWIDTH 500 0
DWIDTH 8 0
BBX 8 16 0 -3
BITMAP
00
00
00
28
14
00
78
08
08
08
08
08
7E
00
00
00
ENDCHAR
STARTCHAR u020A
ENCODING 522
SWIDTH 500 0
DWIDTH 8 0
BBX 8 16 0 -3
BITMAP
00
38
44
00
FE
10
10
10
10
10
10
10
FE
00
00
00
ENDCHAR
STARTCHAR u020B
ENCODING 523
SWIDTH 500 0
DWIDTH 8 0
BBX 8 16 0 -3
BITMAP
00
00
00
18
24
00
78
08
08
08
08
08
7E
00
00
00
ENDCHAR
STARTCHAR u020C
ENCODING 524
SWIDTH 500 0
DWIDTH 8 0
BBX 8 16 0 -3
BITMAP
00
50
28
00
38
44
82
82
82
82
82
44
38
00
00
00
ENDCHAR
STARTCHAR u020D
ENCODING 525
SWIDTH 500 0
DWIDTH 8 0
BBX 8 16 0 -3
BITMAP
00
00
00
28
14
00
3C
42
42
42
42
42
3C
00
00
00
ENDCHAR
STARTCHAR u020E
ENCODING 526
SWIDTH 500 0
DWIDTH 8 0
BBX 8 16 0 -3
BITMAP
00
38
44
00
38
44
82
82
82
82
82
44
38
00
00
00
ENDCHAR
STARTCHAR u020F
ENCODING 527
SWIDTH 500 0
DWIDTH 8 0
BBX 8 16 0 -3
BITMAP
00
00
00
18
24
00
3C
42
42
42
42
42
3C
00
00
00
ENDCHAR
STARTCHAR u0210
ENCODING 528
SWIDTH 500 0
DWIDTH 8 0
BBX 8 16 0 -3
BITMAP
00
50
28
00
FC
82
82
82
FC
88
84
84
82
00
00
00
ENDCHAR
STARTCHAR u0211
ENCODING 529
SWIDTH 500 0
DWIDTH 8 0
BBX 8 16 0 -3
BITMAP
00
00
00
28
14
00
5C
62
40
40
40
40
40
00
00
00
ENDCHAR
STARTCHAR u0212
ENCODING 530
SWIDTH 500 0
DWIDTH 8 0
BBX 8 16 0 -3
BITMAP
00
38
44
00
FC
82
82
82
FC
88
84
84
82
00
00
00
ENDCHAR
STARTCHAR u0213
ENCODING 531
SWIDTH 500 0
DWIDTH 8 0
BBX 8 16 0 -3
BITMAP
00
00
00
18
24
00
5C
62
40
40
40
40
40
00
00
00
ENDCHAR
STARTCHAR u0214
ENCODING 532
SWIDTH 500 0
DWIDTH 8 0
BBX 8 16 0 -3
BITMAP
00
50
28
00
82
82
82
82
82
82
82
44
38
00
00
00
ENDCHAR
STARTCHAR u0215
ENCODING 533
SWIDTH 500 0
DWIDTH 8 0
BBX 8 16 0 -3
BITMAP
00
00
00
28
14
00
42
42
42
42
42
46
3A
00
00
00
ENDCHAR
STARTCHAR u0216
ENCODING 534
SWIDTH 500 0
DWIDTH 8 0
BBX 8 16 0 -3
BITMAP
00
38
44
00
82
82
82
82
82
82
82
44
38
00
00
00
ENDCHAR
STARTCHAR u0217
ENCODING 535
SWIDTH 500 0
DWIDTH 8 0
BBX 8 16 0 -3
BITMAP
00
00
00
18
24
00
42
42
42
42
42
46
3A
00
00
00
ENDCHAR
STARTCHAR u0218
ENCODING 536
SWIDTH 500 0
DWIDTH 8 0
BBX 8 16 0 -3
BITMAP
00
00
00
7C
82
80
80
70
0C
02
02
82
7C
00
10
20
ENDCHAR
STARTCHAR u0219
ENCODING 537
SWIDTH 500 0
DWIDTH 8 0
BBX 8 16 0 -3
BITMAP
00
00
00
00
00
00
3C
42
40
3C
02
42
3C
00
08
10
ENDCHAR
STARTCHAR u021A
ENCODING 538
SWIDTH 500 0
DWIDTH 8 0
BBX 8 16 0 -3
BITMAP
00
00
00
FE
10
10
10
10
10
10
10
10
10
00
10
20
ENDCHAR
STARTCHAR u021B
ENCODING 539
SWIDTH 500 0
DWIDTH 8 0
BBX 8 16 0 -3
BITMAP
00
00
00
10
10
10
7E
10
10
10
10
10
0E
00
10
20
ENDCHAR
STARTCHAR u021E
ENCODING 542
SWIDTH 500 0
DWIDTH 8 0
BBX 8 16 0 -3
BITMAP
00
28
10
00
82
82
82
82
FE
82
82
82
82
00
00
00
ENDCHAR
STARTCHAR u021F
ENCODING 543
SWIDTH 500 0
DWIDTH 8 0
BBX 8 16 0 -3
BITMAP
00
14
08
00
40
40
40
5C
62
42
42
42
42
00
00
00
ENDCHAR
STARTCHAR u0220
ENCODING 544
SWIDTH 500 0
DWIDTH 8 0
BBX 8 16 0 -3
BITMAP
00
00
00
B8
C4
82
82
82
82
82
82
82
82
02
02
00
ENDCHAR
STARTCHAR u0226
ENCODING 550
SWIDTH 500 0
DWIDTH 8 0
BBX 8 16 0 -3
BITMAP
00
10
00
10
10
28
28
44
44
7C
82
82
82
00
00
00
ENDCHAR
STARTCHAR u0227
ENCODING 551
SWIDTH 500 0
DWIDTH 8 0
BBX 8 16 0 -3
BITMAP
00
00
00
08
00
00
3C
02
02
3E
42
42
3E
00
00
00
ENDCHAR
STARTCHAR u0228
ENCODING 552
SWIDTH 500 0
DWIDTH 8 0
BBX 8 16 0 -3
BITMAP
00
00
00
FE
80
80
80
FC
80
80
80
80
FE
10
08
30
ENDCHAR
STARTCHAR u0229
ENCODING 553
SWIDTH 500 0
DWIDTH 8 0
BBX 8 16 0 -3
BITMAP
00
00
00
00
00
00
3C
42
42
7E
40
42
3C
08
04
18
ENDCHAR
STARTCHAR u022A
ENCODING 554
SWIDTH 500 0
DWIDTH 8 0
BBX 8 16 0 -3
BITMAP
7C
00
44
00
38
44
82
82
82
82
82
44
38
00
00
00
ENDCHAR
STARTCHAR u022B
ENCODING 555
SWIDTH 500 0
DWIDTH 8 0
BBX 8 16 0 -3
BITMAP
00
00
3C
00
24
00
3C
42
42
42
42
42
3C
00
00
00
ENDCHAR
STARTCHAR u022C
ENCODING 556
SWIDTH 500 0
DWIDTH 8 0
BBX 8 16 0 -3
BITMAP
7C
00
34
48
00
38
44
82
82
82
82
44
38
00
00
00
ENDCHAR
STARTCHAR u022D
ENCODING 557
SWIDTH 500 0
DWIDTH 8 0
BBX 8 16 0 -3
BITMAP
00
3C
00
1A
24
00
3C
42
42
42
42
42
3C
00
00
00
ENDCHAR
STARTCHAR u022E
ENCODING 558
SWIDTH 500 0
DWIDTH 8 0
BBX 8 16 0 -3
BITMAP
00
10
00
38
44
82
82
82
82
82
82
44
38
00
00
00
ENDCHAR
STARTCHAR u022F
ENCODING 559
SWIDTH 500 0
DWIDTH 8 0
BBX 8 16 0 -3
BITMAP
00
00
00
08
00
00
3C
42
42
42
42
42
3C
00
00
00
ENDCHAR
STARTCHAR u0230
ENCODING 560
SWIDTH 500 0
DWIDTH 8 0
BBX 8 16 0 -3
BITMAP
7C
00
10
00
38
44
82
82
82
82
82
44
38
00
00
00
ENDCHAR
STARTCHAR u0231
ENCODING 561
SWIDTH 500 0
DWIDTH 8 0
BBX 8 16 0 -3
BITMAP
00
00
3C
00
08
00
3C
42
42
42
42
42
3C
00
00
00
ENDCHAR
STARTCHAR u0232
ENCODING 562
SWIDTH 500 0
DWIDTH 8 0
BBX 8 16 0 -3
BITMAP
00
7C
00
82
82
44
44
28
28
10
10
10
10
00
00
00
ENDCHAR
STARTCHAR u0233
ENCODING 563
SWIDTH 500 0
DWIDTH 8 0
BBX 8 16 0 -3
BITMAP
00
00
00
7C
00
00
82
82
44
44
28
28
10
10
20
C0
ENDCHAR
STARTCHAR u0237
ENCODING 567
SWIDTH 500 0
DWIDTH 8 0
BBX 8 16 0 -3
BITMAP
00
00
00
00
00
00
7C
04
04
04
04
04
04
04
04
78
ENDCHAR
STARTCHAR u023D
ENCODING 573
SWIDTH 500 0
DWIDTH 8 0
BBX 8 16 0 -3
BITMAP
00
00
00
40
40
40
40
F0
40
40
40
40
7E
00
00
00
ENDCHAR
STARTCHAR u0244
ENCODING 580
SWIDTH 500 0
DWIDTH 8 0
BBX 8 16 0 -3
BITMAP
00
00
00
44
44
44
44
FE
44
44
44
44
38
00
00
00
ENDCHAR
STARTCHAR u0245
ENCODING 581
SWIDTH 500 0
DWIDTH 8 0
BBX 8 16 0 -3
BITMAP
00
00
00
10
10
28
28
28
44
44
44
82
82
00
00
00
ENDCHAR
STARTCHAR u0248
ENCODING 584
SWIDTH 500 0
DWIDTH 8 0
BBX 8 16 0 -3
BITMAP
00
00
00
04
04
04
04
1E
04
84
84
48
30
00
00
00
ENDCHAR
STARTCHAR u0249
ENCODING 585
SWIDTH 500 0
DWIDTH 8 0
BBX 8 16 0 -3
BITMAP
00
00
00
04
00
00
7C
04
04
04
1E
04
04
04
04
78
ENDCHAR
STARTCHAR u0376
ENCODING 886
SWIDTH 500 0
DWIDTH 8 0
BBX 8 16 0 -3
BITMAP
00
00
00
82
86
8A
8A
92
92
A2
A2
C2
82
00
00
00
ENDCHAR
STARTCHAR u0377
ENCODING 887
SWIDTH 500 0
DWIDTH 8 0
BBX 8 16 0 -3
BITMAP
00
00
00
00
00
00
42
46
4A
52
62
42
42
00
00
00
ENDCHAR
STARTCHAR u037B
ENCODING 891
SWIDTH 500 0
DWIDTH 8 0
BBX 8 16 0 -3
BITMAP
00
00
00
00
00
00
3C
42
02
02
02
42
3C
00
00
00
ENDCHAR
STARTCHAR u037C
ENCODING 892
SWIDTH 500 0
DWIDTH 8 0
BBX 8 16 0 -3
BITMAP
00
00
00
00
00
00
3C
42
40
48
40
42
3C
00
00
00
ENDCHAR
STARTCHAR u037D
ENCODING 893
SWIDTH 500 0
DWIDTH 8 0
BBX 8 16 0 -3
BITMAP
00
00
00
00
00
00
3C
42
02
12
02
42
3C
00
00
00
ENDCHAR
STARTCHAR u037E
ENCODING 894
SWIDTH 500 0
DWIDTH 8 0
BBX 8 16 0 -3
BITMAP
00
00
00
00
00
00
18
18
00
00
00
18
18
08
10
00
ENDCHAR
STARTCHAR u037F
ENCODING 895
SWIDTH 500 0
DWIDTH 8 0
BBX 8 16 0 -3
BITMAP
00
00
00
02
02
02
02
02
02
82
82
44
38
00
00
00
ENDCHAR
STARTCHAR u0384
ENCODING 900
SWIDTH 500 0
DWIDTH 8 0
BBX 8 16 0 -3
BITMAP
00
08
10
00
00
00
00
00
00
00
00
00
00
00
00
00
ENDCHAR
STARTCHAR u0385
ENCODING 901
SWIDTH 500 0
DWIDTH 8 0
BBX 8 16 0 -3
BITMAP
00
08
10
00
24
00
00
00
00
00
00
00
00
00
00
00
ENDCHAR
STARTCHAR u0386
ENCODING 902
SWIDTH 500 0
DWIDTH 8 0
BBX 8 16 0 -3
BITMAP
00
20
40
00
10
10
28
28
44
7C
44
82
82
00
00
00
ENDCHAR
STARTCHAR u0387
ENCODING 903
SWIDTH 500 0
DWIDTH 8 0
BBX 8 16 0 -3
BITMAP
00
00
00
00
00
00
00
00
18
18
00
00
00
00
00
00
ENDCHAR
STARTCHAR u0388
ENCODING 904
SWIDTH 500 0
DWIDTH 8 0
BBX 8 16 0 -3
BITMAP
00
40
80
00
FE
80
80
80
FC
80
80
80
FE
00
00
00
ENDCHAR
STARTCHAR u0389
ENCODING 905
SWIDTH 500 0
DWIDTH 8 0
BBX 8 16 0 -3
BITMAP
00
40
80
00
82
82
82
82
FE
82
82
82
82
00
00
00
ENDCHAR
STARTCHAR u038A
ENCODING 906
SWIDTH 500 0
DWIDTH 8 0
BBX 8 16 0 -3
BITMAP
00
40
80
00
FE
10
10
10
10
10
10
10
FE
00
00
00
ENDCHAR
STARTCHAR u038C
ENCODING 908
SWIDTH 500 0
DWIDTH 8 0
BBX 8 16 0 -3
BITMAP
00
40
80
00
38
44
82
82
82
82
82
44
38
00
00
00
ENDCHAR
STARTCHAR u038E
ENCODING 910
SWIDTH 500 0
DWIDTH 8 0
BBX 8 16 0 -3
BITMAP
00
40
80
00
82
44
44
28
28
10
10
10
10
00
00
00
ENDCHAR
STARTCHAR u038F
ENCODING 911
SWIDTH 500 0
DWIDTH 8 0
BBX 8 16 0 -3
BITMAP
00
40
80
00
38
44
82
82
82
82
44
28
EE
00
00
00
ENDCHAR
STARTCHAR u0390
ENCODING 912
SWIDTH 500 0
DWIDTH 8 0
BBX 8 16 0 -3
BITMAP
00
08
10
00
28
00
30
50
10
10
10
10
0C
00
00
00
ENDCHAR
STARTCHAR u0391
ENCODING 913
SWIDTH 500 0
DWIDTH 8 0
BBX 8 16 0 -3
BITMAP
00
00
00
10
10
28
28
44
44
7C
82
82
82
00
00
00
ENDCHAR
STARTCHAR u0392
ENCODING 914
SWIDTH 500 0
DWIDTH 8 0
BBX 8 16 0 -3
BITMAP
00
00
00
FC
82
82
82
FC
82
82
82
82
FC
00
00
00
ENDCHAR
STARTCHAR u0393
ENCODING 915
SWIDTH 500 0
DWIDTH 8 0
BBX 8 16 0 -3
BITMAP
00
00
00
FE
80
80
80
80
80
80
80
80
80
00
00
00
ENDCHAR
STARTCHAR u0394
ENCODING 916
SWIDTH 500 0
DWIDTH 8 0
BBX 8 16 0 -3
BITMAP
00
00
00
10
10
28
28
44
44
44
82
82
FE
00
00
00
ENDCHAR
STARTCHAR u0395
ENCODING 917
SWIDTH 500 0
DWIDTH 8 0
BBX 8 16 0 -3
BITMAP
00
00
00
FE
80
80
80
FC
80
80
80
80
FE
00
00
00
ENDCHAR
STARTCHAR u0396
ENCODING 918
SWIDTH 500 0
DWIDTH 8 0
BBX 8 16 0 -3
BITMAP
00
00
00
FE
02
04
08
10
10
20
40
80
FE
00
00
00
ENDCHAR
STARTCHAR u0397
ENCODING 919
SWIDTH 500 0
DWIDTH 8 0
BBX 8 16 0 -3
BITMAP
00
00
00
82
82
82
82
FE
82
82
82
82
82
00
00
00
ENDCHAR
STARTCHAR u0398
ENCODING 920
SWIDTH 500 0
DWIDTH 8 0
BBX 8 16 0 -3
BITMAP
00
00
00
38
44
82
82
BA
82
82
82
44
38
00
00
00
ENDCHAR
STARTCHAR u0399
ENCODING 921
SWIDTH 500 0
DWIDTH 8 0
BBX 8 16 0 -3
BITMAP
00
00
00
FE
10
10
10
10
10
10
10
10
FE
00
00
00
ENDCHAR
STARTCHAR u039A
ENCODING 922
SWIDTH 500 0
DWIDTH 8 0
BBX 8 16 0 -3
BITMAP
00
00
00
82
84
88
B0
C0
A0
90
88
84
82
00
00
00
ENDCHAR
STARTCHAR u039B
ENCODING 923
SWIDTH 500 0
DWIDTH 8 0
BBX 8 16 0 -3
BITMAP
00
00
00
10
10
28
28
28
44
44
44
82
82
00
00
00
ENDCHAR
STARTCHAR u039C
ENCODING 924
SWIDTH 500 0
DWIDTH 8 0
BBX 8 16 0 -3
BITMAP
00
00
00
82
82
C6
C6
AA
AA
92
92
82
82
00
00
00
ENDCHAR
STARTCHAR u039D
ENCODING 925
SWIDTH 500 0
DWIDTH 8 0
BBX 8 16 0 -3
BITMAP
00
00
00
82
C2
C2
A2
92
92
8A
86
86
82
00
00
00
ENDCHAR
STARTCHAR u039E
ENCODING 926
SWIDTH 500 0
DWIDTH 8 0
BBX 8 16 0 -3
BITMAP
00
00
00
FE
00
00
00
7C
00
00
00
00
FE
00
00
00
ENDCHAR
STARTCHAR u039F
ENCODING 927
SWIDTH 500 0
DWIDTH 8 0
BBX 8 16 0 -3
BITMAP
00
00
00
38
44
82
82
82
82
82
82
44
38
00
00
00
ENDCHAR
STARTCHAR u03A0
ENCODING 928
SWIDTH 500 0
DWIDTH 8 0
BBX 8 16 0 -3
BITMAP
00
00
00
FE
82
82
82
82
82
82
82
82
82
00
00
00
ENDCHAR
STARTCHAR u03A1
ENCODING 929
SWIDTH 500 0
DWIDTH 8 0
BBX 8 16 0 -3
BITMAP
00
00
00
FC
82
82
82
82
FC
80
80
80
80
00
00
00
ENDCHAR
STARTCHAR u03A3
ENCODING 931
SWIDTH 500 0
DWIDTH 8 0
BBX 8 16 0 -3
BITMAP
00
00
00
FE
20
10
08
04
08
10
20
40
FE
00
00
00
ENDCHAR
STARTCHAR u03A4
ENCODING 932
SWIDTH 500 0
DWIDTH 8 0
BBX 8 16 0 -3
BITMAP
00
00
00
FE
10
10
10
10
10
10
10
10
10
00
00
00
ENDCHAR
STARTCHAR u03A5
ENCODING 933
SWIDTH 500 0
DWIDTH 8 0
BBX 8 16 0 -3
BITMAP
00
00
00
82
82
44
44
28
28
10
10
10
10
00
00
00
ENDCHAR
STARTCHAR u03A6
ENCODING 934
SWIDTH 500 0
DWIDTH 8 0
BBX 8 16 0 -3
BITMAP
00
00
00
10
7C
92
92
92
92
92
92
7C
10
00
00
00
ENDCHAR
STARTCHAR u03A7
ENCODING 935
SWIDTH 500 0
DWIDTH 8 0
BBX 8 16 0 -3
BITMAP
00
00
00
82
44
44
28
10
28
44
44
82
82
00
00
00
ENDCHAR
STARTCHAR u03A8
ENCODING 936
SWIDTH 500 0
DWIDTH 8 0
BBX 8 16 0 -3
BITMAP
00
00
00
92
92
92
92
92
54
38
10
10
10
00
00
00
ENDCHAR
STARTCHAR u03A9
ENCODING 937
SWIDTH 500 0
DWIDTH 8 0
BBX 8 16 0 -3
BITMAP
00
00
00
38
44
82
82
82
82
82
44
28
EE
00
00
00
ENDCHAR
STARTCHAR u03AA
ENCODING 938
SWIDTH 500 0
DWIDTH 8 0
BBX 8 16 0 -3
BITMAP
00
44
00
FE
10
10
10
10
10
10
10
10
FE
00
00
00
ENDCHAR
STARTCHAR u03AB
ENCODING 939
SWIDTH 500 0
DWIDTH 8 0
BBX 8 16 0 -3
BITMAP
00
44
00
82
82
44
44
28
28
10
10
10
10
00
00
00
ENDCHAR
STARTCHAR u03AC
ENCODING 940
SWIDTH 500 0
DWIDTH 8 0
BBX 8 16 0 -3
BITMAP
00
00
00
08
10
00
3A
46
42
42
42
46
3A
00
00
00
ENDCHAR
STARTCHAR u03AD
ENCODING 941
SWIDTH 500 0
DWIDTH 8 0
BBX 8 16 0 -3
BITMAP
00
00
00
08
10
00
3C
42
40
38
40
42
3C
00
00
00
ENDCHAR
STARTCHAR u03AE
ENCODING 942
SWIDTH 500 0
DWIDTH 8 0
BBX 8 16 0 -3
BITMAP
00
00
00
08
10
00
5C
62
42
42
42
42
42
02
02
02
ENDCHAR
STARTCHAR u03AF
ENCODING 943
SWIDTH 500 0
DWIDTH 8 0
BBX 8 16 0 -3
BITMAP
00
00
00
08
10
00
30
50
10
10
10
10
0C
00
00
00
ENDCHAR
STARTCHAR u03B0
ENCODING 944
SWIDTH 500 0
DWIDTH 8 0
BBX 8 16 0 -3
BITMAP
00
08
10
00
24
00
42
42
42
42
42
42
3C
00
00
00
ENDCHAR
STARTCHAR u03B1
ENCODING 945
SWIDTH 500 0
DWIDTH 8 0
BBX 8 16 0 -3
BITMAP
00
00
00
00
00
00
3A
46
42
42
42
46
3A
00
00
00
ENDCHAR
STARTCHAR u03B2
ENCODING 946
SWIDTH 500 0
DWIDTH 8 0
BBX 8 16 0 -3
BITMAP
00
00
00
38
44
44
44
58
44
42
42
62
5C
40
40
40
ENDCHAR
STARTCHAR u03B3
ENCODING 947
SWIDTH 500 0
DWIDTH 8 0
BBX 8 16 0 -3
BITMAP
00
00
00
00
00
00
82
42
44
24
28
28
10
10
20
20
ENDCHAR
STARTCHAR u03B4
ENCODING 948
SWIDTH 500 0
DWIDTH 8 0
BBX 8 16 0 -3
BITMAP
00
00
00
3E
40
20
10
28
44
42
42
42
3C
00
00
00
ENDCHAR
STARTCHAR u03B5
ENCODING 949
SWIDTH 500 0
DWIDTH 8 0
BBX 8 16 0 -3
BITMAP
00
00
00
00
00
00
3C
42
40
38
40
42
3C
00
00
00
ENDCHAR
STARTCHAR u03B6
ENCODING 950
SWIDTH 500 0
DWIDTH 8 0
BBX 8 16 0 -3
BITMAP
00
00
00
7E
04
08
10
20
40
40
40
20
1C
02
02
04
ENDCHAR
STARTCHAR u03B7
ENCODING 951
SWIDTH 500 0
DWIDTH 8 0
BBX 8 16 0 -3
BITMAP
00
00
00
00
00
00
5C
62
42
42
42
42
42
02
02
02
ENDCHAR
STARTCHAR u03B8
ENCODING 952
SWIDTH 500 0
DWIDTH 8 0
BBX 8 16 0 -3
BITMAP
00
00
00
18
24
42
42
7E
42
42
42
24
18
00
00
00
ENDCHAR
STARTCHAR u03B9
ENCODING 953
SWIDTH 500 0
DWIDTH 8 0
BBX 8 16 0 -3
BITMAP
00
00
00
00
00
00
30
50
10
10
10
10
0C
00
00
00
ENDCHAR
STARTCHAR u03BA
ENCODING 954
SWIDTH 500 0
DWIDTH 8 0
BBX 8 16 0 -3
BITMAP
00
00
00
00
00
00
42
44
58
60
50
48
46
00
00
00
ENDCHAR
STARTCHAR u03BB
ENCODING 955
SWIDTH 500 0
DWIDTH 8 0
BBX 8 16 0 -3
BITMAP
00
00
00
60
10
10
08
08
14
14
22
22
42
00
00
00
ENDCHAR
STARTCHAR u03BC
ENCODING 956
SWIDTH 500 0
DWIDTH 8 0
BBX 8 16 0 -3
BITMAP
00
00
00
00
00
00
42
42
42
42
42
66
5A
40
40
40
ENDCHAR
STARTCHAR u03BD
ENCODING 957
SWIDTH 500 0
DWIDTH 8 0
BBX 8 16 0 -3
BITMAP
00
00
00
00
00
00
82
82
44
44
28
28
10
00
00
00
ENDCHAR
STARTCHAR u03BE
ENCODING 958
SWIDTH 500 0
DWIDTH 8 0
BBX 8 16 0 -3
BITMAP
00
00
00
3E
40
40
20
1C
20
40
40
20
1C
02
02
04
ENDCHAR
STARTCHAR u03BF
ENCODING 959
SWIDTH 500 0
DWIDTH 8 0
BBX 8 16 0 -3
BITMAP
00
00
00
00
00
00
3C
42
42
42
42
42
3C
00
00
00
ENDCHAR
STARTCHAR u03C0
ENCODING 960
SWIDTH 500 0
DWIDTH 8 0
BBX 8 16 0 -3
BITMAP
00
00
00
00
00
00
7E
24
24
24
24
24
46
00
00
00
ENDCHAR
STARTCHAR u03C1
ENCODING 961
SWIDTH 500 0
DWIDTH 8 0
BBX 8 16 0 -3
BITMAP
00
00
00
00
00
00
3C
42
42
42
42
42
7C
40
40
40
ENDCHAR
STARTCHAR u03C2
ENCODING 962
SWIDTH 500 0
DWIDTH 8 0
BBX 8 16 0 -3
BITMAP
00
00
00
00
00
00
3C
42
40
40
40
20
1C
02
02
0C
ENDCHAR
STARTCHAR u03C3
ENCODING 963
SWIDTH 500 0
DWIDTH 8 0
BBX 8 16 0 -3
BITMAP
00
00
00
00
00
00
7E
88
84
84
84
84
78
00
00
00
ENDCHAR
STARTCHAR u03C4
ENCODING 964
SWIDTH 500 0
DWIDTH 8 0
BBX 8 16 0 -3
BITMAP
00
00
00
00
00
00
7E
10
10
10
10
10
0C
00
00
00
ENDCHAR
STARTCHAR u03C5
ENCODING 965
SWIDTH 500 0
DWIDTH 8 0
BBX 8 16 0 -3
BITMAP
00
00
00
00
00
00
42
42
42
42
42
42
3C
00
00
00
ENDCHAR
STARTCHAR u03C6
ENCODING 966
SWIDTH 500 0
DWIDTH 8 0
BBX 8 16 0 -3
BITMAP
00
00
00
00
00
00
4C
92
92
92
92
92
7C
10
10
10
ENDCHAR
STARTCHAR u03C7
ENCODING 967
SWIDTH 500 0
DWIDTH 8 0
BBX 8 16 0 -3
BITMAP
00
00
00
00
00
00
82
44
24
28
10
10
28
48
44
82
ENDCHAR
STARTCHAR u03C8
ENCODING 968
SWIDTH 500 0
DWIDTH 8 0
BBX 8 16 0 -3
BITMAP
00
00
00
00
00
00
92
92
92
92
92
92
7C
10
10
10
ENDCHAR
STARTCHAR u03C9
ENCODING 969
SWIDTH 500 0
DWIDTH 8 0
BBX 8 16 0 -3
BITMAP
00
00
00
00
00
00
44
82
92
92
92
92
6C
00
00
00
ENDCHAR
STARTCHAR u03CA
ENCODING 970
SWIDTH 500 0
DWIDTH 8 0
BBX 8 16 0 -3
BITMAP
00
00
00
28
00
00
30
50
10
10
10
10
0C
00
00
00
ENDCHAR
STARTCHAR u03CB
ENCODING 971
SWIDTH 500 0
DWIDTH 8 0
BBX 8 16 0 -3
BITMAP
00
00
00
24
00
00
42
42
42
42
42
42
3C
00
00
00
ENDCHAR
STARTCHAR u03CC
ENCODING 972
SWIDTH 500 0
DWIDTH 8 0
BBX 8 16 0 -3
BITMAP
00
00
00
08
10
00
3C
42
42
42
42
42
3C
00
00
00
ENDCHAR
STARTCHAR u03CD
ENCODING 973
SWIDTH 500 0
DWIDTH 8 0
BBX 8 16 0 -3
BITMAP
00
00
00
08
10
00
42
42
42
42
42
42
3C
00
00
00
ENDCHAR
STARTCHAR u03CE
ENCODING 974
SWIDTH 500 0
DWIDTH 8 0
BBX 8 16 0 -3
BITMAP
00
00
00
08
10
00
44
82
92
92
92
92
6C
00
00
00
ENDCHAR
STARTCHAR u03D2
ENCODING 978
SWIDTH 500 0
DWIDTH 8 0
BBX 8 16 0 -3
BITMAP
00
00
00
C6
28
28
28
28
10
10
10
10
10
00
00
00
ENDCHAR
STARTCHAR u03D3
ENCODING 979
SWIDTH 500 0
DWIDTH 8 0
BBX 8 16 0 -3
BITMAP
00
40
80
00
C6
28
28
28
10
10
10
10
10
00
00
00
ENDCHAR
STARTCHAR u03D4
ENCODING 980
SWIDTH 500 0
DWIDTH 8 0
BBX 8 16 0 -3
BITMAP
00
44
00
C6
28
28
28
28
10
10
10
10
10
00
00
00
ENDCHAR
STARTCHAR u03D5
ENCODING 981
SWIDTH 500 0
DWIDTH 8 0
BBX 8 16 0 -3
BITMAP
00
00
00
10
10
10
7C
92
92
92
92
92
7C
10
10
10
ENDCHAR
STARTCHAR u03D6
ENCODING 982
SWIDTH 500 0
DWIDTH 8 0
BBX 8 16 0 -3
BITMAP
00
00
00
00
00
00
FE
44
92
92
92
92
6C
00
00
00
ENDCHAR
STARTCHAR u03DA
ENCODING 986
SWIDTH 500 0
DWIDTH 8 0
BBX 8 16 0 -3
BITMAP
00
00
00
3C
42
82
80
80
80
80
40
20
1C
02
04
18
ENDCHAR
STARTCHAR u03DB
ENCODING 987
SWIDTH 500 0
DWIDTH 8 0
BBX 8 16 0 -3
BITMAP
00
00
00
00
00
00
3C
42
40
40
40
20
1C
02
02
0C
ENDCHAR
STARTCHAR u03F2
ENCODING 1010
SWIDTH 500 0
DWIDTH 8 0
BBX 8 16 0 -3
BITMAP
00
00
00
00
00
00
3C
42
40
40
40
42
3C
00
00
00
ENDCHAR
STARTCHAR u03F3
ENCODING 1011
SWIDTH 500 0
DWIDTH 8 0
BBX 8 16 0 -3
BITMAP
00
00
00
04
00
00
7C
04
04
04
04
04
04
04
04
78
ENDCHAR
STARTCHAR u03F4
ENCODING 1012
SWIDTH 500 0
DWIDTH 8 0
BBX 8 16 0 -3
BITMAP
00
00
00
38
44
82
82
FE
82
82
82
44
38
00
00
00
ENDCHAR
STARTCHAR u03F5
ENCODING 1013
SWIDTH 500 0
DWIDTH 8 0
BBX 8 16 0 -3
BITMAP
00
00
00
00
00
00
3E
40
40
7E
40
40
3E
00
00
00
ENDCHAR
STARTCHAR u03F6
ENCODING 1014
SWIDTH 500 0
DWIDTH 8 0
BBX 8 16 0 -3
BITMAP
00
00
00
00
00
00
7C
02
02
7E
02
02
7C
00
00
00
ENDCHAR
STARTCHAR u03F7
ENCODING 1015
SWIDTH 500 0
DWIDTH 8 0
BBX 8 16 0 -3
BITMAP
00
00
00
80
80
FC
82
82
82
82
FC
80
80
00
00
00
ENDCHAR
STARTCHAR u03F8
ENCODING 1016
SWIDTH 500 0
DWIDTH 8 0
BBX 8 16 0 -3
BITMAP
00
00
00
40
40
40
7C
42
42
42
42
42
7C
40
40
40
ENDCHAR
STARTCHAR u03F9
ENCODING 1017
SWIDTH 500 0
DWIDTH 8 0
BBX 8 16 0 -3
BITMAP
00
00
00
3C
42
80
80
80
80
80
80
42
3C
00
00
00
ENDCHAR
STARTCHAR u03FA
ENCODING 1018
SWIDTH 500 0
DWIDTH 8 0
BBX 8 16 0 -3
BITMAP
00
00
00
82
82
C6
C6
AA
AA
92
92
82
82
00
00
00
ENDCHAR
STARTCHAR u03FB
ENCODING 1019
SWIDTH 500 0
DWIDTH 8 0
BBX 8 16 0 -3
BITMAP
00
00
00
00
00
00
82
C6
C6
AA
AA
92
92
80
80
00
ENDCHAR
STARTCHAR u03FD
ENCODING 1021
SWIDTH 500 0
DWIDTH 8 0
BBX 8 16 0 -3
BITMAP
00
00
00
78
84
02
02
02
02
02
02
84
78
00
00
00
ENDCHAR
STARTCHAR u03FE
ENCODING 1022
SWIDTH 500 0
DWIDTH 8 0
BBX 8 16 0 -3
BITMAP
00
00
00
3C
42
80
80
90
80
80
80
42
3C
00
00
00
ENDCHAR
STARTCHAR u03FF
ENCODING 1023
SWIDTH 500 0
DWIDTH 8 0
BBX 8 16 0 -3
BITMAP
00
00
00
78
84
02
02
12
02
02
02
84
78
00
00
00
ENDCHAR
STARTCHAR u0400
ENCODING 1024
SWIDTH 500 0
DWIDTH 8 0
BBX 8 16 0 -3
BITMAP
00
20
10
00
FE
80
80
80
FC
80
80
80
FE
00
00
00
ENDCHAR
STARTCHAR u0401
ENCODING 1025
SWIDTH 500 0
DWIDTH 8 0
BBX 8 16 0 -3
BITMAP
00
44
00
FE
80
80
80
FC
80
80
80
80
FE
00
00
00
ENDCHAR
STARTCHAR u0403
ENCODING 1027
SWIDTH 500 0
DWIDTH 8 0
BBX 8 16 0 -3
BITMAP
00
08
10
00
FE
80
80
80
80
80
80
80
80
00
00
00
ENDCHAR
STARTCHAR u0404
ENCODING 1028
SWIDTH 500 0
DWIDTH 8 0
BBX 8 16 0 -3
BITMAP
00
00
00
3C
42
80
80
F8
80
80
80
42
3C
00
00
00
ENDCHAR
STARTCHAR u0405
ENCODING 1029
SWIDTH 500 0
DWIDTH 8 0
BBX 8 16 0 -3
BITMAP
00
00
00
7C
82
80
80
70
0C
02
02
82
7C
00
00
00
ENDCHAR
STARTCHAR u0406
ENCODING 1030
SWIDTH 500 0
DWIDTH 8 0
BBX 8 16 0 -3
BITMAP
00
00
00
FE
10
10
10
10
10
10
10
10
FE
00
00
00
ENDCHAR
STARTCHAR u0407
ENCODING 1031
SWIDTH 500 0
DWIDTH 8 0
BBX 8 16 0 -3
BITMAP
00
44
00
FE
10
10
10
10
10
10
10
10
FE
00
00
00
ENDCHAR
STARTCHAR u0408
ENCODING 1032
SWIDTH 500 0
DWIDTH 8 0
BBX 8 16 0 -3
BITMAP
00
00
00
02
02
02
02
02
02
82
82
44
38
00
00
00
ENDCHAR
STARTCHAR u040C
ENCODING 1036
SWIDTH 500 0
DWIDTH 8 0
BBX 8 16 0 -3
BITMAP
00
08
10
00
82
84
88
B0
C0
A0
90
88
86
00
00
00
ENDCHAR
STARTCHAR u040D
ENCODING 1037
SWIDTH 500 0
DWIDTH 8 0
BBX 8 16 0 -3
BITMAP
00
10
08
00
82
86
8A
8A
92
A2
A2
C2
82
00
00
00
ENDCHAR
STARTCHAR u040E
ENCODING 1038
SWIDTH 500 0
DWIDTH 8 0
BBX 8 16 0 -3
BITMAP
00
44
38
00
82
44
44
28
28
10
10
20
C0
00
00
00
ENDCHAR
STARTCHAR u040F
ENCODING 1039
SWIDTH 500 0
DWIDTH 8 0
BBX 8 16 0 -3
BITMAP
00
00
00
82
82
82
82
82
82
82
82
82
FE
10
10
00
ENDCHAR
STARTCHAR u0410
ENCODING 1040
SWIDTH 500 0
DWIDTH 8 0
BBX 8 16 0 -3
BITMAP
00
00
00
10
10
28
28
44
44
7C
82
82
82
00
00
00
ENDCHAR
STARTCHAR u0411
ENCODING 1041
SWIDTH 500 0
DWIDTH 8 0
BBX 8 16 0 -3
BITMAP
00
00
00
FC
80
80
80
FC
82
82
82
82
FC
00
00
00
ENDCHAR
STARTCHAR u0412
ENCODING 1042
SWIDTH 500 0
DWIDTH 8 0
BBX 8 16 0 -3
BITMAP
00
00
00
FC
82
82
82
FC
82
82
82
82
FC
00
00
00
ENDCHAR
STARTCHAR u0413
ENCODING 1043
SWIDTH 500 0
DWIDTH 8 0
BBX 8 16 0 -3
BITMAP
00
00
00
FE
80
80
80
80
80
80
80
80
80
00
00
00
ENDCHAR
STARTCHAR u0414
ENCODING 1044
SWIDTH 500 0
DWIDTH 8 0
BBX 8 16 0 -3
BITMAP
00
00
00
3E
22
22
22
22
42
42
42
82
FE
82
82
00
ENDCHAR
STARTCHAR u0415
ENCODING 1045
SWIDTH 500 0
DWIDTH 8 0
BBX 8 16 0 -3
BITMAP
00
00
00
FE
80
80
80
FC
80
80
80
80
FE
00
00
00
ENDCHAR
STARTCHAR u0416
ENCODING 1046
SWIDTH 500 0
DWIDTH 8 0
BBX 8 16 0 -3
BITMAP
00
00
00
92
92
54
54
38
54
54
92
92
92
00
00
00
ENDCHAR
STARTCHAR u0417
ENCODING 1047
SWIDTH 500 0
DWIDTH 8 0
BBX 8 16 0 -3
BITMAP
00
00
00
7C
82
02
02
3C
02
02
02
82
7C
00
00
00
ENDCHAR
STARTCHAR u0418
ENCODING 1048
SWIDTH 500 0
DWIDTH 8 0
BBX 8 16 0 -3
BITMAP
00
00
00
82
86
8A
8A
92
92
A2
A2
C2
82
00
00
00
ENDCHAR
STARTCHAR u0419
ENCODING 1049
SWIDTH 500 0
DWIDTH 8 0
BBX 8 16 0 -3
BITMAP
00
28
10
00
82
86
8A
8A
92
A2
A2
C2
82
00
00
00
ENDCHAR
STARTCHAR u041A
ENCODING 1050
SWIDTH 500 0
DWIDTH 8 0
BBX 8 16 0 -3
BITMAP
00
00
00
82
84
88
B0
C0
A0
90
88
84
82
00
00
00
ENDCHAR
STARTCHAR u041B
ENCODING 1051
SWIDTH 500 0
DWIDTH 8 0
BBX 8 16 0 -3
BITMAP
00
00
00
3E
22
22
22
22
22
22
42
42
82
00
00
00
ENDCHAR
STARTCHAR u041C
ENCODING 1052
SWIDTH 500 0
DWIDTH 8 0
BBX 8 16 0 -3
BITMAP
00
00
00
82
82
C6
C6
AA
AA
92
92
82
82
00
00
00
ENDCHAR
STARTCHAR u041D
ENCODING 1053
SWIDTH 500 0
DWIDTH 8 0
BBX 8 16 0 -3
BITMAP
00
00
00
82
82
82
82
FE
82
82
82
82
82
00
00
00
ENDCHAR
STARTCHAR u041E
ENCODING 1054
SWIDTH 500 0
DWIDTH 8 0
BBX 8 16 0 -3
BITMAP
00
00
00
38
44
82
82
82
82
82
82
44
38
00
00
00
ENDCHAR
STARTCHAR u041F
ENCODING 1055
SWIDTH 500 0
DWIDTH 8 0
BBX 8 16 0 -3
BITMAP
00
00
00
FE
82
82
82
82
82
82
82
82
82
00
00
00
ENDCHAR
STARTCHAR u0420
ENCODING 1056
SWIDTH 500 0
DWIDTH 8 0
BBX 8 16 0 -3
BITMAP
00
00
00
FC
82
82
82
82
FC
80
80
80
80
00
00
00
ENDCHAR
STARTCHAR u0421
ENCODING 1057
SWIDTH 500 0
DWIDTH 8 0
BBX 8 16 0 -3
BITMAP
00
00
00
3C
42
80
80
80
80
80
80
42
3C
00
00
00
ENDCHAR
STARTCHAR u0422
ENCODING 1058
SWIDTH 500 0
DWIDTH 8 0
BBX 8 16 0 -3
BITMAP
00
00
00
FE
10
10
10
10
10
10
10
10
10
00
00
00
ENDCHAR
STARTCHAR u0423
ENCODING 1059
SWIDTH 500 0
DWIDTH 8 0
BBX 8 16 0 -3
BITMAP
00
00
00
82
82
44
44
28
28
10
10
20
C0
00
00
00
ENDCHAR
STARTCHAR u0424
ENCODING 1060
SWIDTH 500 0
DWIDTH 8 0
BBX 8 16 0 -3
BITMAP
00
00
00
10
7C
92
92
92
92
92
92
7C
10
00
00
00
ENDCHAR
STARTCHAR u0425
ENCODING 1061
SWIDTH 500 0
DWIDTH 8 0
BBX 8 16 0 -3
BITMAP
00
00
00
82
44
44
28
10
28
44
44
82
82
00
00
00
ENDCHAR
STARTCHAR u0426
ENCODING 1062
SWIDTH 500 0
DWIDTH 8 0
BBX 8 16 0 -3
BITMAP
00
00
00
84
84
84
84
84
84
84
84
84
FE
02
02
00
ENDCHAR
STARTCHAR u0427
ENCODING 1063
SWIDTH 500 0
DWIDTH 8 0
BBX 8 16 0 -3
BITMAP
00
00
00
82
82
82
82
46
3A
02
02
02
02
00
00
00
ENDCHAR
STARTCHAR u0428
ENCODING 1064
SWIDTH 500 0
DWIDTH 8 0
BBX 8 16 0 -3
BITMAP
00
00
00
92
92
92
92
92
92
92
92
92
FE
00
00
00
ENDCHAR
STARTCHAR u0429
ENCODING 1065
SWIDTH 500 0
DWIDTH 8 0
BBX 8 16 0 -3
BITMAP
00
00
00
92
92
92
92
92
92
92
92
92
FE
02
02
00
ENDCHAR
STARTCHAR u042A
ENCODING 1066
SWIDTH 500 0
DWIDTH 8 0
BBX 8 16 0 -3
BITMAP
00
00
00
E0
20
20
20
3C
22
22
22
22
3C
00
00
00
ENDCHAR
STARTCHAR u042B
ENCODING 1067
SWIDTH 500 0
DWIDTH 8 0
BBX 8 16 0 -3
BITMAP
00
00
00
82
82
82
82
F2
8A
8A
8A
8A
F2
00
00
00
ENDCHAR
STARTCHAR u042C
ENCODING 1068
SWIDTH 500 0
DWIDTH 8 0
BBX 8 16 0 -3
BITMAP
00
00
00
80
80
80
80
FC
82
82
82
82
FC
00
00
00
ENDCHAR
STARTCHAR u042D
ENCODING 1069
SWIDTH 500 0
DWIDTH 8 0
BBX 8 16 0 -3
BITMAP
00
00
00
78
84
02
02
3E
02
02
02
84
78
00
00
00
ENDCHAR
STARTCHAR u042E
ENCODING 1070
SWIDTH 500 0
DWIDTH 8 0
BBX 8 16 0 -3
BITMAP
00
00
00
9C
A2
A2
A2
E2
A2
A2
A2
A2
9C
00
00
00
ENDCHAR
STARTCHAR u042F
ENCODING 1071
SWIDTH 500 0
DWIDTH 8 0
BBX 8 16 0 -3
BITMAP
00
00
00
7E
82
82
82
82
7E
22
42
42
82
00
00
00
ENDCHAR
STARTCHAR u0430
ENCODING 1072
SWIDTH 500 0
DWIDTH 8 0
BBX 8 16 0 -3
BITMAP
00
00
00
00
00
00
3C
02
02
3E
42
42
3E
00
00
00
ENDCHAR
STARTCHAR u0431
ENCODING 1073
SWIDTH 500 0
DWIDTH 8 0
BBX 8 16 0 -3
BITMAP
00
00
00
02
3C
40
40
7C
42
42
42
42
3C
00
00
00
ENDCHAR
STARTCHAR u0432
ENCODING 1074
SWIDTH 500 0
DWIDTH 8 0
BBX 8 16 0 -3
BITMAP
00
00
00
00
00
00
7C
42
42
7C
42
42
7C
00
00
00
ENDCHAR
STARTCHAR u0433
ENCODING 1075
SWIDTH 500 0
DWIDTH 8 0
BBX 8 16 0 -3
BITMAP
00
00
00
00
00
00
7E
40
40
40
40
40
40
00
00
00
ENDCHAR
STARTCHAR u0434
ENCODING 1076
SWIDTH 500 0
DWIDTH 8 0
BBX 8 16 0 -3
BITMAP
00
00
00
00
00
00
3E
22
22
22
42
42
FE
82
82
00
ENDCHAR
STARTCHAR u0435
ENCODING 1077
SWIDTH 500 0
DWIDTH 8 0
BBX 8 16 0 -3
BITMAP
00
00
00
00
00
00
3C
42
42
7E
40
42
3C
00
00
00
ENDCHAR
STARTCHAR u0436
ENCODING 1078
SWIDTH 500 0
DWIDTH 8 0
BBX 8 16 0 -3
BITMAP
00
00
00
00
00
00
92
54
54
38
54
92
92
00
00
00
ENDCHAR
STARTCHAR u0437
ENCODING 1079
SWIDTH 500 0
DWIDTH 8 0
BBX 8 16 0 -3
BITMAP
00
00
00
00
00
00
3C
42
02
1C
02
42
3C
00
00
00
ENDCHAR
STARTCHAR u0438
ENCODING 1080
SWIDTH 500 0
DWIDTH 8 0
BBX 8 16 0 -3
BITMAP
00
00
00
00
00
00
42
46
4A
52
62
42
42
00
00
00
ENDCHAR
STARTCHAR u0439
ENCODING 1081
SWIDTH 500 0
DWIDTH 8 0
BBX 8 16 0 -3
BITMAP
00
00
00
24
18
00
42
46
4A
52
62
42
42
00
00
00
ENDCHAR
STARTCHAR u043A
ENCODING 1082
SWIDTH 500 0
DWIDTH 8 0
BBX 8 16 0 -3
BITMAP
00
00
00
00
00
00
42
44
58
60
50
48
46
00
00
00
ENDCHAR
STARTCHAR u043B
ENCODING 1083
SWIDTH 500 0
DWIDTH 8 0
BBX 8 16 0 -3
BITMAP
00
00
00
00
00
00
3E
22
22
22
22
22
42
00
00
00
ENDCHAR
STARTCHAR u043C
ENCODING 1084
SWIDTH 500 0
DWIDTH 8 0
BBX 8 16 0 -3
BITMAP
00
00
00
00
00
00
82
C6
C6
AA
AA
92
92
00
00
00
ENDCHAR
STARTCHAR u043D
ENCODING 1085
SWIDTH 500 0
DWIDTH 8 0
BBX 8 16 0 -3
BITMAP
00
00
00
00
00
00
42
42
42
7E
42
42
42
00
00
00
ENDCHAR
STARTCHAR u043E
ENCODING 1086
SWIDTH 500 0
DWIDTH 8 0
BBX 8 16 0 -3
BITMAP
00
00
00
00
00
00
3C
42
42
42
42
42
3C
00
00
00
ENDCHAR
STARTCHAR u043F
ENCODING 1087
SWIDTH 500 0
DWIDTH 8 0
BBX 8 16 0 -3
BITMAP
00
00
00
00
00
00
7E
42
42
42
42
42
42
00
00
00
ENDCHAR
STARTCHAR u0440
ENCODING 1088
SWIDTH 500 0
DWIDTH 8 0
BBX 8 16 0 -3
BITMAP
00
00
00
00
00
00
7C
42
42
42
42
42
7C
40
40
40
ENDCHAR
STARTCHAR u0441
ENCODING 1089
SWIDTH 500 0
DWIDTH 8 0
BBX 8 16 0 -3
BITMAP
00
00
00
00
00
00
3C
42
40
40
40
42
3C
00
00
00
ENDCHAR
STARTCHAR u0442
ENCODING 1090
SWIDTH 500 0
DWIDTH 8 0
BBX 8 16 0 -3
BITMAP
00
00
00
00
00
00
FE
10
10
10
10
10
10
00
00
00
ENDCHAR
STARTCHAR u0443
ENCODING 1091
SWIDTH 500 0
DWIDTH 8 0
BBX 8 16 0 -3
BITMAP
00
00
00
00
00
00
82
82
44
44
28
28
10
10
20
C0
ENDCHAR
STARTCHAR u0444
ENCODING 1092
SWIDTH 500 0
DWIDTH 8 0
BBX 8 16 0 -3
BITMAP
00
00
00
10
10
10
7C
92
92
92
92
92
7C
10
10
10
ENDCHAR
STARTCHAR u0445
ENCODING 1093
SWIDTH 500 0
DWIDTH 8 0
BBX 8 16 0 -3
BITMAP
00
00
00
00
00
00
82
44
28
10
28
44
82
00
00
00
ENDCHAR
STARTCHAR u0446
ENCODING 1094
SWIDTH 500 0
DWIDTH 8 0
BBX 8 16 0 -3
BITMAP
00
00
00
00
00
00
84
84
84
84
84
84
FE
02
02
00
ENDCHAR
STARTCHAR u0447
ENCODING 1095
SWIDTH 500 0
DWIDTH 8 0
BBX 8 16 0 -3
BITMAP
00
00
00
00
00
00
42
42
42
46
3A
02
02
00
00
00
ENDCHAR
STARTCHAR u0448
ENCODING 1096
SWIDTH 500 0
DWIDTH 8 0
BBX 8 16 0 -3
BITMAP
00
00
00
00
00
00
92
92
92
92
92
92
FE
00
00
00
ENDCHAR
STARTCHAR u0449
ENCODING 1097
SWIDTH 500 0
DWIDTH 8 0
BBX 8 16 0 -3
BITMAP
00
00
00
00
00
00
92
92
92
92
92
92
FE
02
02
00
ENDCHAR
STARTCHAR u044A
ENCODING 1098
SWIDTH 500 0
DWIDTH 8 0
BBX 8 16 0 -3
BITMAP
00
00
00
00
00
00
E0
20
20
3C
22
22
3C
00
00
00
ENDCHAR
STARTCHAR u044B
ENCODING 1099
SWIDTH 500 0
DWIDTH 8 0
BBX 8 16 0 -3
BITMAP
00
00
00
00
00
00
82
82
82
F2
8A
8A
F2
00
00
00
ENDCHAR
STARTCHAR u044C
ENCODING 1100
SWIDTH 500 0
DWIDTH 8 0
BBX 8 16 0 -3
BITMAP
00
00
00
00
00
00
40
40
40
7C
42
42
7C
00
00
00
ENDCHAR
STARTCHAR u044D
ENCODING 1101
SWIDTH 500 0
DWIDTH 8 0
BBX 8 16 0 -3
BITMAP
00
00
00
00
00
00
3C
42
02
1E
02
42
3C
00
00
00
ENDCHAR
STARTCHAR u044E
ENCODING 1102
SWIDTH 500 0
DWIDTH 8 0
BBX 8 16 0 -3
BITMAP
00
00
00
00
00
00
9C
A2
A2
E2
A2
A2
9C
00
00
00
ENDCHAR
STARTCHAR u044F
ENCODING 1103
SWIDTH 500 0
DWIDTH 8 0
BBX 8 16 0 -3
BITMAP
00
00
00
00
00
00
3E
42
42
3E
12
22
42
00
00
00
ENDCHAR
STARTCHAR u0450
ENCODING 1104
SWIDTH 500 0
DWIDTH 8 0
BBX 8 16 0 -3
BITMAP
00
00
00
10
08
00
3C
42
42
7E
40
42
3C
00
00
00
ENDCHAR
STARTCHAR u0451
ENCODING 1105
SWIDTH 500 0
DWIDTH 8 0
BBX 8 16 0 -3
BITMAP
00
00
00
24
00
00
3C
42
42
7E
40
42
3C
00
00
00
ENDCHAR
STARTCHAR u0453
ENCODING 1107
SWIDTH 500 0
DWIDTH 8 0
BBX 8 16 0 -3
BITMAP
00
00
00
08
10
00
7E
40
40
40
40
40
40
00
00
00
ENDCHAR
STARTCHAR u0454
ENCODING 1108
SWIDTH 500 0
DWIDTH 8 0
BBX 8 16 0 -3
BITMAP
00
00
00
00
00
00
3C
42
40
78
40
42
3C
00
00
00
ENDCHAR
STARTCHAR u0455
ENCODING 1109
SWIDTH 500 0
DWIDTH 8 0
BBX 8 16 0 -3
BITMAP
00
00
00
00
00
00
3C
42
40
3C
02
42
3C
00
00
00
ENDCHAR
STARTCHAR u0456
ENCODING 1110
SWIDTH 500 0
DWIDTH 8 0
BBX 8 16 0 -3
BITMAP
00
00
00
08
00
00
78
08
08
08
08
08
7E
00
00
00
ENDCHAR
STARTCHAR u0457
ENCODING 1111
SWIDTH 500 0
DWIDTH 8 0
BBX 8 16 0 -3
BITMAP
00
00
00
28
00
00
78
08
08
08
08
08
7E
00
00
00
ENDCHAR
STARTCHAR u0458
ENCODING 1112
SWIDTH 500 0
DWIDTH 8 0
BBX 8 16 0 -3
BITMAP
00
00
00
04
00
00
7C
04
04
04
04
04
04
04
04
78
ENDCHAR
STARTCHAR u045B
ENCODING 1115
SWIDTH 500 0
DWIDTH 8 0
BBX 8 16 0 -3
BITMAP
00
00
00
40
F0
40
5C
62
42
42
42
42
42
00
00
00
ENDCHAR
STARTCHAR u045C
ENCODING 1116
SWIDTH 500 0
DWIDTH 8 0
BBX 8 16 0 -3
BITMAP
00
00
00
08
10
00
42
44
58
60
50
48
46
00
00
00
ENDCHAR
STARTCHAR u045D
ENCODING 1117
SWIDTH 500 0
DWIDTH 8 0
BBX 8 16 0 -3
BITMAP
00
00
00
10
08
00
42
46
4A
52
62
42
42
00
00
00
ENDCHAR
STARTCHAR u045E
ENCODING 1118
SWIDTH 500 0
DWIDTH 8 0
BBX 8 16 0 -3
BITMAP
00
00
00
44
38
00
82
82
44
44
28
28
10
10
20
C0
ENDCHAR
STARTCHAR u045F
ENCODING 1119
SWIDTH 500 0
DWIDTH 8 0
BBX 8 16 0 -3
BITMAP
00
00
00
00
00
00
42
42
42
42
42
42
7E
08
08
00
ENDCHAR
STARTCHAR u0464
ENCODING 1124
SWIDTH 500 0
DWIDTH 8 0
BBX 8 16 0 -3
BITMAP
00
00
00
9C
A2
A0
A0
F8
A0
A0
A0
A2
9C
00
00
00
ENDCHAR
STARTCHAR u0465
ENCODING 1125
SWIDTH 500 0
DWIDTH 8 0
BBX 8 16 0 -3
BITMAP
00
00
00
00
00
00
9C
A2
A0
F8
A0
A2
9C
00
00
00
ENDCHAR
STARTCHAR u0470
ENCODING 1136
SWIDTH 500 0
DWIDTH 8 0
BBX 8 16 0 -3
BITMAP
00
00
00
92
92
92
92
92
54
38
10
10
10
00
00
00
ENDCHAR
STARTCHAR u0471
ENCODING 1137
SWIDTH 500 0
DWIDTH 8 0
BBX 8 16 0 -3
BITMAP
00
00
00
00
00
00
92
92
92
92
92
92
7C
10
10
10
ENDCHAR
STARTCHAR u0472
ENCODING 1138
SWIDTH 500 0
DWIDTH 8 0
BBX 8 16 0 -3
BITMAP
00
00
00
38
44
82
82
FE
82
82
82
44
38
00
00
00
ENDCHAR
STARTCHAR u0473
ENCODING 1139
SWIDTH 500 0
DWIDTH 8 0
BBX 8 16 0 -3
BITMAP
00
00
00
00
00
00
3C
42
42
7E
42
42
3C
00
00
00
ENDCHAR
STARTCHAR u0490
ENCODING 1168
SWIDTH 500 0
DWIDTH 8 0
BBX 8 16 0 -3
BITMAP
00
02
02
FE
80
80
80
80
80
80
80
80
80
00
00
00
ENDCHAR
STARTCHAR u0491
ENCODING 1169
SWIDTH 500 0
DWIDTH 8 0
BBX 8 16 0 -3
BITMAP
00
00
00
00
02
02
7E
40
40
40
40
40
40
00
00
00
ENDCHAR
STARTCHAR u049E
ENCODING 1182
SWIDTH 500 0
DWIDTH 8 0
BBX 8 16 0 -3
BITMAP
00
00
00
42
F4
48
50
60
60
50
48
44
42
00
00
00
ENDCHAR
STARTCHAR u049F
ENCODING 1183
SWIDTH 500 0
DWIDTH 8 0
BBX 8 16 0 -3
BITMAP
00
00
00
40
F0
40
42
44
58
60
50
48
46
00
00
00
ENDCHAR
STARTCHAR u04AE
ENCODING 1198
SWIDTH 500 0
DWIDTH 8 0
BBX 8 16 0 -3
BITMAP
00
00
00
82
82
44
44
28
28
10
10
10
10
00
00
00
ENDCHAR
STARTCHAR u04AF
ENCODING 1199
SWIDTH 500 0
DWIDTH 8 0
BBX 8 16 0 -3
BITMAP
00
00
00
00
00
00
82
82
44
44
28
28
10
10
10
10
ENDCHAR
STARTCHAR u04B0
ENCODING 1200
SWIDTH 500 0
DWIDTH 8 0
BBX 8 16 0 -3
BITMAP
00
00
00
82
82
44
44
28
28
7C
10
10
10
00
00
00
ENDCHAR
STARTCHAR u04B1
ENCODING 1201
SWIDTH 500 0
DWIDTH 8 0
BBX 8 16 0 -3
BITMAP
00
00
00
00
00
00
82
82
44
44
28
28
7C
10
10
10
ENDCHAR
STARTCHAR u04BA
ENCODING 1210
SWIDTH 500 0
DWIDTH 8 0
BBX 8 16 0 -3
BITMAP
00
00
00
80
80
80
80
B8
C4
82
82
82
82
00
00
00
ENDCHAR
STARTCHAR u04BB
ENCODING 1211
SWIDTH 500 0
DWIDTH 8 0
BBX 8 16 0 -3
BITMAP
00
00
00
40
40
40
5C
62
42
42
42
42
42
00
00
00
ENDCHAR
STARTCHAR u04C0
ENCODING 1216
SWIDTH 500 0
DWIDTH 8 0
BBX 8 16 0 -3
BITMAP
00
00
00
FE
10
10
10
10
10
10
10
10
FE
00
00
00
ENDCHAR
STARTCHAR u04C1
ENCODING 1217
SWIDTH 500 0
DWIDTH 8 0
BBX 8 16 0 -3
BITMAP
44
38
00
92
92
54
54
38
54
54
92
92
92
00
00
00
ENDCHAR
STARTCHAR u04C2
ENCODING 1218
SWIDTH 500 0
DWIDTH 8 0
BBX 8 16 0 -3
BITMAP
00
00
00
44
38
00
92
54
54
38
54
92
92
00
00
00
ENDCHAR
STARTCHAR u04C7
ENCODING 1223
SWIDTH 500 0
DWIDTH 8 0
BBX 8 16 0 -3
BITMAP
00
00
00
82
82
82
82
FE
82
82
82
82
82
02
0C
00
ENDCHAR
STARTCHAR u04C8
ENCODING 1224
SWIDTH 500 0
DWIDTH 8 0
BBX 8 16 0 -3
BITMAP
00
00
00
00
00
00
42
42
42
7E
42
42
42
02
0C
00
ENDCHAR
STARTCHAR u04CF
ENCODING 1231
SWIDTH 500 0
DWIDTH 8 0
BBX 8 16 0 -3
BITMAP
00
00
00
FE
10
10
10
10
10
10
10
10
FE
00
00
00
ENDCHAR
STARTCHAR u04D0
ENCODING 1232
SWIDTH 500 0
DWIDTH 8 0
BBX 8 16 0 -3
BITMAP
00
44
38
00
10
10
28
28
44
7C
44
82
82
00
00
00
ENDCHAR
STARTCHAR u04D1
ENCODING 1233
SWIDTH 500 0
DWIDTH 8 0
BBX 8 16 0 -3
BITMAP
00
00
00
24
18
00
3C
02
02
3E
42
42
3E
00
00
00
ENDCHAR
STARTCHAR u04D2
ENCODING 1234
SWIDTH 500 0
DWIDTH 8 0
BBX 8 16 0 -3
BITMAP
00
44
00
10
10
28
28
44
44
7C
82
82
82
00
00
00
ENDCHAR
STARTCHAR u04D3
ENCODING 1235
SWIDTH 500 0
DWIDTH 8 0
BBX 8 16 0 -3
BITMAP
00
00
00
24
00
00
3C
02
02
3E
42
42
3E
00
00
00
ENDCHAR
STARTCHAR u04D4
ENCODING 1236
SWIDTH 500 0
DWIDTH 8 0
BBX 8 16 0 -3
BITMAP
00
00
00
1E
18
28
28
4E
48
78
88
88
8E
00
00
00
ENDCHAR
STARTCHAR u04D5
ENCODING 1237
SWIDTH 500 0
DWIDTH 8 0
BBX 8 16 0 -3
BITMAP
00
00
00
00
00
00
6C
12
12
7E
90
92
6C
00
00
00
ENDCHAR
STARTCHAR u04D6
ENCODING 1238
SWIDTH 500 0
DWIDTH 8 0
BBX 8 16 0 -3
BITMAP
00
44
38
00
FE
80
80
80
FC
80
80
80
FE
00
00
00
ENDCHAR
STARTCHAR u04D7
ENCODING 1239
SWIDTH 500 0
DWIDTH 8 0
BBX 8 16 0 -3
BITMAP
00
00
00
24
18
00
3C
42
42
7E
40
42
3C
00
00
00
ENDCHAR
STARTCHAR u04D8
ENCODING 1240
SWIDTH 500 0
DWIDTH 8 0
BBX 8 16 0 -3
BITMAP
00
00
00
38
44
02
02
02
FE
82
82
44
38
00
00
00
ENDCHAR
STARTCHAR u04D9
ENCODING 1241
SWIDTH 500 0
DWIDTH 8 0
BBX 8 16 0 -3
BITMAP
00
00
00
00
00
00
3C
42
02
7E
42
42
3C
00
00
00
ENDCHAR
STARTCHAR u04DA
ENCODING 1242
SWIDTH 500 0
DWIDTH 8 0
BBX 8 16 0 -3
BITMAP
00
44
00
38
44
02
02
02
FE
82
82
44
38
00
00
00
ENDCHAR
STARTCHAR u04DB
ENCODING 1243
SWIDTH 500 0
DWIDTH 8 0
BBX 8 16 0 -3
BITMAP
00
00
00
24
00
00
3C
42
02
7E
42
42
3C
00
00
00
ENDCHAR
STARTCHAR u04DC
ENCODING 1244
SWIDTH 500 0
DWIDTH 8 0
BBX 8 16 0 -3
BITMAP
00
44
00
92
92
54
54
38
54
54
92
92
92
00
00
00
ENDCHAR
STARTCHAR u04DD
ENCODING 1245
SWIDTH 500 0
DWIDTH 8 0
BBX 8 16 0 -3
BITMAP
00
00
00
44
00
00
92
54
54
38
54
92
92
00
00
00
ENDCHAR
STARTCHAR u04DE
ENCODING 1246
SWIDTH 500 0
DWIDTH 8 0
BBX 8 16 0 -3
BITMAP
00
44
00
7C
82
02
02
3C
02
02
02
82
7C
00
00
00
ENDCHAR
STARTCHAR u04DF
ENCODING 1247
SWIDTH 500 0
DWIDTH 8 0
BBX 8 16 0 -3
BITMAP
00
00
00
24
00
00
3C
42
02
1C
02
42
3C
00
00
00
ENDCHAR
STARTCHAR u04E2
ENCODING 1250
SWIDTH 500 0
DWIDTH 8 0
BBX 8 16 0 -3
BITMAP
00
7C
00
82
86
86
8A
92
92
A2
C2
C2
82
00
00
00
ENDCHAR
STARTCHAR u04E3
ENCODING 1251
SWIDTH 500 0
DWIDTH 8 0
BBX 8 16 0 -3
BITMAP
00
00
00
3C
00
00
42
46
4A
52
62
42
42
00
00
00
ENDCHAR
STARTCHAR u04E4
ENCODING 1252
SWIDTH 500 0
DWIDTH 8 0
BBX 8 16 0 -3
BITMAP
00
44
00
82
86
8A
8A
92
92
A2
A2
C2
82
00
00
00
ENDCHAR
STARTCHAR u04E5
ENCODING 1253
SWIDTH 500 0
DWIDTH 8 0
BBX 8 16 0 -3
BITMAP
00
00
00
24
00
00
42
46
4A
52
62
42
42
00
00
00
ENDCHAR
STARTCHAR u04E6
ENCODING 1254
SWIDTH 500 0
DWIDTH 8 0
BBX 8 16 0 -3
BITMAP
00
44
00
38
44
82
82
82
82
82
82
44
38
00
00
00
ENDCHAR
STARTCHAR u04E7
ENCODING 1255
SWIDTH 500 0
DWIDTH 8 0
BBX 8 16 0 -3
BITMAP
00
00
00
24
00
00
3C
42
42
42
42
42
3C
00
00
00
ENDCHAR
STARTCHAR u04E8
ENCODING 1256
SWIDTH 500 0
DWIDTH 8 0
BBX 8 16 0 -3
BITMAP
00
00
00
38
44
82
82
FE
82
82
82
44
38
00
00
00
ENDCHAR
STARTCHAR u04E9
ENCODING 1257
SWIDTH 500 0
DWIDTH 8 0
BBX 8 16 0 -3
BITMAP
00
00
00
00
00
00
3C
42
42
7E
42
42
3C
00
00
00
ENDCHAR
STARTCHAR u04EA
ENCODING 1258
SWIDTH 500 0
DWIDTH 8 0
BBX 8 16 0 -3
BITMAP
00
44
00
38
44
82
82
FE
82
82
82
44
38
00
00
00
ENDCHAR
STARTCHAR u04EB
ENCODING 1259
SWIDTH 500 0
DWIDTH 8 0
BBX 8 16 0 -3
BITMAP
00
00
00
24
00
00
3C
42
42
7E
42
42
3C
00
00
00
ENDCHAR
STARTCHAR u04EC
ENCODING 1260
SWIDTH 500 0
DWIDTH 8 0
BBX 8 16 0 -3
BITMAP
00
44
00
78
84
02
02
3E
02
02
02
84
78
00
00
00
ENDCHAR
STARTCHAR u04ED
ENCODING 1261
SWIDTH 500 0
DWIDTH 8 0
BBX 8 16 0 -3
BITMAP
00
00
00
24
00
00
3C
42
02
1E
02
42
3C
00
00
00
ENDCHAR
STARTCHAR u04EE
ENCODING 1262
SWIDTH 500 0
DWIDTH 8 0
BBX 8 16 0 -3
BITMAP
00
7C
00
82
82
44
44
28
28
10
10
20
C0
00
00
00
ENDCHAR
STARTCHAR u04EF
ENCODING 1263
SWIDTH 500 0
DWIDTH 8 0
BBX 8 16 0 -3
BITMAP
00
00
00
7C
00
00
82
82
44
44
28
28
10
10
20
C0
ENDCHAR
STARTCHAR u04F0
ENCODING 1264
SWIDTH 500 0
DWIDTH 8 0
BBX 8 16 0 -3
BITMAP
00
44
00
82
82
44
44
28
28
10
10
20
C0
00
00
00
ENDCHAR
STARTCHAR u04F1
ENCODING 1265
SWIDTH 500 0
DWIDTH 8 0
BBX 8 16 0 -3
BITMAP
00
00
00
44
00
00
82
82
44
44
28
28
10
10
20
C0
ENDCHAR
STARTCHAR u04F2
ENCODING 1266
SWIDTH 500 0
DWIDTH 8 0
BBX 8 16 0 -3
BITMAP
00
14
28
00
82
44
44
28
28
10
10
20
C0
00
00
00
ENDCHAR
STARTCHAR u04F3
ENCODING 1267
SWIDTH 500 0
DWIDTH 8 0
BBX 8 16 0 -3
BITMAP
00
00
00
14
28
00
82
82
44
44
28
28
10
10
20
C0
ENDCHAR
STARTCHAR u04F4
ENCODING 1268
SWIDTH 500 0
DWIDTH 8 0
BBX 8 16 0 -3
BITMAP
00
44
00
82
82
82
82
46
3A
02
02
02
02
00
00
00
ENDCHAR
STARTCHAR u04F5
ENCODING 1269
SWIDTH 500 0
DWIDTH 8 0
BBX 8 16 0 -3
BITMAP
00
00
00
24
00
00
42
42
42
46
3A
02
02
00
00
00
ENDCHAR
STARTCHAR u04F6
ENCODING 1270
SWIDTH 500 0
DWIDTH 8 0
BBX 8 16 0 -3
BITMAP
00
00
00
FE
80
80
80
80
80
80
80
80
C0
40
40
00
ENDCHAR
STARTCHAR u04F7
ENCODING 1271
SWIDTH 500 0
DWIDTH 8 0
BBX 8 16 0 -3
BITMAP
00
00
00
00
00
00
7E
40
40
40
40
40
60
20
20
00
ENDCHAR
STARTCHAR u04F8
ENCODING 1272
SWIDTH 500 0
DWIDTH 8 0
BBX 8 16 0 -3
BITMAP
00
44
00
82
82
82
82
F2
8A
8A
8A
8A
F2
00
00
00
ENDCHAR
STARTCHAR u04F9
ENCODING 1273
SWIDTH 500 0
DWIDTH 8 0
BBX 8 16 0 -3
BITMAP
00
00
00
44
00
00
82
82
82
F2
8A
8A
F2
00
00
00
ENDCHAR
STARTCHAR u2010
ENCODING 8208
SWIDTH 1000 0
DWIDTH 16 0
BBX 16 16 0 -3
BITMAP
0000
0000
0000
0000
0000
0000
0000
0000
0FE0
0000
0000
0000
0000
0000
0000
0000
ENDCHAR
STARTCHAR u2011
ENCODING 8209
SWIDTH 500 0
DWIDTH 8 0
BBX 8 16 0 -3
BITMAP
00
00
00
00
00
00
00
00
FE
00
00
00
00
00
00
00
ENDCHAR
STARTCHAR u2012
ENCODING 8210
SWIDTH 500 0
DWIDTH 8 0
BBX 8 16 0 -3
BITMAP
00
00
00
00
00
00
00
00
FE
00
00
00
00
00
00
00
ENDCHAR
STARTCHAR u2013
ENCODING 8211
SWIDTH 500 0
DWIDTH 8 0
BBX 8 16 0 -3
BITMAP
00
00
00
00
00
00
00
00
FF
00
00
00
00
00
00
00
ENDCHAR
STARTCHAR u2014
ENCODING 8212
SWIDTH 1000 0
DWIDTH 16 0
BBX 16 16 0 -3
BITMAP
0000
0000
0000
0000
0000
0000
0000
0000
FFFE
0000
0000
0000
0000
0000
0000
0000
ENDCHAR
STARTCHAR u2015
ENCODING 8213
SWIDTH 1000 0
DWIDTH 16 0
BBX 16 16 0 -3
BITMAP
0000
0000
0000
0000
0000
0000
0000
0000
FFFF
0000
0000
0000
0000
0000
0000
0000
ENDCHAR
STARTCHAR u2016
ENCODING 8214
SWIDTH 1000 0
DWIDTH 16 0
BBX 16 16 0 -3
BITMAP
0000
0280
0280
0280
0280
0280
0280
0280
0280
0280
0280
0280
0280
0280
0280
0280
ENDCHAR
STARTCHAR u2017
ENCODING 8215
SWIDTH 1000 0
DWIDTH 16 0
BBX 16 16 0 -3
BITMAP
0000
0000
0000
0000
0000
0000
0000
0000
0000
0000
0000
0000
0000
FFFE
0000
FFFE
ENDCHAR
STARTCHAR u2018
ENCODING 8216
SWIDTH 500 0
DWIDTH 8 0
BBX 8 16 0 -3
BITMAP
00
00
00
04
08
0C
0C
00
00
00
00
00
00
00
00
00
ENDCHAR
STARTCHAR u2019
ENCODING 8217
SWIDTH 500 0
DWIDTH 8 0
BBX 8 16 0 -3
BITMAP
00
00
00
60
60
20
40
00
00
00
00
00
00
00
00
00
ENDCHAR
STARTCHAR u201A
ENCODING 8218
SWIDTH 500 0
DWIDTH 8 0
BBX 8 16 0 -3
BITMAP
00
00
00
00
00
00
00
00
00
00
00
60
60
20
40
00
ENDCHAR
STARTCHAR u201B
ENCODING 8219
SWIDTH 500 0
DWIDTH 8 0
BBX 8 16 0 -3
BITMAP
00
00
00
0C
0C
08
04
00
00
00
00
00
00
00
00
00
ENDCHAR
STARTCHAR u201C
ENCODING 8220
SWIDTH 500 0
DWIDTH 8 0
BBX 8 16 0 -3
BITMAP
00
00
00
24
48
6C
6C
00
00
00
00
00
00
00
00
00
ENDCHAR
STARTCHAR u201D
ENCODING 8221
SWIDTH 500 0
DWIDTH 8 0
BBX 8 16 0 -3
BITMAP
00
00
00
6C
6C
24
48
00
00
00
00
00
00
00
00
00
ENDCHAR
STARTCHAR u201E
ENCODING 8222
SWIDTH 500 0
DWIDTH 8 0
BBX 8 16 0 -3
BITMAP
00
00
00
00
00
00
00
00
00
00
00
6C
6C
24
48
00
ENDCHAR
STARTCHAR u201F
ENCODING 8223
SWIDTH 500 0
DWIDTH 8 0
BBX 8 16 0 -3
BITMAP
00
00
00
6C
6C
48
24
00
00
00
00
00
00
00
00
00
ENDCHAR
STARTCHAR u2020
ENCODING 8224
SWIDTH 1000 0
DWIDTH 16 0
BBX 16 16 0 -3
BITMAP
0000
0100
0100
0100
0100
1FF0
0100
0100
0100
0100
0100
0100
0100
0100
0100
0100
ENDCHAR
STARTCHAR u2021
ENCODING 8225
SWIDTH 1000 0
DWIDTH 16 0
BBX 16 16 0 -3
BITMAP
0000
0100
0100
0100
1FF0
0100
0100
0100
0100
0100
0100
0100
1FF0
0100
0100
0100
ENDCHAR
STARTCHAR u2022
ENCODING 8226
SWIDTH 1000 0
DWIDTH 16 0
BBX 16 16 0 -3
BITMAP
0000
0000
0000
0000
0000
0000
0380
07C0
07C0
07C0
0380
0000
0000
0000
0000
0000
ENDCHAR
STARTCHAR u2023
ENCODING 8227
SWIDTH 1000 0
DWIDTH 16 0
BBX 16 16 0 -3
BITMAP
0000
0000
0000
0000
0000
0600
0700
0780
07C0
0780
0700
0600
0000
0000
0000
0000
ENDCHAR
STARTCHAR u2024-ZH_CN
ENCODING 8228
SWIDTH 1000 0
DWIDTH 16 0
BBX 16 16 0 -3
BITMAP
0000
0000
0000
0000
0000
0000
0000
0000
0180
0180
0000
0000
0000
0000
0000
0000
ENDCHAR
STARTCHAR u2025-ZH_CN
ENCODING 8229
SWIDTH 1000 0
DWIDTH 16 0
BBX 16 16 0 -3
BITMAP
0000
0000
0000
0000
0000
0000
0000
0000
0C30
0C30
0000
0000
0000
0000
0000
0000
ENDCHAR
STARTCHAR u2026-ZH_CN
ENCODING 8230
SWIDTH 1000 0
DWIDTH 16 0
BBX 16 16 0 -3
BITMAP
0000
0000
0000
0000
0000
0000
0000
0000
318C
318C
0000
0000
0000
0000
0000
0000
ENDCHAR
STARTCHAR u2027-ZH_CN
ENCODING 8231
SWIDTH 1000 0
DWIDTH 16 0
BBX 16 16 0 -3
BITMAP
0000
0000
0000
0000
0000
0000
0000
0000
0180
0180
0000
0000
0000
0000
0000
0000
ENDCHAR
STARTCHAR u2030
ENCODING 8240
SWIDTH 1000 0
DWIDTH 16 0
BBX 16 16 0 -3
BITMAP
0000
0000
0000
1840
2480
2480
1900
0100
0200
0400
04D8
0924
0924
10D8
0000
0000
ENDCHAR
STARTCHAR u2031
ENCODING 8241
SWIDTH 1000 0
DWIDTH 16 0
BBX 16 16 0 -3
BITMAP
0000
0000
0000
6100
9200
9200
6400
0400
0800
1000
136C
2492
2492
436C
0000
0000
ENDCHAR
STARTCHAR u2032
ENCODING 8242
SWIDTH 500 0
DWIDTH 8 0
BBX 8 16 0 -3
BITMAP
00
00
00
08
08
10
10
00
00
00
00
00
00
00
00
00
ENDCHAR
STARTCHAR u2033
ENCODING 8243
SWIDTH 500 0
DWIDTH 8 0
BBX 8 16 0 -3
BITMAP
00
00
00
14
14
28
28
00
00
00
00
00
00
00
00
00
ENDCHAR
STARTCHAR u2035
ENCODING 8245
SWIDTH 500 0
DWIDTH 8 0
BBX 8 16 0 -3
BITMAP
00
00
00
10
10
08
08
00
00
00
00
00
00
00
00
00
ENDCHAR
STARTCHAR u2036
ENCODING 8246
SWIDTH 500 0
DWIDTH 8 0
BBX 8 16 0 -3
BITMAP
00
00
00
28
28
14
14
00
00
00
00
00
00
00
00
00
ENDCHAR
STARTCHAR u203B
ENCODING 8251
SWIDTH 1000 0
DWIDTH 16 0
BBX 16 16 0 -3
BITMAP
0000
0000
4104
2388
1110
0820
0440
2288
711C
2288
0440
0820
1110
2388
4104
0000
ENDCHAR
STARTCHAR u203E
ENCODING 8254
SWIDTH 500 0
DWIDTH 8 0
BBX 8 16 0 -3
BITMAP
00
FE
00
00
00
00
00
00
00
00
00
00
00
00
00
00
ENDCHAR
STARTCHAR u2043
ENCODING 8259
SWIDTH 1000 0
DWIDTH 16 0
BBX 16 16 0 -3
BITMAP
0000
0000
0000
0000
0000
0000
0000
07C0
07C0
07C0
0000
0000
0000
0000
0000
0000
ENDCHAR
STARTCHAR u204B
ENCODING 8267
SWIDTH 500 0
DWIDTH 8 0
BBX 8 16 0 -3
BITMAP
00
00
00
F0
BC
BE
BE
BE
BE
BC
B0
A0
A0
A0
A0
A0
ENDCHAR
STARTCHAR u204C
ENCODING 8268
SWIDTH 500 0
DWIDTH 8 0
BBX 8 16 0 -3
BITMAP
00
00
00
00
00
1E
7A
FA
FA
FA
FA
7A
1E
00
00
00
ENDCHAR
STARTCHAR u204D
ENCODING 8269
SWIDTH 500 0
DWIDTH 8 0
BBX 8 16 0 -3
BITMAP
00
00
00
00
00
F0
BC
BE
BE
BE
BE
BC
F0
00
00
00
ENDCHAR
STARTCHAR u2070
ENCODING 8304
SWIDTH 500 0
DWIDTH 8 0
BBX 8 16 0 -3
BITMAP
00
38
44
4C
54
64
44
38
00
00
00
00
00
00
00
00
ENDCHAR
STARTCHAR u2071
ENCODING 8305
SWIDTH 500 0
DWIDTH 8 0
BBX 8 16 0 -3
BITMAP
00
10
00
30
10
10
10
38
00
00
00
00
00
00
00
00
ENDCHAR
STARTCHAR u2074
ENCODING 8308
SWIDTH 500 0
DWIDTH 8 0
BBX 8 16 0 -3
BITMAP
00
18
28
28
48
48
7C
08
00
00
00
00
00
00
00
00
ENDCHAR
STARTCHAR u2075
ENCODING 8309
SWIDTH 500 0
DWIDTH 8 0
BBX 8 16 0 -3
BITMAP
00
7C
40
40
78
04
44
38
00
00
00
00
00
00
00
00
ENDCHAR
STARTCHAR u2076
ENCODING 8310
SWIDTH 500 0
DWIDTH 8 0
BBX 8 16 0 -3
BITMAP
00
38
44
40
78
44
44
38
00
00
00
00
00
00
00
00
ENDCHAR
STARTCHAR u2077
ENCODING 8311
SWIDTH 500 0
DWIDTH 8 0
BBX 8 16 0 -3
BITMAP
00
7C
04
08
08
10
10
10
00
00
00
00
00
00
00
00
ENDCHAR
STARTCHAR u2078
ENCODING 8312
SWIDTH 500 0
DWIDTH 8 0
BBX 8 16 0 -3
BITMAP
00
38
44
44
38
44
44
38
00
00
00
00
00
00
00
00
ENDCHAR
STARTCHAR u2079
ENCODING 8313
SWIDTH 500 0
DWIDTH 8 0
BBX 8 16 0 -3
BITMAP
00
38
44
44
3C
04
44
38
00
00
00
00
00
00
00
00
ENDCHAR
STARTCHAR u207A
ENCODING 8314
SWIDTH 500 0
DWIDTH 8 0
BBX 8 16 0 -3
BITMAP
00
00
10
10
7C
10
10
00
00
00
00
00
00
00
00
00
ENDCHAR
STARTCHAR u207B
ENCODING 8315
SWIDTH 500 0
DWIDTH 8 0
BBX 8 16 0 -3
BITMAP
00
00
00
00
7C
00
00
00
00
00
00
00
00
00
00
00
ENDCHAR
STARTCHAR u207C
ENCODING 8316
SWIDTH 500 0
DWIDTH 8 0
BBX 8 16 0 -3
BITMAP
00
00
00
7C
00
7C
00
00
00
00
00
00
00
00
00
00
ENDCHAR
STARTCHAR u207D
ENCODING 8317
SWIDTH 500 0
DWIDTH 8 0
BBX 8 16 0 -3
BITMAP
00
08
10
10
10
10
10
08
00
00
00
00
00
00
00
00
ENDCHAR
STARTCHAR u207E
ENCODING 8318
SWIDTH 500 0
DWIDTH 8 0
BBX 8 16 0 -3
BITMAP
00
20
10
10
10
10
10
20
00
00
00
00
00
00
00
00
ENDCHAR
STARTCHAR u207F
ENCODING 8319
SWIDTH 500 0
DWIDTH 8 0
BBX 8 16 0 -3
BITMAP
00
00
00
58
64
44
44
44
00
00
00
00
00
00
00
00
ENDCHAR
STARTCHAR u2080
ENCODING 8320
SWIDTH 500 0
DWIDTH 8 0
BBX 8 16 0 -3
BITMAP
00
00
00
00
00
00
00
00
00
38
44
4C
54
64
44
38
ENDCHAR
STARTCHAR u2081
ENCODING 8321
SWIDTH 500 0
DWIDTH 8 0
BBX 8 16 0 -3
BITMAP
00
00
00
00
00
00
00
00
00
10
70
10
10
10
10
7C
ENDCHAR
STARTCHAR u2082
ENCODING 8322
SWIDTH 500 0
DWIDTH 8 0
BBX 8 16 0 -3
BITMAP
00
00
00
00
00
00
00
00
00
38
44
04
18
20
40
7C
ENDCHAR
STARTCHAR u2083
ENCODING 8323
SWIDTH 500 0
DWIDTH 8 0
BBX 8 16 0 -3
BITMAP
00
00
00
00
00
00
00
00
00
38
44
04
18
04
44
38
ENDCHAR
STARTCHAR u2084
ENCODING 8324
SWIDTH 500 0
DWIDTH 8 0
BBX 8 16 0 -3
BITMAP
00
00
00
00
00
00
00
00
00
18
28
28
48
48
7C
08
ENDCHAR
STARTCHAR u2085
ENCODING 8325
SWIDTH 500 0
DWIDTH 8 0
BBX 8 16 0 -3
BITMAP
00
00
00
00
00
00
00
00
00
7C
40
40
78
04
44
38
ENDCHAR
STARTCHAR u2086
ENCODING 8326
SWIDTH 500 0
DWIDTH 8 0
BBX 8 16 0 -3
BITMAP
00
00
00
00
00
00
00
00
00
38
44
40
78
44
44
38
ENDCHAR
STARTCHAR u2087
ENCODING 8327
SWIDTH 500 0
DWIDTH 8 0
BBX 8 16 0 -3
BITMAP
00
00
00
00
00
00
00
00
00
7C
04
08
08
10
10
10
ENDCHAR
STARTCHAR u2088
ENCODING 8328
SWIDTH 500 0
DWIDTH 8 0
BBX 8 16 0 -3
BITMAP
00
00
00
00
00
00
00
00
00
38
44
44
38
44
44
38
ENDCHAR
STARTCHAR u2089
ENCODING 8329
SWIDTH 500 0
DWIDTH 8 0
BBX 8 16 0 -3
BITMAP
00
00
00
00
00
00
00
00
00
38
44
44
3C
04
44
38
ENDCHAR
STARTCHAR u208A
ENCODING 8330
SWIDTH 500 0
DWIDTH 8 0
BBX 8 16 0 -3
BITMAP
00
00
00
00
00
00
00
00
00
00
10
10
7C
10
10
00
ENDCHAR
STARTCHAR u208B
ENCODING 8331
SWIDTH 500 0
DWIDTH 8 0
BBX 8 16 0 -3
BITMAP
00
00
00
00
00
00
00
00
00
00
00
00
7C
00
00
00
ENDCHAR
STARTCHAR u208C
ENCODING 8332
SWIDTH 500 0
DWIDTH 8 0
BBX 8 16 0 -3
BITMAP
00
00
00
00
00
00
00
00
00
00
00
7C
00
7C
00
00
ENDCHAR
STARTCHAR u208D
ENCODING 8333
SWIDTH 500 0
DWIDTH 8 0
BBX 8 16 0 -3
BITMAP
00
00
00
00
00
00
00
00
00
08
10
10
10
10
10
08
ENDCHAR
STARTCHAR u208E
ENCODING 8334
SWIDTH 500 0
DWIDTH 8 0
BBX 8 16 0 -3
BITMAP
00
00
00
00
00
00
00
00
00
20
10
10
10
10
10
20
ENDCHAR
STARTCHAR u2090
ENCODING 8336
SWIDTH 500 0
DWIDTH 8 0
BBX 8 16 0 -3
BITMAP
00
00
00
00
00
00
00
00
00
00
00
38
04
3C
44
3C
ENDCHAR
STARTCHAR u2091
ENCODING 8337
SWIDTH 500 0
DWIDTH 8 0
BBX 8 16 0 -3
BITMAP
00
00
00
00
00
00
00
00
00
00
00
38
44
7C
40
38
ENDCHAR
STARTCHAR u2092
ENCODING 8338
SWIDTH 500 0
DWIDTH 8 0
BBX 8 16 0 -3
BITMAP
00
00
00
00
00
00
00
00
00
00
00
38
44
44
44
38
ENDCHAR
STARTCHAR u2093
ENCODING 8339
SWIDTH 500 0
DWIDTH 8 0
BBX 8 16 0 -3
BITMAP
00
00
00
00
00
00
00
00
00
00
00
44
28
10
28
44
ENDCHAR
STARTCHAR u2094
ENCODING 8340
SWIDTH 500 0
DWIDTH 8 0
BBX 8 16 0 -3
BITMAP
00
00
00
00
00
00
00
00
00
00
00
38
04
7C
44
38
ENDCHAR
STARTCHAR u2095
ENCODING 8341
SWIDTH 500 0
DWIDTH 8 0
BBX 8 16 0 -3
BITMAP
00
00
00
00
00
00
00
00
00
40
40
58
64
44
44
44
ENDCHAR
STARTCHAR u2096
ENCODING 8342
SWIDTH 500 0
DWIDTH 8 0
BBX 8 16 0 -3
BITMAP
00
00
00
00
00
00
00
00
00
40
40
44
58
60
50
4C
ENDCHAR
STARTCHAR u2097
ENCODING 8343
SWIDTH 500 0
DWIDTH 8 0
BBX 8 16 0 -3
BITMAP
00
00
00
00
00
00
00
00
00
70
10
10
10
10
10
0C
ENDCHAR
STARTCHAR u2098
ENCODING 8344
SWIDTH 500 0
DWIDTH 8 0
BBX 8 16 0 -3
BITMAP
00
00
00
00
00
00
00
00
00
00
00
68
54
54
54
54
ENDCHAR
STARTCHAR u2099
ENCODING 8345
SWIDTH 500 0
DWIDTH 8 0
BBX 8 16 0 -3
BITMAP
00
00
00
00
00
00
00
00
00
00
00
58
64
44
44
44
ENDCHAR
STARTCHAR u209A
ENCODING 8346
SWIDTH 500 0
DWIDTH 8 0
BBX 8 16 0 -3
BITMAP
00
00
00
00
00
00
00
00
00
00
00
78
44
44
78
40
ENDCHAR
STARTCHAR u209B
ENCODING 8347
SWIDTH 500 0
DWIDTH 8 0
BBX 8 16 0 -3
BITMAP
00
00
00
00
00
00
00
00
00
00
00
3C
40
38
04
78
ENDCHAR
STARTCHAR u209C
ENCODING 8348
SWIDTH 500 0
DWIDTH 8 0
BBX 8 16 0 -3
BITMAP
00
00
00
00
00
00
00
00
00
10
10
7C
10
10
10
0C
ENDCHAR
STARTCHAR u2103
ENCODING 8451
SWIDTH 1000 0
DWIDTH 16 0
BBX 16 16 0 -3
BITMAP
0000
0000
3000
4878
4884
3100
0100
0100
0100
0100
0100
0084
0078
0000
0000
0000
ENDCHAR
STARTCHAR u2109
ENCODING 8457
SWIDTH 1000 0
DWIDTH 16 0
BBX 16 16 0 -3
BITMAP
0000
0000
3000
49FC
4900
3100
0100
01F8
0100
0100
0100
0100
0100
0000
0000
0000
ENDCHAR
STARTCHAR u2116
ENCODING 8470
SWIDTH 1000 0
DWIDTH 16 0
BBX 16 16 0 -3
BITMAP
0000
0000
0000
4100
4100
6100
5100
5138
4944
4544
4544
4338
4100
417C
0000
0000
ENDCHAR
STARTCHAR u2122
ENCODING 8482
SWIDTH 1000 0
DWIDTH 16 0
BBX 16 16 0 -3
BITMAP
0000
FE82
10C6
10AA
1092
1082
1082
1082
0000
0000
0000
0000
0000
0000
0000
0000
ENDCHAR
STARTCHAR u2126
ENCODING 8486
SWIDTH 1000 0
DWIDTH 16 0
BBX 16 16 0 -3
BITMAP
0000
0000
07C0
0820
1010
2008
2008
2008
2008
2008
1010
0820
0440
0440
3C78
0000
ENDCHAR
STARTCHAR u2127
ENCODING 8487
SWIDTH 1000 0
DWIDTH 16 0
BBX 16 16 0 -3
BITMAP
0000
0000
3C78
0440
0440
0820
1010
2008
2008
2008
2008
2008
1010
0820
07C0
0000
ENDCHAR
STARTCHAR u212A
ENCODING 8490
SWIDTH 1000 0
DWIDTH 16 0
BBX 16 16 0 -3
BITMAP
0000
0000
0000
0820
0840
0880
0B00
0C00
0A00
0900
0880
0840
0820
0000
0000
0000
ENDCHAR
STARTCHAR u212B
ENCODING 8491
SWIDTH 1000 0
DWIDTH 16 0
BBX 16 16 0 -3
BITMAP
0000
0100
0280
0100
0000
0100
0280
0280
0440
07C0
0440
0820
0820
0000
0000
0000
ENDCHAR
STARTCHAR u212E
ENCODING 8494
SWIDTH 1000 0
DWIDTH 16 0
BBX 16 16 0 -3
BITMAP
0000
0000
0000
07C0
0820
1010
3018
3018
3FF8
3000
3000
1010
0820
07C0
0000
0000
ENDCHAR
STARTCHAR u2150
ENCODING 8528
SWIDTH 1000 0
DWIDTH 16 0
BBX 16 16 0 -3
BITMAP
0000
1002
7004
1008
1010
1020
1040
7C80
0100
027C
0404
0808
1008
2010
4010
8010
ENDCHAR
STARTCHAR u2151
ENCODING 8529
SWIDTH 1000 0
DWIDTH 16 0
BBX 16 16 0 -3
BITMAP
0000
1002
7004
1008
1010
1020
1040
7C80
0100
0238
0444
0844
103C
2004
4044
8038
ENDCHAR
STARTCHAR u2152
ENCODING 8530
SWIDTH 1000 0
DWIDTH 16 0
BBX 16 16 0 -3
BITMAP
0000
1002
7004
1008
1010
1020
1040
7C80
0100
024C
04D2
0852
1052
2052
4052
80EC
ENDCHAR
STARTCHAR u2153
ENCODING 8531
SWIDTH 1000 0
DWIDTH 16 0
BBX 16 16 0 -3
BITMAP
0000
1002
7004
1008
1010
1020
1040
7C80
0100
0238
0444
0804
1018
2004
4044
8038
ENDCHAR
STARTCHAR u2154
ENCODING 8532
SWIDTH 1000 0
DWIDTH 16 0
BBX 16 16 0 -3
BITMAP
0000
3802
4404
0408
1810
2020
4040
7C80
0100
0238
0444
0804
1018
2004
4044
8038
ENDCHAR
STARTCHAR u2155
ENCODING 8533
SWIDTH 1000 0
DWIDTH 16 0
BBX 16 16 0 -3
BITMAP
0000
1002
7004
1008
1010
1020
1040
7C80
0100
027C
0440
0840
1078
2004
4044
8038
ENDCHAR
STARTCHAR u2156
ENCODING 8534
SWIDTH 1000 0
DWIDTH 16 0
BBX 16 16 0 -3
BITMAP
0000
3802
4404
0408
1810
2020
4040
7C80
0100
027C
0440
0840
1078
2004
4044
8038
ENDCHAR
STARTCHAR u2157
ENCODING 8535
SWIDTH 1000 0
DWIDTH 16 0
BBX 16 16 0 -3
BITMAP
0000
3802
4404
0408
1810
0420
4440
3880
0100
027C
0440
0840
1078
2004
4044
8038
ENDCHAR
STARTCHAR u2158
ENCODING 8536
SWIDTH 1000 0
DWIDTH 16 0
BBX 16 16 0 -3
BITMAP
0000
1802
2804
2808
4810
4820
7C40
0880
0100
027C
0440
0840
1078
2004
4044
8038
ENDCHAR
STARTCHAR u2159
ENCODING 8537
SWIDTH 1000 0
DWIDTH 16 0
BBX 16 16 0 -3
BITMAP
0000
1002
7004
1008
1010
1020
1040
7C80
0100
0238
0444
0840
1078
2044
4044
8038
ENDCHAR
STARTCHAR u215A
ENCODING 8538
SWIDTH 1000 0
DWIDTH 16 0
BBX 16 16 0 -3
BITMAP
0000
7C02
4004
4008
7810
0420
4440
3880
0100
0238
0444
0840
1078
2044
4044
8038
ENDCHAR
STARTCHAR u215B
ENCODING 8539
SWIDTH 1000 0
DWIDTH 16 0
BBX 16 16 0 -3
BITMAP
0000
1002
7004
1008
1010
1020
1040
7C80
0100
0238
0444
0844
1038
2044
4044
8038
ENDCHAR
STARTCHAR u215C
ENCODING 8540
SWIDTH 1000 0
DWIDTH 16 0
BBX 16 16 0 -3
BITMAP
0000
3802
4404
0408
1810
0420
4440
3880
0100
0238
0444
0844
1038
2044
4044
8038
ENDCHAR
STARTCHAR u215D
ENCODING 8541
SWIDTH 1000 0
DWIDTH 16 0
BBX 16 16 0 -3
BITMAP
0000
7C02
4004
4008
7810
0420
4440
3880
0100
0238
0444
0844
1038
2044
4044
8038
ENDCHAR
STARTCHAR u215E
ENCODING 8542
SWIDTH 1000 0
DWIDTH 16 0
BBX 16 16 0 -3
BITMAP
0000
7C02
0404
0808
0810
1020
1040
1080
0100
0238
0444
0844
1038
2044
4044
8038
ENDCHAR
STARTCHAR u215F
ENCODING 8543
SWIDTH 1000 0
DWIDTH 16 0
BBX 16 16 0 -3
BITMAP
0000
1002
7004
1008
1010
1020
1040
7C80
0100
0200
0400
0800
1000
2000
4000
8000
ENDCHAR
STARTCHAR u2160
ENCODING 8544
SWIDTH 1000 0
DWIDTH 16 0
BBX 16 16 0 -3
BITMAP
0000
0000
0000
0380
0100
0100
0100
0100
0100
0100
0100
0100
0100
0380
0000
0000
ENDCHAR
STARTCHAR u2161
ENCODING 8545
SWIDTH 1000 0
DWIDTH 16 0
BBX 16 16 0 -3
BITMAP
0000
0000
0000
0EE0
0440
0440
0440
0440
0440
0440
0440
0440
0440
0EE0
0000
0000
ENDCHAR
STARTCHAR u2162
ENCODING 8546
SWIDTH 1000 0
DWIDTH 16 0
BBX 16 16 0 -3
BITMAP
0000
0000
0000
3BB8
1110
1110
1110
1110
1110
1110
1110
1110
1110
3BB8
0000
0000
ENDCHAR
STARTCHAR u2163
ENCODING 8547
SWIDTH 1000 0
DWIDTH 16 0
BBX 16 16 0 -3
BITMAP
0000
0000
0000
3E38
1410
1410
1220
1220
1220
1140
1140
1140
1080
3880
0000
0000
ENDCHAR
STARTCHAR u2164
ENCODING 8548
SWIDTH 1000 0
DWIDTH 16 0
BBX 16 16 0 -3
BITMAP
0000
0000
0000
1C70
0820
0820
0440
0440
0440
0280
0280
0280
0100
0100
0000
0000
ENDCHAR
STARTCHAR u2165
ENCODING 8549
SWIDTH 1000 0
DWIDTH 16 0
BBX 16 16 0 -3
BITMAP
0000
0000
0000
38F8
1050
1050
0890
0890
0890
0510
0510
0510
0210
0238
0000
0000
ENDCHAR
STARTCHAR u2166
ENCODING 8550
SWIDTH 1000 0
DWIDTH 16 0
BBX 16 16 0 -3
BITMAP
0000
0000
0000
71FC
20A8
20A8
1128
1128
1128
0A28
0A28
0A28
0428
047C
0000
0000
ENDCHAR
STARTCHAR u2167
ENCODING 8551
SWIDTH 1000 0
DWIDTH 16 0
BBX 16 16 0 -3
BITMAP
0000
0000
0000
E3FE
4154
4154
2254
2254
2254
1454
1454
1454
0854
08FE
0000
0000
ENDCHAR
STARTCHAR u2168
ENCODING 8552
SWIDTH 1000 0
DWIDTH 16 0
BBX 16 16 0 -3
BITMAP
0000
0000
0000
3E38
1410
1220
1220
1140
1080
1140
1220
1220
1410
3E38
0000
0000
ENDCHAR
STARTCHAR u2169
ENCODING 8553
SWIDTH 1000 0
DWIDTH 16 0
BBX 16 16 0 -3
BITMAP
0000
0000
0000
1C70
0820
0440
0440
0280
0100
0280
0440
0440
0820
1C70
0000
0000
ENDCHAR
STARTCHAR u216A
ENCODING 8554
SWIDTH 1000 0
DWIDTH 16 0
BBX 16 16 0 -3
BITMAP
0000
0000
0000
38F8
1050
0890
0890
0510
0210
0510
0890
0890
1050
38F8
0000
0000
ENDCHAR
STARTCHAR u216B
ENCODING 8555
SWIDTH 1000 0
DWIDTH 16 0
BBX 16 16 0 -3
BITMAP
0000
0000
0000
71FC
20A8
1128
1128
0A28
0428
0A28
1128
1128
20A8
71FC
0000
0000
ENDCHAR
STARTCHAR u216C
ENCODING 8556
SWIDTH 1000 0
DWIDTH 16 0
BBX 16 16 0 -3
BITMAP
0000
0000
0000
0400
0400
0400
0400
0400
0400
0400
0400
0400
0400
07E0
0000
0000
ENDCHAR
STARTCHAR u216D
ENCODING 8557
SWIDTH 1000 0
DWIDTH 16 0
BBX 16 16 0 -3
BITMAP
0000
0000
0000
03C0
0420
0800
0800
0800
0800
0800
0800
0800
0420
03C0
0000
0000
ENDCHAR
STARTCHAR u216E
ENCODING 8558
SWIDTH 1000 0
DWIDTH 16 0
BBX 16 16 0 -3
BITMAP
0000
0000
0000
0F80
0840
0820
0820
0820
0820
0820
0820
0820
0840
0F80
0000
0000
ENDCHAR
STARTCHAR u216F
ENCODING 8559
SWIDTH 1000 0
DWIDTH 16 0
BBX 16 16 0 -3
BITMAP
0000
0000
0000
1010
1010
1830
1830
1450
1450
1290
1290
1110
1110
1110
0000
0000
ENDCHAR
STARTCHAR u2170
ENCODING 8560
SWIDTH 1000 0
DWIDTH 16 0
BBX 16 16 0 -3
BITMAP
0000
0000
0000
0100
0000
0000
0100
0100
0100
0100
0100
0100
0100
0100
0000
0000
ENDCHAR
STARTCHAR u2171
ENCODING 8561
SWIDTH 1000 0
DWIDTH 16 0
BBX 16 16 0 -3
BITMAP
0000
0000
0000
0440
0000
0000
0440
0440
0440
0440
0440
0440
0440
0440
0000
0000
ENDCHAR
STARTCHAR u2172
ENCODING 8562
SWIDTH 1000 0
DWIDTH 16 0
BBX 16 16 0 -3
BITMAP
0000
0000
0000
1110
0000
0000
1110
1110
1110
1110
1110
1110
1110
1110
0000
0000
ENDCHAR
STARTCHAR u2173
ENCODING 8563
SWIDTH 1000 0
DWIDTH 16 0
BBX 16 16 0 -3
BITMAP
0000
0000
0000
1000
0000
0000
1410
1410
1220
1220
1140
1140
1080
1080
0000
0000
ENDCHAR
STARTCHAR u2174
ENCODING 8564
SWIDTH 1000 0
DWIDTH 16 0
BBX 16 16 0 -3
BITMAP
0000
0000
0000
0000
0000
0000
0820
0820
0440
0440
0280
0280
0100
0100
0000
0000
ENDCHAR
STARTCHAR u2175
ENCODING 8565
SWIDTH 1000 0
DWIDTH 16 0
BBX 16 16 0 -3
BITMAP
0000
0000
0000
0010
0000
0000
1050
1050
0890
0890
0510
0510
0210
0210
0000
0000
ENDCHAR
STARTCHAR u2176
ENCODING 8566
SWIDTH 1000 0
DWIDTH 16 0
BBX 16 16 0 -3
BITMAP
0000
0000
0000
0028
0000
0000
20A8
20A8
1128
1128
0A28
0A28
0428
0428
0000
0000
ENDCHAR
STARTCHAR u2177
ENCODING 8567
SWIDTH 1000 0
DWIDTH 16 0
BBX 16 16 0 -3
BITMAP
0000
0000
0000
0054
0000
0000
4154
4154
2254
2254
1454
1454
0854
0854
0000
0000
ENDCHAR
STARTCHAR u2178
ENCODING 8568
SWIDTH 1000 0
DWIDTH 16 0
BBX 16 16 0 -3
BITMAP
0000
0000
0000
1000
0000
0000
1410
1220
1140
1080
1080
1140
1220
1410
0000
0000
ENDCHAR
STARTCHAR u2179
ENCODING 8569
SWIDTH 1000 0
DWIDTH 16 0
BBX 16 16 0 -3
BITMAP
0000
0000
0000
0000
0000
0000
0820
0440
0280
0100
0100
0280
0440
0820
0000
0000
ENDCHAR
STARTCHAR u217A
ENCODING 8570
SWIDTH 1000 0
DWIDTH 16 0
BBX 16 16 0 -3
BITMAP
0000
0000
0000
0010
0000
0000
1050
0890
0510
0210
0210
0510
0890
1050
0000
0000
ENDCHAR
STARTCHAR u217B
ENCODING 8571
SWIDTH 1000 0
DWIDTH 16 0
BBX 16 16 0 -3
BITMAP
0000
0000
0000
0028
0000
0000
20A8
1128
0A28
0428
0428
0A28
1128
20A8
0000
0000
ENDCHAR
STARTCHAR u217C
ENCODING 8572
SWIDTH 1000 0
DWIDTH 16 0
BBX 16 16 0 -3
BITMAP
0000
0000
0000
0300
0100
0100
0100
0100
0100
0100
0100
0100
0100
0180
0000
0000
ENDCHAR
STARTCHAR u217D
ENCODING 8573
SWIDTH 1000 0
DWIDTH 16 0
BBX 16 16 0 -3
BITMAP
0000
0000
0000
0000
0000
0000
03C0
0420
0400
0400
0400
0400
0420
03C0
0000
0000
ENDCHAR
STARTCHAR u217E
ENCODING 8574
SWIDTH 1000 0
DWIDTH 16 0
BBX 16 16 0 -3
BITMAP
0000
0000
0000
0020
0020
0020
03E0
0420
0420
0420
0420
0420
0420
03E0
0000
0000
ENDCHAR
STARTCHAR u217F
ENCODING 8575
SWIDTH 1000 0
DWIDTH 16 0
BBX 16 16 0 -3
BITMAP
0000
0000
0000
0000
0000
0000
16E0
1910
1110
1110
1110
1110
1110
1110
0000
0000
ENDCHAR
STARTCHAR u2180
ENCODING 8576
SWIDTH 1000 0
DWIDTH 16 0
BBX 16 16 0 -3
BITMAP
0000
0000
0000
1FF0
2108
4104
4104
4104
4104
4104
4104
4104
2108
1FF0
0000
0000
ENDCHAR
STARTCHAR u2181
ENCODING 8577
SWIDTH 1000 0
DWIDTH 16 0
BBX 16 16 0 -3
BITMAP
0000
0000
0000
0F80
0840
0820
0E20
0920
0920
0920
0E20
0820
0840
0F80
0000
0000
ENDCHAR
STARTCHAR u2182
ENCODING 8578
SWIDTH 1000 0
DWIDTH 16 0
BBX 16 16 0 -3
BITMAP
0000
0000
0000
1FF0
2108
4104
47C4
4924
4924
4924
47C4
4104
2108
1FF0
0000
0000
ENDCHAR
STARTCHAR u2183
ENCODING 8579
SWIDTH 1000 0
DWIDTH 16 0
BBX 16 16 0 -3
BITMAP
0000
0000
0000
0780
0840
0020
0020
0020
0020
0020
0020
0020
0840
0780
0000
0000
ENDCHAR
STARTCHAR u2184
ENCODING 8580
SWIDTH 1000 0
DWIDTH 16 0
BBX 16 16 0 -3
BITMAP
0000
0000
0000
0000
0000
0000
03C0
0420
0020
0020
0020
0020
0420
03C0
0000
0000
ENDCHAR
STARTCHAR u2185
ENCODING 8581
SWIDTH 1000 0
DWIDTH 16 0
BBX 16 16 0 -3
BITMAP
0000
0000
0000
03C0
0420
0800
0800
0800
0800
0800
0800
0820
0460
03A0
0020
0000
ENDCHAR
STARTCHAR u2186
ENCODING 8582
SWIDTH 1000 0
DWIDTH 16 0
BBX 16 16 0 -3
BITMAP
0000
0000
0000
0100
0100
0100
0100
0100
0100
1110
0920
0540
0380
0100
0000
0000
ENDCHAR
STARTCHAR u2187
ENCODING 8583
SWIDTH 1000 0
DWIDTH 16 0
BBX 16 16 0 -3
BITMAP
0000
0000
0000
0F80
0840
0E20
0920
0CA0
0AA0
0CA0
0920
0E20
0840
0F80
0000
0000
ENDCHAR
STARTCHAR u2188
ENCODING 8584
SWIDTH 1000 0
DWIDTH 16 0
BBX 16 16 0 -3
BITMAP
0000
0000
0000
1FF0
2108
47C4
4924
5394
5554
5394
4924
47C4
2108
1FF0
0000
0000
ENDCHAR
STARTCHAR u2189
ENCODING 8585
SWIDTH 1000 0
DWIDTH 16 0
BBX 16 16 0 -3
BITMAP
0000
3802
4404
4C08
5410
6420
4440
3880
0100
0238
0444
0804
1018
2004
4044
8038
ENDCHAR
STARTCHAR u218A
ENCODING 8586
SWIDTH 1000 0
DWIDTH 16 0
BBX 16 16 0 -3
BITMAP
0000
0000
0000
07E0
0020
0040
0080
0100
0200
0400
0400
0400
0420
03C0
0000
0000
ENDCHAR
STARTCHAR u218B
ENCODING 8587
SWIDTH 1000 0
DWIDTH 16 0
BBX 16 16 0 -3
BITMAP
0000
0000
0000
03C0
0420
0400
0400
0400
0380
0400
0400
0400
0420
03C0
0000
0000
ENDCHAR
STARTCHAR u2190
ENCODING 8592
SWIDTH 1000 0
DWIDTH 16 0
BBX 16 16 0 -3
BITMAP
0000
0000
0000
0000
0000
0800
1000
2000
7FFC
2000
1000
0800
0000
0000
0000
0000
ENDCHAR
STARTCHAR u2191
ENCODING 8593
SWIDTH 1000 0
DWIDTH 16 0
BBX 16 16 0 -3
BITMAP
0000
0000
0100
0380
0540
0920
0100
0100
0100
0100
0100
0100
0100
0100
0100
0000
ENDCHAR
STARTCHAR u2192
ENCODING 8594
SWIDTH 1000 0
DWIDTH 16 0
BBX 16 16 0 -3
BITMAP
0000
0000
0000
0000
0000
0020
0010
0008
7FFC
0008
0010
0020
0000
0000
0000
0000
ENDCHAR
STARTCHAR u2193
ENCODING 8595
SWIDTH 1000 0
DWIDTH 16 0
BBX 16 16 0 -3
BITMAP
0000
0000
0100
0100
0100
0100
0100
0100
0100
0100
0100
0920
0540
0380
0100
0000
ENDCHAR
STARTCHAR u2194
ENCODING 8596
SWIDTH 1000 0
DWIDTH 16 0
BBX 16 16 0 -3
BITMAP
0000
0000
0000
0000
0000
1010
2008
4004
FFFE
4004
2008
1010
0000
0000
0000
0000
ENDCHAR
STARTCHAR u2195
ENCODING 8597
SWIDTH 1000 0
DWIDTH 16 0
BBX 16 16 0 -3
BITMAP
0000
0100
0380
0540
0920
0100
0100
0100
0100
0100
0100
0100
0920
0540
0380
0100
ENDCHAR
STARTCHAR u2196
ENCODING 8598
SWIDTH 1000 0
DWIDTH 16 0
BBX 16 16 0 -3
BITMAP
0000
0000
0000
3F00
3000
2800
2400
2200
2100
0080
0040
0020
0010
0008
0000
0000
ENDCHAR
STARTCHAR u2197
ENCODING 8599
SWIDTH 1000 0
DWIDTH 16 0
BBX 16 16 0 -3
BITMAP
0000
0000
0000
01F8
0018
0028
0048
0088
0108
0200
0400
0800
1000
2000
0000
0000
ENDCHAR
STARTCHAR u2198
ENCODING 8600
SWIDTH 1000 0
DWIDTH 16 0
BBX 16 16 0 -3
BITMAP
0000
0000
0000
2000
1000
0800
0400
0200
0108
0088
0048
0028
0018
01F8
0000
0000
ENDCHAR
STARTCHAR u2199
ENCODING 8601
SWIDTH 1000 0
DWIDTH 16 0
BBX 16 16 0 -3
BITMAP
0000
0000
0000
0008
0010
0020
0040
0080
2100
2200
2400
2800
3000
3F00
0000
0000
ENDCHAR
STARTCHAR u219A
ENCODING 8602
SWIDTH 1000 0
DWIDTH 16 0
BBX 16 16 0 -3
BITMAP
0000
0000
0000
0000
0010
1010
2010
4020
FFFE
4020
2040
1040
0040
0000
0000
0000
ENDCHAR
STARTCHAR u219B
ENCODING 8603
SWIDTH 1000 0
DWIDTH 16 0
BBX 16 16 0 -3
BITMAP
0000
0000
0000
0000
0400
0410
0408
0804
FFFE
0804
1008
1010
1000
0000
0000
0000
ENDCHAR
STARTCHAR u219C
ENCODING 8604
SWIDTH 1000 0
DWIDTH 16 0
BBX 16 16 0 -3
BITMAP
0000
0000
0000
0000
0000
7C00
6060
5090
4908
4604
0000
0000
0000
0000
0000
0000
ENDCHAR
STARTCHAR u219D
ENCODING 8605
SWIDTH 1000 0
DWIDTH 16 0
BBX 16 16 0 -3
BITMAP
0000
0000
0000
0000
0000
007C
0C0C
1214
2124
40C4
0000
0000
0000
0000
0000
0000
ENDCHAR
STARTCHAR u219E
ENCODING 8606
SWIDTH 1000 0
DWIDTH 16 0
BBX 16 16 0 -3
BITMAP
0000
0000
0000
0000
0000
0900
1200
2400
7FFC
2400
1200
0900
0000
0000
0000
0000
ENDCHAR
STARTCHAR u219F
ENCODING 8607
SWIDTH 1000 0
DWIDTH 16 0
BBX 16 16 0 -3
BITMAP
0000
0000
0100
0380
0540
0920
0380
0540
0920
0100
0100
0100
0100
0100
0100
0000
ENDCHAR
STARTCHAR u21A0
ENCODING 8608
SWIDTH 1000 0
DWIDTH 16 0
BBX 16 16 0 -3
BITMAP
0000
0000
0000
0000
0000
0120
0090
0048
7FFC
0048
0090
0120
0000
0000
0000
0000
ENDCHAR
STARTCHAR u21A1
ENCODING 8609
SWIDTH 1000 0
DWIDTH 16 0
BBX 16 16 0 -3
BITMAP
0000
0000
0100
0100
0100
0100
0100
0100
0920
0540
0380
0920
0540
0380
0100
0000
ENDCHAR
STARTCHAR u21A2
ENCODING 8610
SWIDTH 1000 0
DWIDTH 16 0
BBX 16 16 0 -3
BITMAP
0000
0000
0000
0000
0000
0804
1008
2010
7FE0
2010
1008
0804
0000
0000
0000
0000
ENDCHAR
STARTCHAR u21A3
ENCODING 8611
SWIDTH 1000 0
DWIDTH 16 0
BBX 16 16 0 -3
BITMAP
0000
0000
0000
0000
0000
4020
2010
1008
0FFC
1008
2010
4020
0000
0000
0000
0000
ENDCHAR
STARTCHAR u21A4
ENCODING 8612
SWIDTH 1000 0
DWIDTH 16 0
BBX 16 16 0 -3
BITMAP
0000
0000
0000
0000
0000
0804
1004
2004
7FFC
2004
1004
0804
0000
0000
0000
0000
ENDCHAR
STARTCHAR u21A5
ENCODING 8613
SWIDTH 1000 0
DWIDTH 16 0
BBX 16 16 0 -3
BITMAP
0000
0000
0100
0380
0540
0920
0100
0100
0100
0100
0100
0100
0100
0100
0FE0
0000
ENDCHAR
STARTCHAR u21A6
ENCODING 8614
SWIDTH 1000 0
DWIDTH 16 0
BBX 16 16 0 -3
BITMAP
0000
0000
0000
0000
0000
4020
4010
4008
7FFC
4008
4010
4020
0000
0000
0000
0000
ENDCHAR
STARTCHAR u21A7
ENCODING 8615
SWIDTH 1000 0
DWIDTH 16 0
BBX 16 16 0 -3
BITMAP
0000
0000
0FE0
0100
0100
0100
0100
0100
0100
0100
0100
0920
0540
0380
0100
0000
ENDCHAR
STARTCHAR u21A8
ENCODING 8616
SWIDTH 1000 0
DWIDTH 16 0
BBX 16 16 0 -3
BITMAP
0000
0100
0380
0540
0920
0100
0100
0100
0100
0100
0920
0540
0380
0100
0000
0FE0
ENDCHAR
STARTCHAR u21A9
ENCODING 8617
SWIDTH 1000 0
DWIDTH 16 0
BBX 16 16 0 -3
BITMAP
0000
0000
0FC0
0020
0010
0008
0008
0008
0008
0408
0810
1020
3FC0
1000
0800
0400
ENDCHAR
STARTCHAR u21AA
ENCODING 8618
SWIDTH 1000 0
DWIDTH 16 0
BBX 16 16 0 -3
BITMAP
0000
0000
07E0
0800
1000
2000
2000
2000
2000
2040
1020
0810
07F8
0010
0020
0040
ENDCHAR
STARTCHAR u21AB
ENCODING 8619
SWIDTH 1000 0
DWIDTH 16 0
BBX 16 16 0 -3
BITMAP
0000
0000
0000
0000
0038
0844
1044
2044
7FF8
2040
1040
0840
0000
0000
0000
0000
ENDCHAR
STARTCHAR u21AC
ENCODING 8620
SWIDTH 1000 0
DWIDTH 16 0
BBX 16 16 0 -3
BITMAP
0000
0000
0000
0000
3800
4420
4410
4408
3FFC
0408
0410
0420
0000
0000
0000
0000
ENDCHAR
STARTCHAR u21AD
ENCODING 8621
SWIDTH 1000 0
DWIDTH 16 0
BBX 16 16 0 -3
BITMAP
0000
0000
0000
0000
0000
1010
2008
4104
FABE
4444
2008
1010
0000
0000
0000
0000
ENDCHAR
STARTCHAR u21AE
ENCODING 8622
SWIDTH 1000 0
DWIDTH 16 0
BBX 16 16 0 -3
BITMAP
0000
0000
0000
0000
0080
1090
2088
4104
FFFE
4104
2208
1210
0200
0000
0000
0000
ENDCHAR
STARTCHAR u21AF
ENCODING 8623
SWIDTH 1000 0
DWIDTH 16 0
BBX 16 16 0 -3
BITMAP
0000
0000
0800
0800
0880
0980
0A80
0C80
0880
0080
0080
0490
02A0
01C0
0080
0000
ENDCHAR
STARTCHAR u21B0
ENCODING 8624
SWIDTH 1000 0
DWIDTH 16 0
BBX 16 16 0 -3
BITMAP
0000
1000
2000
4000
FFFC
4004
2004
1004
0004
0004
0004
0004
0004
0004
0004
0004
ENDCHAR
STARTCHAR u21B1
ENCODING 8625
SWIDTH 1000 0
DWIDTH 16 0
BBX 16 16 0 -3
BITMAP
0000
0010
0008
0004
7FFE
4004
4008
4010
4000
4000
4000
4000
4000
4000
4000
4000
ENDCHAR
STARTCHAR u21B2
ENCODING 8626
SWIDTH 1000 0
DWIDTH 16 0
BBX 16 16 0 -3
BITMAP
0000
0004
0004
0004
0004
0004
0004
0004
0004
1004
2004
4004
FFFC
4000
2000
1000
ENDCHAR
STARTCHAR u21B3
ENCODING 8627
SWIDTH 1000 0
DWIDTH 16 0
BBX 16 16 0 -3
BITMAP
0000
4000
4000
4000
4000
4000
4000
4000
4000
4010
4008
4004
7FFE
0004
0008
0010
ENDCHAR
STARTCHAR u21B4
ENCODING 8628
SWIDTH 1000 0
DWIDTH 16 0
BBX 16 16 0 -3
BITMAP
0000
0000
0000
0000
FFF0
0010
0010
0010
0010
0092
0054
0038
0010
0000
0000
0000
ENDCHAR
STARTCHAR u21B5
ENCODING 8629
SWIDTH 1000 0
DWIDTH 16 0
BBX 16 16 0 -3
BITMAP
0000
0000
0000
0000
0002
0002
1002
2002
4002
FFFE
4000
2000
1000
0000
0000
0000
ENDCHAR
STARTCHAR u21B6
ENCODING 8630
SWIDTH 1000 0
DWIDTH 16 0
BBX 16 16 0 -3
BITMAP
0000
0000
0000
03E0
0410
0808
1004
1004
1004
1004
9204
5404
3800
1000
0000
0000
ENDCHAR
STARTCHAR u21B7
ENCODING 8631
SWIDTH 1000 0
DWIDTH 16 0
BBX 16 16 0 -3
BITMAP
0000
0000
0000
0F80
1040
2020
4010
4010
4010
4010
4092
4054
0038
0010
0000
0000
ENDCHAR
STARTCHAR u21B8
ENCODING 8632
SWIDTH 1000 0
DWIDTH 16 0
BBX 16 16 0 -3
BITMAP
0000
0000
7FFC
0000
3F00
3000
2800
2400
2200
2100
0080
0040
0020
0010
0008
0000
ENDCHAR
STARTCHAR u21B9
ENCODING 8633
SWIDTH 1000 0
DWIDTH 16 0
BBX 16 16 0 -3
BITMAP
0000
0000
8800
9000
A000
FFFE
A000
9000
8822
0012
000A
FFFE
000A
0012
0022
0000
ENDCHAR
STARTCHAR u21BA
ENCODING 8634
SWIDTH 1000 0
DWIDTH 16 0
BBX 16 16 0 -3
BITMAP
0000
0000
007C
0860
1050
2048
2048
4004
4004
4004
2008
2008
1010
0C60
0380
0000
ENDCHAR
STARTCHAR u21BB
ENCODING 8635
SWIDTH 1000 0
DWIDTH 16 0
BBX 16 16 0 -3
BITMAP
0000
0000
7C00
0C20
1410
2408
2408
4004
4004
4004
2008
2008
1010
0C60
0380
0000
ENDCHAR
STARTCHAR u21BC
ENCODING 8636
SWIDTH 1000 0
DWIDTH 16 0
BBX 16 16 0 -3
BITMAP
0000
0000
0000
0000
0000
0800
1000
2000
7FFC
0000
0000
0000
0000
0000
0000
0000
ENDCHAR
STARTCHAR u21BD
ENCODING 8637
SWIDTH 1000 0
DWIDTH 16 0
BBX 16 16 0 -3
BITMAP
0000
0000
0000
0000
0000
0000
0000
0000
7FFC
2000
1000
0800
0000
0000
0000
0000
ENDCHAR
STARTCHAR u21BE
ENCODING 8638
SWIDTH 1000 0
DWIDTH 16 0
BBX 16 16 0 -3
BITMAP
0000
0000
0100
0180
0140
0120
0100
0100
0100
0100
0100
0100
0100
0100
0100
0000
ENDCHAR
STARTCHAR u21BF
ENCODING 8639
SWIDTH 1000 0
DWIDTH 16 0
BBX 16 16 0 -3
BITMAP
0000
0000
0100
0300
0500
0900
0100
0100
0100
0100
0100
0100
0100
0100
0100
0000
ENDCHAR
STARTCHAR u21C0
ENCODING 8640
SWIDTH 1000 0
DWIDTH 16 0
BBX 16 16 0 -3
BITMAP
0000
0000
0000
0000
0000
0020
0010
0008
7FFC
0000
0000
0000
0000
0000
0000
0000
ENDCHAR
STARTCHAR u21C1
ENCODING 8641
SWIDTH 1000 0
DWIDTH 16 0
BBX 16 16 0 -3
BITMAP
0000
0000
0000
0000
0000
0000
0000
0000
7FFC
0008
0010
0020
0000
0000
0000
0000
ENDCHAR
STARTCHAR u21C2
ENCODING 8642
SWIDTH 1000 0
DWIDTH 16 0
BBX 16 16 0 -3
BITMAP
0000
0000
0100
0100
0100
0100
0100
0100
0100
0100
0100
0120
0140
0180
0100
0000
ENDCHAR
STARTCHAR u21C3
ENCODING 8643
SWIDTH 1000 0
DWIDTH 16 0
BBX 16 16 0 -3
BITMAP
0000
0000
0100
0100
0100
0100
0100
0100
0100
0100
0100
0900
0500
0300
0100
0000
ENDCHAR
STARTCHAR u21C4
ENCODING 8644
SWIDTH 1000 0
DWIDTH 16 0
BBX 16 16 0 -3
BITMAP
0000
0000
0020
0010
0008
7FFC
0008
0010
0820
1000
2000
7FFC
2000
1000
0800
0000
ENDCHAR
STARTCHAR u21C5
ENCODING 8645
SWIDTH 1000 0
DWIDTH 16 0
BBX 16 16 0 -3
BITMAP
0000
0000
0820
1C20
2A20
4920
0820
0820
0820
0820
0820
0924
08A8
0870
0820
0000
ENDCHAR
STARTCHAR u21C6
ENCODING 8646
SWIDTH 1000 0
DWIDTH 16 0
BBX 16 16 0 -3
BITMAP
0000
0000
0800
1000
2000
7FFC
2000
1000
0820
0010
0008
7FFC
0008
0010
0020
0000
ENDCHAR
STARTCHAR u21C7
ENCODING 8647
SWIDTH 1000 0
DWIDTH 16 0
BBX 16 16 0 -3
BITMAP
0000
0000
0800
1000
2000
7FFC
2000
1000
0800
1000
2000
7FFC
2000
1000
0800
0000
ENDCHAR
STARTCHAR u21C8
ENCODING 8648
SWIDTH 1000 0
DWIDTH 16 0
BBX 16 16 0 -3
BITMAP
0000
0000
0820
1C70
2AA8
4924
0820
0820
0820
0820
0820
0820
0820
0820
0820
0000
ENDCHAR
STARTCHAR u21C9
ENCODING 8649
SWIDTH 1000 0
DWIDTH 16 0
BBX 16 16 0 -3
BITMAP
0000
0000
0020
0010
0008
7FFC
0008
0010
0020
0010
0008
7FFC
0008
0010
0020
0000
ENDCHAR
STARTCHAR u21CA
ENCODING 8650
SWIDTH 1000 0
DWIDTH 16 0
BBX 16 16 0 -3
BITMAP
0000
0000
0820
0820
0820
0820
0820
0820
0820
0820
0820
4924
2AA8
1C70
0820
0000
ENDCHAR
STARTCHAR u21CB
ENCODING 8651
SWIDTH 1000 0
DWIDTH 16 0
BBX 16 16 0 -3
BITMAP
0000
0000
0000
0800
1000
2000
7FFC
0000
0000
7FFC
0008
0010
0020
0000
0000
0000
ENDCHAR
STARTCHAR u21CC
ENCODING 8652
SWIDTH 1000 0
DWIDTH 16 0
BBX 16 16 0 -3
BITMAP
0000
0000
0000
0020
0010
0008
7FFC
0000
0000
7FFC
2000
1000
0800
0000
0000
0000
ENDCHAR
STARTCHAR u21CD
ENCODING 8653
SWIDTH 1000 0
DWIDTH 16 0
BBX 16 16 0 -3
BITMAP
0000
0000
0000
0000
0420
0820
1040
3FFC
4040
3FFC
1040
0880
0480
0000
0000
0000
ENDCHAR
STARTCHAR u21CE
ENCODING 8654
SWIDTH 1000 0
DWIDTH 16 0
BBX 16 16 0 -3
BITMAP
0000
0000
0000
0000
08A0
1090
2108
7FFC
8102
7FFC
2108
1210
0A20
0000
0000
0000
ENDCHAR
STARTCHAR u21CF
ENCODING 8655
SWIDTH 1000 0
DWIDTH 16 0
BBX 16 16 0 -3
BITMAP
0000
0000
0000
0000
0240
0220
0410
7FF8
0404
7FF8
0410
0820
0840
0000
0000
0000
ENDCHAR
STARTCHAR u21D0
ENCODING 8656
SWIDTH 1000 0
DWIDTH 16 0
BBX 16 16 0 -3
BITMAP
0000
0000
0000
0000
0400
0800
1000
3FFC
4000
3FFC
1000
0800
0400
0000
0000
0000
ENDCHAR
STARTCHAR u21D1
ENCODING 8657
SWIDTH 1000 0
DWIDTH 16 0
BBX 16 16 0 -3
BITMAP
0000
0000
0100
0280
06C0
0AA0
1290
0280
0280
0280
0280
0280
0280
0280
0280
0000
ENDCHAR
STARTCHAR u21D2
ENCODING 8658
SWIDTH 1000 0
DWIDTH 16 0
BBX 16 16 0 -3
BITMAP
0000
0000
0000
0000
0040
0020
0010
7FF8
0004
7FF8
0010
0020
0040
0000
0000
0000
ENDCHAR
STARTCHAR u21D3
ENCODING 8659
SWIDTH 1000 0
DWIDTH 16 0
BBX 16 16 0 -3
BITMAP
0000
0000
0280
0280
0280
0280
0280
0280
0280
0280
1290
0AA0
06C0
0280
0100
0000
ENDCHAR
STARTCHAR u21D4
ENCODING 8660
SWIDTH 1000 0
DWIDTH 16 0
BBX 16 16 0 -3
BITMAP
0000
0000
0000
0000
0820
1010
2008
7FFC
8002
7FFC
2008
1010
0820
0000
0000
0000
ENDCHAR
STARTCHAR u21D5
ENCODING 8661
SWIDTH 1000 0
DWIDTH 16 0
BBX 16 16 0 -3
BITMAP
0000
0100
0280
06C0
0AA0
1290
0280
0280
0280
0280
0280
1290
0AA0
06C0
0280
0100
ENDCHAR
STARTCHAR u21D6
ENCODING 8662
SWIDTH 1000 0
DWIDTH 16 0
BBX 16 16 0 -3
BITMAP
0000
0000
0000
3F80
2800
3400
2A00
2500
2280
2140
00A0
0050
0028
0010
0000
0000
ENDCHAR
STARTCHAR u21D7
ENCODING 8663
SWIDTH 1000 0
DWIDTH 16 0
BBX 16 16 0 -3
BITMAP
0000
0000
0000
03F8
0028
0058
00A8
0148
0288
0508
0A00
1400
2800
1000
0000
0000
ENDCHAR
STARTCHAR u21D8
ENCODING 8664
SWIDTH 1000 0
DWIDTH 16 0
BBX 16 16 0 -3
BITMAP
0000
0000
0000
1000
2800
1400
0A00
0508
0288
0148
00A8
0058
0028
03F8
0000
0000
ENDCHAR
STARTCHAR u21D9
ENCODING 8665
SWIDTH 1000 0
DWIDTH 16 0
BBX 16 16 0 -3
BITMAP
0000
0000
0000
0010
0028
0050
00A0
2140
2280
2500
2A00
3400
2800
3F80
0000
0000
ENDCHAR
STARTCHAR u21DA
ENCODING 8666
SWIDTH 1000 0
DWIDTH 16 0
BBX 16 16 0 -3
BITMAP
0000
0000
0000
0000
0400
0800
1FFC
2000
7FFC
2000
1FFC
0800
0400
0000
0000
0000
ENDCHAR
STARTCHAR u21DB
ENCODING 8667
SWIDTH 1000 0
DWIDTH 16 0
BBX 16 16 0 -3
BITMAP
0000
0000
0000
0000
0040
0020
7FF0
0008
7FFC
0008
7FF0
0020
0040
0000
0000
0000
ENDCHAR
STARTCHAR u21DC
ENCODING 8668
SWIDTH 1000 0
DWIDTH 16 0
BBX 16 16 0 -3
BITMAP
0000
0000
0000
0000
0000
0800
1000
2020
7C54
2288
1100
0800
0000
0000
0000
0000
ENDCHAR
STARTCHAR u21DD
ENCODING 8669
SWIDTH 1000 0
DWIDTH 16 0
BBX 16 16 0 -3
BITMAP
0000
0000
0000
0000
0000
0020
0010
0808
547C
2288
0110
0020
0000
0000
0000
0000
ENDCHAR
STARTCHAR u21DE
ENCODING 8670
SWIDTH 1000 0
DWIDTH 16 0
BBX 16 16 0 -3
BITMAP
0000
0000
0100
0380
0540
0920
0100
0100
0FE0
0100
0FE0
0100
0100
0100
0100
0000
ENDCHAR
STARTCHAR u21DF
ENCODING 8671
SWIDTH 1000 0
DWIDTH 16 0
BBX 16 16 0 -3
BITMAP
0000
0000
0100
0100
0100
0100
0FE0
0100
0FE0
0100
0100
0920
0540
0380
0100
0000
ENDCHAR
STARTCHAR u21E0
ENCODING 8672
SWIDTH 1000 0
DWIDTH 16 0
BBX 16 16 0 -3
BITMAP
0000
0000
0000
0000
0000
0800
1000
2000
7B6C
2000
1000
0800
0000
0000
0000
0000
ENDCHAR
STARTCHAR u21E1
ENCODING 8673
SWIDTH 1000 0
DWIDTH 16 0
BBX 16 16 0 -3
BITMAP
0000
0000
0100
0380
0540
0920
0000
0100
0100
0000
0100
0100
0000
0100
0100
0000
ENDCHAR
STARTCHAR u21E2
ENCODING 8674
SWIDTH 1000 0
DWIDTH 16 0
BBX 16 16 0 -3
BITMAP
0000
0000
0000
0000
0000
0020
0010
0008
6DBC
0008
0010
0020
0000
0000
0000
0000
ENDCHAR
STARTCHAR u21E3
ENCODING 8675
SWIDTH 1000 0
DWIDTH 16 0
BBX 16 16 0 -3
BITMAP
0000
0000
0100
0100
0000
0100
0100
0000
0100
0100
0000
0920
0540
0380
0100
0000
ENDCHAR
STARTCHAR u21E4
ENCODING 8676
SWIDTH 1000 0
DWIDTH 16 0
BBX 16 16 0 -3
BITMAP
0000
0000
0000
0000
0000
4200
4400
4800
5FFC
4800
4400
4200
0000
0000
0000
0000
ENDCHAR
STARTCHAR u21E5
ENCODING 8677
SWIDTH 1000 0
DWIDTH 16 0
BBX 16 16 0 -3
BITMAP
0000
0000
0000
0000
0000
0084
0044
0024
7FF4
0024
0044
0084
0000
0000
0000
0000
ENDCHAR
STARTCHAR u21E6
ENCODING 8678
SWIDTH 1000 0
DWIDTH 16 0
BBX 16 16 0 -3
BITMAP
0000
0000
0000
0200
0600
0A00
13FC
2004
4004
2004
13FC
0A00
0600
0200
0000
0000
ENDCHAR
STARTCHAR u21E7
ENCODING 8679
SWIDTH 1000 0
DWIDTH 16 0
BBX 16 16 0 -3
BITMAP
0000
0000
0100
0280
0440
0820
1010
3C78
0440
0440
0440
0440
0440
0440
07C0
0000
ENDCHAR
STARTCHAR u21E8
ENCODING 8680
SWIDTH 1000 0
DWIDTH 16 0
BBX 16 16 0 -3
BITMAP
0000
0000
0000
0080
00C0
00A0
7F90
4008
4004
4008
7F90
00A0
00C0
0080
0000
0000
ENDCHAR
STARTCHAR u21E9
ENCODING 8681
SWIDTH 1000 0
DWIDTH 16 0
BBX 16 16 0 -3
BITMAP
0000
0000
07C0
0440
0440
0440
0440
0440
0440
3C78
1010
0820
0440
0280
0100
0000
ENDCHAR
STARTCHAR u21EA
ENCODING 8682
SWIDTH 1000 0
DWIDTH 16 0
BBX 16 16 0 -3
BITMAP
0000
0000
0100
0280
0440
0820
1010
3C78
0440
0440
07C0
0000
07C0
0440
07C0
0000
ENDCHAR
STARTCHAR u21EB
ENCODING 8683
SWIDTH 1000 0
DWIDTH 16 0
BBX 16 16 0 -3
BITMAP
0000
0000
0100
0280
0440
0820
1010
3C78
0440
0440
0440
0440
1C70
1010
1FF0
0000
ENDCHAR
STARTCHAR u21EC
ENCODING 8684
SWIDTH 1000 0
DWIDTH 16 0
BBX 16 16 0 -3
BITMAP
0000
0000
0100
0280
07C0
0820
1010
3C78
0440
0440
0440
0440
1C70
1010
1FF0
0000
ENDCHAR
STARTCHAR u21ED
ENCODING 8685
SWIDTH 1000 0
DWIDTH 16 0
BBX 16 16 0 -3
BITMAP
0000
0000
0100
0380
0540
0920
1110
3D78
0540
0540
0540
0540
1D70
1110
1FF0
0000
ENDCHAR
STARTCHAR u21EE
ENCODING 8686
SWIDTH 1000 0
DWIDTH 16 0
BBX 16 16 0 -3
BITMAP
0000
0000
0100
0280
0540
0AA0
1450
2828
1010
3C78
0440
0440
0440
0440
07C0
0000
ENDCHAR
STARTCHAR u21EF
ENCODING 8687
SWIDTH 1000 0
DWIDTH 16 0
BBX 16 16 0 -3
BITMAP
0000
0000
0100
0280
0540
0AA0
1450
2828
1010
3C78
0440
0440
1C70
1010
1FF0
0000
ENDCHAR
STARTCHAR u21F0
ENCODING 8688
SWIDTH 1000 0
DWIDTH 16 0
BBX 16 16 0 -3
BITMAP
0000
0000
0000
0080
70C0
50A0
5F90
4008
4004
4008
5F90
50A0
70C0
0080
0000
0000
ENDCHAR
STARTCHAR u21F1
ENCODING 8689
SWIDTH 1000 0
DWIDTH 16 0
BBX 16 16 0 -3
BITMAP
0000
0000
7FFC
4000
5F80
5800
5400
5200
5100
5080
4040
4020
4010
4008
4004
0000
ENDCHAR
STARTCHAR u21F2
ENCODING 8690
SWIDTH 1000 0
DWIDTH 16 0
BBX 16 16 0 -3
BITMAP
0000
0000
4004
2004
1004
0804
0404
0214
0114
0094
0054
0034
03F4
0004
7FFC
0000
ENDCHAR
STARTCHAR u21F3
ENCODING 8691
SWIDTH 1000 0
DWIDTH 16 0
BBX 16 16 0 -3
BITMAP
0000
0100
0280
0440
0820
1C70
0440
0440
0440
0440
0440
1C70
0820
0440
0280
0100
ENDCHAR
STARTCHAR u21F4
ENCODING 8692
SWIDTH 1000 0
DWIDTH 16 0
BBX 16 16 0 -3
BITMAP
0000
0000
0000
0000
0000
0020
0E10
1108
7FFC
1108
0E10
0020
0000
0000
0000
0000
ENDCHAR
STARTCHAR u21F5
ENCODING 8693
SWIDTH 1000 0
DWIDTH 16 0
BBX 16 16 0 -3
BITMAP
0000
0000
0820
0870
08A8
0924
0820
0820
0820
0820
0820
4920
2A20
1C20
0820
0000
ENDCHAR
STARTCHAR u21F6
ENCODING 8694
SWIDTH 1000 0
DWIDTH 16 0
BBX 16 16 0 -3
BITMAP
0000
0000
0010
0008
7FFC
0008
0010
0008
7FFC
0008
0010
0008
7FFC
0008
0010
0000
ENDCHAR
STARTCHAR u21F7
ENCODING 8695
SWIDTH 1000 0
DWIDTH 16 0
BBX 16 16 0 -3
BITMAP
0000
0000
0000
0000
0000
0880
1080
2080
7FFC
2080
1080
0880
0000
0000
0000
0000
ENDCHAR
STARTCHAR u21F8
ENCODING 8696
SWIDTH 1000 0
DWIDTH 16 0
BBX 16 16 0 -3
BITMAP
0000
0000
0000
0000
0000
0220
0210
0208
7FFC
0208
0210
0220
0000
0000
0000
0000
ENDCHAR
STARTCHAR u21F9
ENCODING 8697
SWIDTH 1000 0
DWIDTH 16 0
BBX 16 16 0 -3
BITMAP
0000
0000
0000
0000
0000
1110
2108
4104
FFFE
4104
2108
1110
0000
0000
0000
0000
ENDCHAR
STARTCHAR u21FA
ENCODING 8698
SWIDTH 1000 0
DWIDTH 16 0
BBX 16 16 0 -3
BITMAP
0000
0000
0000
0000
0000
0940
1140
2140
7FFC
2140
1140
0940
0000
0000
0000
0000
ENDCHAR
STARTCHAR u21FB
ENCODING 8699
SWIDTH 1000 0
DWIDTH 16 0
BBX 16 16 0 -3
BITMAP
0000
0000
0000
0000
0000
0520
0510
0508
7FFC
0508
0510
0520
0000
0000
0000
0000
ENDCHAR
STARTCHAR u21FC
ENCODING 8700
SWIDTH 1000 0
DWIDTH 16 0
BBX 16 16 0 -3
BITMAP
0000
0000
0000
0000
0000
1290
2288
4284
FFFE
4284
2288
1290
0000
0000
0000
0000
ENDCHAR
STARTCHAR u21FD
ENCODING 8701
SWIDTH 1000 0
DWIDTH 16 0
BBX 16 16 0 -3
BITMAP
0000
0000
0000
0000
0000
0800
1800
2800
4FFC
2800
1800
0800
0000
0000
0000
0000
ENDCHAR
STARTCHAR u21FE
ENCODING 8702
SWIDTH 1000 0
DWIDTH 16 0
BBX 16 16 0 -3
BITMAP
0000
0000
0000
0000
0000
0020
0030
0028
7FE4
0028
0030
0020
0000
0000
0000
0000
ENDCHAR
STARTCHAR u21FF
ENCODING 8703
SWIDTH 1000 0
DWIDTH 16 0
BBX 16 16 0 -3
BITMAP
0000
0000
0000
0000
0000
1010
3018
5014
9FF2
5014
3018
1010
0000
0000
0000
0000
ENDCHAR
STARTCHAR u230C
ENCODING 8972
SWIDTH 1000 0
DWIDTH 16 0
BBX 16 16 0 -3
BITMAP
0000
0000
0000
0000
0000
0000
0000
0000
007C
0000
0100
0100
0100
0100
0100
0000
ENDCHAR
STARTCHAR u230D
ENCODING 8973
SWIDTH 1000 0
DWIDTH 16 0
BBX 16 16 0 -3
BITMAP
0000
0000
0000
0000
0000
0000
0000
0000
7C00
0000
0100
0100
0100
0100
0100
0000
ENDCHAR
STARTCHAR u230E
ENCODING 8974
SWIDTH 1000 0
DWIDTH 16 0
BBX 16 16 0 -3
BITMAP
0000
0000
0100
0100
0100
0100
0100
0000
007C
0000
0000
0000
0000
0000
0000
0000
ENDCHAR
STARTCHAR u230F
ENCODING 8975
SWIDTH 1000 0
DWIDTH 16 0
BBX 16 16 0 -3
BITMAP
0000
0000
0100
0100
0100
0100
0100
0000
7C00
0000
0000
0000
0000
0000
0000
0000
ENDCHAR
STARTCHAR u2310
ENCODING 8976
SWIDTH 1000 0
DWIDTH 16 0
BBX 16 16 0 -3
BITMAP
0000
0000
0000
0000
0000
0000
1FF0
1000
1000
1000
1000
0000
0000
0000
0000
0000
ENDCHAR
STARTCHAR u2311
ENCODING 8977
SWIDTH 1000 0
DWIDTH 16 0
BBX 16 16 0 -3
BITMAP
0000
0000
0000
3838
26C8
2108
1010
1010
0820
1010
1010
2108
26C8
3838
0000
0000
ENDCHAR
STARTCHAR u2312
ENCODING 8978
SWIDTH 1000 0
DWIDTH 16 0
BBX 16 16 0 -3
BITMAP
0000
0000
0000
0000
0000
0380
0C60
1010
2008
2008
4004
4004
0000
0000
0000
0000
ENDCHAR
STARTCHAR u2313
ENCODING 8979
SWIDTH 1000 0
DWIDTH 16 0
BBX 16 16 0 -3
BITMAP
0000
0000
0000
0000
0000
0380
0C60
1010
2008
2008
4004
7FFC
0000
0000
0000
0000
ENDCHAR
STARTCHAR u2314
ENCODING 8980
SWIDTH 1000 0
DWIDTH 16 0
BBX 16 16 0 -3
BITMAP
0000
0000
0380
0C60
1010
2008
1010
1010
0820
0820
0440
0440
0280
0280
0100
0000
ENDCHAR
STARTCHAR u2315
ENCODING 8981
SWIDTH 1000 0
DWIDTH 16 0
BBX 16 16 0 -3
BITMAP
0000
0000
01E0
0210
0408
0804
0804
0804
0804
0408
0610
09E0
1000
2000
4000
0000
ENDCHAR
STARTCHAR u2316
ENCODING 8982
SWIDTH 1000 0
DWIDTH 16 0
BBX 16 16 0 -3
BITMAP
0000
0000
0100
0100
07C0
0920
1110
1110
7FFC
1110
1110
0920
07C0
0100
0100
0000
ENDCHAR
STARTCHAR u2317
ENCODING 8983
SWIDTH 1000 0
DWIDTH 16 0
BBX 16 16 0 -3
BITMAP
0000
0000
0820
0820
0820
7FFC
0820
0820
0820
0820
0820
7FFC
0820
0820
0820
0000
ENDCHAR
STARTCHAR u2318
ENCODING 8984
SWIDTH 1000 0
DWIDTH 16 0
BBX 16 16 0 -3
BITMAP
0000
0000
3838
4444
4444
4444
3FF8
0440
0440
0440
3FF8
4444
4444
4444
3838
0000
ENDCHAR
STARTCHAR u2319
ENCODING 8985
SWIDTH 1000 0
DWIDTH 16 0
BBX 16 16 0 -3
BITMAP
0000
0000
0000
0000
0000
0000
1000
1000
1000
1000
1FF0
0000
0000
0000
0000
0000
ENDCHAR
STARTCHAR u231A
ENCODING 8986
SWIDTH 1000 0
DWIDTH 16 0
BBX 16 16 0 -3
BITMAP
0000
07C0
07C0
07C0
0FE0
1110
1110
1110
11F0
1010
1010
1010
0FE0
07C0
07C0
07C0
ENDCHAR
STARTCHAR u231B
ENCODING 8987
SWIDTH 1000 0
DWIDTH 16 0
BBX 16 16 0 -3
BITMAP
0000
3FF8
1010
1010
1010
1010
0820
0440
0280
07C0
0FE0
1FF0
1FF0
1FF0
1FF0
3FF8
ENDCHAR
STARTCHAR u231C
ENCODING 8988
SWIDTH 1000 0
DWIDTH 16 0
BBX 16 16 0 -3
BITMAP
0000
0000
7F00
4000
4000
4000
4000
4000
4000
0000
0000
0000
0000
0000
0000
0000
ENDCHAR
STARTCHAR u231D
ENCODING 8989
SWIDTH 1000 0
DWIDTH 16 0
BBX 16 16 0 -3
BITMAP
0000
0000
01FC
0004
0004
0004
0004
0004
0004
0000
0000
0000
0000
0000
0000
0000
ENDCHAR
STARTCHAR u231E
ENCODING 8990
SWIDTH 1000 0
DWIDTH 16 0
BBX 16 16 0 -3
BITMAP
0000
0000
0000
0000
0000
0000
0000
0000
4000
4000
4000
4000
4000
4000
7F00
0000
ENDCHAR
STARTCHAR u231F
ENCODING 8991
SWIDTH 1000 0
DWIDTH 16 0
BBX 16 16 0 -3
BITMAP
0000
0000
0000
0000
0000
0000
0000
0000
0004
0004
0004
0004
0004
0004
01FC
0000
ENDCHAR
STARTCHAR u23CE
ENCODING 9166
SWIDTH 1000 0
DWIDTH 16 0
BBX 16 16 0 -3
BITMAP
0000
003E
0022
0022
0022
0422
0C22
1422
27C2
4002
8002
4004
27F8
1400
0C00
0400
ENDCHAR
STARTCHAR u23CF
ENCODING 9167
SWIDTH 1000 0
DWIDTH 16 0
BBX 16 16 0 -3
BITMAP
0000
0000
0000
0000
0100
0380
07C0
0FE0
1FF0
3FF8
0000
3FF8
3FF8
0000
0000
0000
ENDCHAR
STARTCHAR u23E8
ENCODING 9192
SWIDTH 1000 0
DWIDTH 16 0
BBX 16 16 0 -3
BITMAP
0000
0000
0000
0000
0000
0000
0000
0000
0000
08E0
1910
0930
0950
0990
0910
1CE0
ENDCHAR
STARTCHAR u23E9
ENCODING 9193
SWIDTH 1000 0
DWIDTH 16 0
BBX 16 16 0 -3
BITMAP
0000
0000
0000
0000
2080
30C0
38E0
3CF0
3EF8
3CF0
38E0
30C0
2080
0000
0000
0000
ENDCHAR
STARTCHAR u23EA
ENCODING 9194
SWIDTH 1000 0
DWIDTH 16 0
BBX 16 16 0 -3
BITMAP
0000
0000
0000
0000
0208
0618
0E38
1E78
3EF8
1E78
0E38
0618
0208
0000
0000
0000
ENDCHAR
STARTCHAR u23EB
ENCODING 9195
SWIDTH 1000 0
DWIDTH 16 0
BBX 16 16 0 -3
BITMAP
0000
0000
0000
0100
0380
07C0
0FE0
1FF0
0000
0100
0380
07C0
0FE0
1FF0
0000
0000
ENDCHAR
STARTCHAR u23EC
ENCODING 9196
SWIDTH 1000 0
DWIDTH 16 0
BBX 16 16 0 -3
BITMAP
0000
0000
0000
1FF0
0FE0
07C0
0380
0100
0000
1FF0
0FE0
07C0
0380
0100
0000
0000
ENDCHAR
STARTCHAR u23ED
ENCODING 9197
SWIDTH 1000 0
DWIDTH 16 0
BBX 16 16 0 -3
BITMAP
0000
0000
0000
0000
210C
318C
39CC
3DEC
3FFC
3DEC
39CC
318C
210C
0000
0000
0000
ENDCHAR
STARTCHAR u23EE
ENCODING 9198
SWIDTH 1000 0
DWIDTH 16 0
BBX 16 16 0 -3
BITMAP
0000
0000
0000
0000
3084
318C
339C
37BC
3FFC
37BC
339C
318C
3084
0000
0000
0000
ENDCHAR
STARTCHAR u23EF
ENCODING 9199
SWIDTH 1000 0
DWIDTH 16 0
BBX 16 16 0 -3
BITMAP
0000
0000
0000
0000
20D8
30D8
38D8
3CD8
3ED8
3CD8
38D8
30D8
20D8
0000
0000
0000
ENDCHAR
STARTCHAR u23F3
ENCODING 9203
SWIDTH 1000 0
DWIDTH 16 0
BBX 16 16 0 -3
BITMAP
0000
3FF8
1010
1010
1010
1FF0
0FE0
07C0
0380
0540
0920
1110
1FF0
1FF0
1FF0
3FF8
ENDCHAR
STARTCHAR u23F4
ENCODING 9204
SWIDTH 1000 0
DWIDTH 16 0
BBX 16 16 0 -3
BITMAP
0000
0000
0000
0000
0040
00C0
01C0
03C0
07C0
03C0
01C0
00C0
0040
0000
0000
0000
ENDCHAR
STARTCHAR u23F5
ENCODING 9205
SWIDTH 1000 0
DWIDTH 16 0
BBX 16 16 0 -3
BITMAP
0000
0000
0000
0000
0400
0600
0700
0780
07C0
0780
0700
0600
0400
0000
0000
0000
ENDCHAR
STARTCHAR u23F6
ENCODING 9206
SWIDTH 1000 0
DWIDTH 16 0
BBX 16 16 0 -3
BITMAP
0000
0000
0000
0000
0000
0000
0100
0380
07C0
0FE0
1FF0
0000
0000
0000
0000
0000
ENDCHAR
STARTCHAR u23F7
ENCODING 9207
SWIDTH 1000 0
DWIDTH 16 0
BBX 16 16 0 -3
BITMAP
0000
0000
0000
0000
0000
0000
1FF0
0FE0
07C0
0380
0100
0000
0000
0000
0000
0000
ENDCHAR
STARTCHAR u23F8
ENCODING 9208
SWIDTH 1000 0
DWIDTH 16 0
BBX 16 16 0 -3
BITMAP
0000
0000
0000
0000
0000
0C60
0C60
0C60
0C60
0C60
0C60
0C60
0000
0000
0000
0000
ENDCHAR
STARTCHAR u23F9
ENCODING 9209
SWIDTH 1000 0
DWIDTH 16 0
BBX 16 16 0 -3
BITMAP
0000
0000
0000
0000
0000
0FE0
0FE0
0FE0
0FE0
0FE0
0FE0
0FE0
0000
0000
0000
0000
ENDCHAR
STARTCHAR u23FA
ENCODING 9210
SWIDTH 1000 0
DWIDTH 16 0
BBX 16 16 0 -3
BITMAP
0000
0000
0000
0000
0000
0380
07C0
0FE0
0FE0
0FE0
07C0
0380
0000
0000
0000
0000
ENDCHAR
STARTCHAR u23FB
ENCODING 9211
SWIDTH 1000 0
DWIDTH 16 0
BBX 16 16 0 -3
BITMAP
0000
0000
0100
0920
1110
2108
2108
4104
4104
4004
2008
2008
1010
0C60
0380
0000
ENDCHAR
STARTCHAR u23FC
ENCODING 9212
SWIDTH 1000 0
DWIDTH 16 0
BBX 16 16 0 -3
BITMAP
0000
0000
0380
0C60
1010
2108
2108
4104
4104
4104
2108
2108
1010
0C60
0380
0000
ENDCHAR
STARTCHAR u23FD
ENCODING 9213
SWIDTH 1000 0
DWIDTH 16 0
BBX 16 16 0 -3
BITMAP
0000
0000
0000
0100
0100
0100
0100
0100
0100
0100
0100
0100
0100
0100
0000
0000
ENDCHAR
STARTCHAR u23FE
ENCODING 9214
SWIDTH 1000 0
DWIDTH 16 0
BBX 16 16 0 -3
BITMAP
0000
0000
03C0
0F00
1E00
3C00
3C00
7800
7800
7C00
3C00
3E04
1F98
0FF0
03E0
0000
ENDCHAR
STARTCHAR u23FF
ENCODING 9215
SWIDTH 1000 0
DWIDTH 16 0
BBX 16 16 0 -3
BITMAP
0000
0000
0000
001C
0070
01A8
0644
1844
6044
1844
0644
01A8
0070
001C
0000
0000
ENDCHAR
STARTCHAR u2460
ENCODING 9312
SWIDTH 1000 0
DWIDTH 16 0
BBX 16 16 0 -3
BITMAP
0000
07C0
1830
2008
4104
4304
8502
8102
8102
8102
8102
4104
47C4
2008
1830
07C0
ENDCHAR
STARTCHAR u2461
ENCODING 9313
SWIDTH 1000 0
DWIDTH 16 0
BBX 16 16 0 -3
BITMAP
0000
07C0
1830
2008
4384
4444
8042
8042
8082
8102
8202
4404
47C4
2008
1830
07C0
ENDCHAR
STARTCHAR u2462
ENCODING 9314
SWIDTH 1000 0
DWIDTH 16 0
BBX 16 16 0 -3
BITMAP
0000
07C0
1830
2008
4384
4444
8042
8042
8182
8042
8042
4444
4384
2008
1830
07C0
ENDCHAR
STARTCHAR u2463
ENCODING 9315
SWIDTH 1000 0
DWIDTH 16 0
BBX 16 16 0 -3
BITMAP
0000
07C0
1830
2008
4184
4284
8282
8282
8482
8482
87C2
4084
4084
2008
1830
07C0
ENDCHAR
STARTCHAR u2464
ENCODING 9316
SWIDTH 1000 0
DWIDTH 16 0
BBX 16 16 0 -3
BITMAP
0000
07C0
1830
2008
47C4
4404
8402
8402
8782
8042
8042
4444
4384
2008
1830
07C0
ENDCHAR
STARTCHAR u2465
ENCODING 9317
SWIDTH 1000 0
DWIDTH 16 0
BBX 16 16 0 -3
BITMAP
0000
07C0
1830
2008
4384
4444
8402
8402
8782
8442
8442
4444
4384
2008
1830
07C0
ENDCHAR
STARTCHAR u2466
ENCODING 9318
SWIDTH 1000 0
DWIDTH 16 0
BBX 16 16 0 -3
BITMAP
0000
07C0
1830
2008
47C4
4044
8042
8082
8082
8102
8102
4104
4104
2008
1830
07C0
ENDCHAR
STARTCHAR u2467
ENCODING 9319
SWIDTH 1000 0
DWIDTH 16 0
BBX 16 16 0 -3
BITMAP
0000
07C0
1830
2008
4384
4444
8442
8442
8382
8442
8442
4444
4384
2008
1830
07C0
ENDCHAR
STARTCHAR u2468
ENCODING 9320
SWIDTH 1000 0
DWIDTH 16 0
BBX 16 16 0 -3
BITMAP
0000
07C0
1830
2008
4384
4444
8442
8442
83C2
8042
8042
4444
4384
2008
1830
07C0
ENDCHAR
STARTCHAR u2469
ENCODING 9321
SWIDTH 1000 0
DWIDTH 16 0
BBX 16 16 0 -3
BITMAP
0000
07C0
1830
2008
48E4
5914
8912
8932
8952
8992
8912
4914
5CE4
2008
1830
07C0
ENDCHAR
STARTCHAR u246A
ENCODING 9322
SWIDTH 1000 0
DWIDTH 16 0
BBX 16 16 0 -3
BITMAP
0000
07C0
1830
2008
4824
5864
8822
8822
8822
8822
8822
4824
5C74
2008
1830
07C0
ENDCHAR
STARTCHAR u246B
ENCODING 9323
SWIDTH 1000 0
DWIDTH 16 0
BBX 16 16 0 -3
BITMAP
0000
07C0
1830
2008
48E4
5914
8812
8812
8822
8842
8882
4904
5DF4
2008
1830
07C0
ENDCHAR
STARTCHAR u246C
ENCODING 9324
SWIDTH 1000 0
DWIDTH 16 0
BBX 16 16 0 -3
BITMAP
0000
07C0
1830
2008
48E4
5914
8812
8812
8862
8812
8812
4914
5CE4
2008
1830
07C0
ENDCHAR
STARTCHAR u246D
ENCODING 9325
SWIDTH 1000 0
DWIDTH 16 0
BBX 16 16 0 -3
BITMAP
0000
07C0
1830
2008
4864
58A4
88A2
88A2
8922
8922
89F2
4824
5C24
2008
1830
07C0
ENDCHAR
STARTCHAR u246E
ENCODING 9326
SWIDTH 1000 0
DWIDTH 16 0
BBX 16 16 0 -3
BITMAP
0000
07C0
1830
2008
49F4
5904
8902
8902
89E2
8812
8812
4914
5CE4
2008
1830
07C0
ENDCHAR
STARTCHAR u246F
ENCODING 9327
SWIDTH 1000 0
DWIDTH 16 0
BBX 16 16 0 -3
BITMAP
0000
07C0
1830
2008
48E4
5914
8902
8902
89E2
8912
8912
4914
5CE4
2008
1830
07C0
ENDCHAR
STARTCHAR u2470
ENCODING 9328
SWIDTH 1000 0
DWIDTH 16 0
BBX 16 16 0 -3
BITMAP
0000
07C0
1830
2008
49F4
5814
8812
8822
8822
8842
8842
4844
5C44
2008
1830
07C0
ENDCHAR
STARTCHAR u2471
ENCODING 9329
SWIDTH 1000 0
DWIDTH 16 0
BBX 16 16 0 -3
BITMAP
0000
07C0
1830
2008
48E4
5914
8912
8912
88E2
8912
8912
4914
5CE4
2008
1830
07C0
ENDCHAR
STARTCHAR u2472
ENCODING 9330
SWIDTH 1000 0
DWIDTH 16 0
BBX 16 16 0 -3
BITMAP
0000
07C0
1830
2008
48E4
5914
8912
8912
88F2
8812
8812
4914
5CE4
2008
1830
07C0
ENDCHAR
STARTCHAR u2473
ENCODING 9331
SWIDTH 1000 0
DWIDTH 16 0
BBX 16 16 0 -3
BITMAP
0000
07C0
1830
2008
4C64
5294
8292
82B2
84D2
8492
8892
5094
5E64
2008
1830
07C0
ENDCHAR
STARTCHAR u2474
ENCODING 9332
SWIDTH 1000 0
DWIDTH 16 0
BBX 16 16 0 -3
BITMAP
0000
1010
2008
4004
4104
8302
8502
8102
8102
8102
8102
8102
47C4
4004
2008
1010
ENDCHAR
STARTCHAR u2475
ENCODING 9333
SWIDTH 1000 0
DWIDTH 16 0
BBX 16 16 0 -3
BITMAP
0000
1010
2008
4004
4384
8442
8042
8042
8082
8102
8202
8402
47C4
4004
2008
1010
ENDCHAR
STARTCHAR u2476
ENCODING 9334
SWIDTH 1000 0
DWIDTH 16 0
BBX 16 16 0 -3
BITMAP
0000
1010
2008
4004
4384
8442
8042
8042
8182
8042
8042
8442
4384
4004
2008
1010
ENDCHAR
STARTCHAR u2477
ENCODING 9335
SWIDTH 1000 0
DWIDTH 16 0
BBX 16 16 0 -3
BITMAP
0000
1010
2008
4004
4184
8282
8282
8282
8482
8482
87C2
8082
4084
4004
2008
1010
ENDCHAR
STARTCHAR u2478
ENCODING 9336
SWIDTH 1000 0
DWIDTH 16 0
BBX 16 16 0 -3
BITMAP
0000
1010
2008
4004
47C4
8402
8402
8402
8782
8042
8042
8442
4384
4004
2008
1010
ENDCHAR
STARTCHAR u2479
ENCODING 9337
SWIDTH 1000 0
DWIDTH 16 0
BBX 16 16 0 -3
BITMAP
0000
1010
2008
4004
4384
8442
8402
8402
8782
8442
8442
8442
4384
4004
2008
1010
ENDCHAR
STARTCHAR u247A
ENCODING 9338
SWIDTH 1000 0
DWIDTH 16 0
BBX 16 16 0 -3
BITMAP
0000
1010
2008
4004
47C4
8042
8042
8082
8082
8102
8102
8102
4104
4004
2008
1010
ENDCHAR
STARTCHAR u247B
ENCODING 9339
SWIDTH 1000 0
DWIDTH 16 0
BBX 16 16 0 -3
BITMAP
0000
1010
2008
4004
4384
8442
8442
8442
8382
8442
8442
8442
4384
4004
2008
1010
ENDCHAR
STARTCHAR u247C
ENCODING 9340
SWIDTH 1000 0
DWIDTH 16 0
BBX 16 16 0 -3
BITMAP
0000
1010
2008
4004
4384
8442
8442
8442
83C2
8042
8042
8442
4384
4004
2008
1010
ENDCHAR
STARTCHAR u247D
ENCODING 9341
SWIDTH 1000 0
DWIDTH 16 0
BBX 16 16 0 -3
BITMAP
0000
1010
2008
4004
48E4
9912
8912
8932
8952
8992
8912
8912
5CE4
4004
2008
1010
ENDCHAR
STARTCHAR u247E
ENCODING 9342
SWIDTH 1000 0
DWIDTH 16 0
BBX 16 16 0 -3
BITMAP
0000
1010
2008
4004
4824
9862
8822
8822
8822
8822
8822
8822
5C74
4004
2008
1010
ENDCHAR
STARTCHAR u247F
ENCODING 9343
SWIDTH 1000 0
DWIDTH 16 0
BBX 16 16 0 -3
BITMAP
0000
1010
2008
4004
48E4
9912
8812
8812
8822
8842
8882
8902
5DF4
4004
2008
1010
ENDCHAR
STARTCHAR u2480
ENCODING 9344
SWIDTH 1000 0
DWIDTH 16 0
BBX 16 16 0 -3
BITMAP
0000
1010
2008
4004
48E4
9912
8812
8812
8862
8812
8812
8912
5CE4
4004
2008
1010
ENDCHAR
STARTCHAR u2481
ENCODING 9345
SWIDTH 1000 0
DWIDTH 16 0
BBX 16 16 0 -3
BITMAP
0000
1010
2008
4004
4864
98A2
88A2
88A2
8922
8922
89F2
8822
5C24
4004
2008
1010
ENDCHAR
STARTCHAR u2482
ENCODING 9346
SWIDTH 1000 0
DWIDTH 16 0
BBX 16 16 0 -3
BITMAP
0000
1010
2008
4004
49F4
9902
8902
8902
89E2
8812
8812
8912
5CE4
4004
2008
1010
ENDCHAR
STARTCHAR u2483
ENCODING 9347
SWIDTH 1000 0
DWIDTH 16 0
BBX 16 16 0 -3
BITMAP
0000
1010
2008
4004
48E4
9912
8902
8902
89E2
8912
8912
8912
5CE4
4004
2008
1010
ENDCHAR
STARTCHAR u2484
ENCODING 9348
SWIDTH 1000 0
DWIDTH 16 0
BBX 16 16 0 -3
BITMAP
0000
1010
2008
4004
49F4
9812
8812
8822
8822
8842
8842
8842
5C44
4004
2008
1010
ENDCHAR
STARTCHAR u2485
ENCODING 9349
SWIDTH 1000 0
DWIDTH 16 0
BBX 16 16 0 -3
BITMAP
0000
1010
2008
4004
48E4
9912
8912
8912
88E2
8912
8912
8912
5CE4
4004
2008
1010
ENDCHAR
STARTCHAR u2486
ENCODING 9350
SWIDTH 1000 0
DWIDTH 16 0
BBX 16 16 0 -3
BITMAP
0000
1010
2008
4004
48E4
9912
8912
8912
88F2
8812
8812
8912
5CE4
4004
2008
1010
ENDCHAR
STARTCHAR u2487
ENCODING 9351
SWIDTH 1000 0
DWIDTH 16 0
BBX 16 16 0 -3
BITMAP
0000
1010
2008
4004
4C64
9292
8292
82B2
84D2
8492
8892
9092
5E64
4004
2008
1010
ENDCHAR
STARTCHAR u2488
ENCODING 9352
SWIDTH 1000 0
DWIDTH 16 0
BBX 16 16 0 -3
BITMAP
0000
0000
0000
0200
0600
0A00
0200
0200
0200
0200
0200
0230
0FB0
0000
0000
0000
ENDCHAR
STARTCHAR u2489
ENCODING 9353
SWIDTH 1000 0
DWIDTH 16 0
BBX 16 16 0 -3
BITMAP
0000
0000
0000
0F00
1080
0080
0080
0100
0200
0400
0800
1030
1FB0
0000
0000
0000
ENDCHAR
STARTCHAR u248A
ENCODING 9354
SWIDTH 1000 0
DWIDTH 16 0
BBX 16 16 0 -3
BITMAP
0000
0000
0000
0F00
1080
0080
0080
0700
0080
0080
0080
10B0
0F30
0000
0000
0000
ENDCHAR
STARTCHAR u248B
ENCODING 9355
SWIDTH 1000 0
DWIDTH 16 0
BBX 16 16 0 -3
BITMAP
0000
0000
0000
0300
0500
0500
0900
0900
1100
1100
1F80
0130
0130
0000
0000
0000
ENDCHAR
STARTCHAR u248C
ENCODING 9356
SWIDTH 1000 0
DWIDTH 16 0
BBX 16 16 0 -3
BITMAP
0000
0000
0000
1F80
1000
1000
1000
1F00
0080
0080
0080
10B0
0F30
0000
0000
0000
ENDCHAR
STARTCHAR u248D
ENCODING 9357
SWIDTH 1000 0
DWIDTH 16 0
BBX 16 16 0 -3
BITMAP
0000
0000
0000
0F00
1080
1000
1000
1F00
1080
1080
1080
10B0
0F30
0000
0000
0000
ENDCHAR
STARTCHAR u248E
ENCODING 9358
SWIDTH 1000 0
DWIDTH 16 0
BBX 16 16 0 -3
BITMAP
0000
0000
0000
1F80
0080
0080
0100
0100
0100
0200
0200
0230
0230
0000
0000
0000
ENDCHAR
STARTCHAR u248F
ENCODING 9359
SWIDTH 1000 0
DWIDTH 16 0
BBX 16 16 0 -3
BITMAP
0000
0000
0000
0F00
1080
1080
1080
0F00
1080
1080
1080
10B0
0F30
0000
0000
0000
ENDCHAR
STARTCHAR u2490
ENCODING 9360
SWIDTH 1000 0
DWIDTH 16 0
BBX 16 16 0 -3
BITMAP
0000
0000
0000
0F00
1080
1080
1080
1080
0F80
0080
0080
10B0
0F30
0000
0000
0000
ENDCHAR
STARTCHAR u2491
ENCODING 9361
SWIDTH 1000 0
DWIDTH 16 0
BBX 16 16 0 -3
BITMAP
0000
0000
0000
21E0
6210
2210
2230
2250
2290
2310
2210
2216
71E6
0000
0000
0000
ENDCHAR
STARTCHAR u2492
ENCODING 9362
SWIDTH 1000 0
DWIDTH 16 0
BBX 16 16 0 -3
BITMAP
0000
0000
0000
1040
30C0
5140
1040
1040
1040
1040
1040
1046
7DF6
0000
0000
0000
ENDCHAR
STARTCHAR u2493
ENCODING 9363
SWIDTH 1000 0
DWIDTH 16 0
BBX 16 16 0 -3
BITMAP
0000
0000
0000
21E0
6210
2010
2010
2020
2040
2080
2100
2206
73F6
0000
0000
0000
ENDCHAR
STARTCHAR u2494
ENCODING 9364
SWIDTH 1000 0
DWIDTH 16 0
BBX 16 16 0 -3
BITMAP
0000
0000
0000
21E0
6210
2010
2010
2060
2010
2010
2010
2216
71E6
0000
0000
0000
ENDCHAR
STARTCHAR u2495
ENCODING 9365
SWIDTH 1000 0
DWIDTH 16 0
BBX 16 16 0 -3
BITMAP
0000
0000
0000
2060
60A0
20A0
2120
2120
2220
2220
23F0
2026
7026
0000
0000
0000
ENDCHAR
STARTCHAR u2496
ENCODING 9366
SWIDTH 1000 0
DWIDTH 16 0
BBX 16 16 0 -3
BITMAP
0000
0000
0000
23F0
6200
2200
2200
23E0
2010
2010
2010
2216
71E6
0000
0000
0000
ENDCHAR
STARTCHAR u2497
ENCODING 9367
SWIDTH 1000 0
DWIDTH 16 0
BBX 16 16 0 -3
BITMAP
0000
0000
0000
21E0
6210
2200
2200
23E0
2210
2210
2210
2216
71E6
0000
0000
0000
ENDCHAR
STARTCHAR u2498
ENCODING 9368
SWIDTH 1000 0
DWIDTH 16 0
BBX 16 16 0 -3
BITMAP
0000
0000
0000
23F0
6010
2010
2020
2020
2040
2040
2040
2046
7046
0000
0000
0000
ENDCHAR
STARTCHAR u2499
ENCODING 9369
SWIDTH 1000 0
DWIDTH 16 0
BBX 16 16 0 -3
BITMAP
0000
0000
0000
21E0
6210
2210
2210
21E0
2210
2210
2210
2216
71E6
0000
0000
0000
ENDCHAR
STARTCHAR u249A
ENCODING 9370
SWIDTH 1000 0
DWIDTH 16 0
BBX 16 16 0 -3
BITMAP
0000
0000
0000
21E0
6210
2210
2210
2210
21F0
2010
2010
2216
71E6
0000
0000
0000
ENDCHAR
STARTCHAR u249B
ENCODING 9371
SWIDTH 1000 0
DWIDTH 16 0
BBX 16 16 0 -3
BITMAP
0000
0000
0000
38E0
4510
0510
0530
0950
0990
1110
2110
4116
7CE6
0000
0000
0000
ENDCHAR
STARTCHAR u249C
ENCODING 9372
SWIDTH 1000 0
DWIDTH 16 0
BBX 16 16 0 -3
BITMAP
0000
1010
2008
4004
4004
8002
8382
8042
83C2
8442
8442
83C2
4004
4004
2008
1010
ENDCHAR
STARTCHAR u249D
ENCODING 9373
SWIDTH 1000 0
DWIDTH 16 0
BBX 16 16 0 -3
BITMAP
0000
1010
2008
4404
4404
8402
8782
8442
8442
8442
8442
8782
4004
4004
2008
1010
ENDCHAR
STARTCHAR u249E
ENCODING 9374
SWIDTH 1000 0
DWIDTH 16 0
BBX 16 16 0 -3
BITMAP
0000
1010
2008
4004
4004
8002
8382
8442
8402
8402
8442
8382
4004
4004
2008
1010
ENDCHAR
STARTCHAR u249F
ENCODING 9375
SWIDTH 1000 0
DWIDTH 16 0
BBX 16 16 0 -3
BITMAP
0000
1010
2008
4044
4044
8042
83C2
8442
8442
8442
8442
83C2
4004
4004
2008
1010
ENDCHAR
STARTCHAR u24A0
ENCODING 9376
SWIDTH 1000 0
DWIDTH 16 0
BBX 16 16 0 -3
BITMAP
0000
1010
2008
4004
4004
8002
8382
8442
87C2
8402
8442
8382
4004
4004
2008
1010
ENDCHAR
STARTCHAR u24A1
ENCODING 9377
SWIDTH 1000 0
DWIDTH 16 0
BBX 16 16 0 -3
BITMAP
0000
1010
2008
4004
40C4
8102
8102
87C2
8102
8102
8102
8102
4104
4004
2008
1010
ENDCHAR
STARTCHAR u24A2
ENCODING 9378
SWIDTH 1000 0
DWIDTH 16 0
BBX 16 16 0 -3
BITMAP
0000
1010
2008
4004
4004
83C2
8442
8442
8442
8442
83C2
8042
4044
4384
2008
1010
ENDCHAR
STARTCHAR u24A3
ENCODING 9379
SWIDTH 1000 0
DWIDTH 16 0
BBX 16 16 0 -3
BITMAP
0000
1010
2008
4404
4404
8402
8582
8642
8442
8442
8442
8442
4004
4004
2008
1010
ENDCHAR
STARTCHAR u24A4
ENCODING 9380
SWIDTH 1000 0
DWIDTH 16 0
BBX 16 16 0 -3
BITMAP
0000
1010
2008
4004
4104
8002
8302
8102
8102
8102
8102
8382
4004
4004
2008
1010
ENDCHAR
STARTCHAR u24A5
ENCODING 9381
SWIDTH 1000 0
DWIDTH 16 0
BBX 16 16 0 -3
BITMAP
0000
1010
2008
4004
4084
8002
8382
8082
8082
8082
8082
8082
4084
4304
2008
1010
ENDCHAR
STARTCHAR u24A6
ENCODING 9382
SWIDTH 1000 0
DWIDTH 16 0
BBX 16 16 0 -3
BITMAP
0000
1010
2008
4004
4404
8402
8402
8442
8582
8602
8502
8482
4444
4004
2008
1010
ENDCHAR
STARTCHAR u24A7
ENCODING 9383
SWIDTH 1000 0
DWIDTH 16 0
BBX 16 16 0 -3
BITMAP
0000
1010
2008
4004
4304
8102
8102
8102
8102
8102
8102
8102
4184
4004
2008
1010
ENDCHAR
STARTCHAR u24A8
ENCODING 9384
SWIDTH 1000 0
DWIDTH 16 0
BBX 16 16 0 -3
BITMAP
0000
1010
2008
4004
4004
8002
8EC2
8922
8922
8922
8922
8922
4004
4004
2008
1010
ENDCHAR
STARTCHAR u24A9
ENCODING 9385
SWIDTH 1000 0
DWIDTH 16 0
BBX 16 16 0 -3
BITMAP
0000
1010
2008
4004
4004
8002
8582
8642
8442
8442
8442
8442
4004
4004
2008
1010
ENDCHAR
STARTCHAR u24AA
ENCODING 9386
SWIDTH 1000 0
DWIDTH 16 0
BBX 16 16 0 -3
BITMAP
0000
1010
2008
4004
4004
8002
8382
8442
8442
8442
8442
8382
4004
4004
2008
1010
ENDCHAR
STARTCHAR u24AB
ENCODING 9387
SWIDTH 1000 0
DWIDTH 16 0
BBX 16 16 0 -3
BITMAP
0000
1010
2008
4004
4004
8782
8442
8442
8442
8442
8782
8402
4404
4404
2008
1010
ENDCHAR
STARTCHAR u24AC
ENCODING 9388
SWIDTH 1000 0
DWIDTH 16 0
BBX 16 16 0 -3
BITMAP
0000
1010
2008
4004
4004
83C2
8442
8442
8442
8442
83C2
8042
4044
4044
2008
1010
ENDCHAR
STARTCHAR u24AD
ENCODING 9389
SWIDTH 1000 0
DWIDTH 16 0
BBX 16 16 0 -3
BITMAP
0000
1010
2008
4004
4004
8002
85C2
8602
8402
8402
8402
8402
4004
4004
2008
1010
ENDCHAR
STARTCHAR u24AE
ENCODING 9390
SWIDTH 1000 0
DWIDTH 16 0
BBX 16 16 0 -3
BITMAP
0000
1010
2008
4004
4004
8002
8382
8442
8302
8082
8442
8382
4004
4004
2008
1010
ENDCHAR
STARTCHAR u24AF
ENCODING 9391
SWIDTH 1000 0
DWIDTH 16 0
BBX 16 16 0 -3
BITMAP
0000
1010
2008
4004
4104
8102
8102
87C2
8102
8102
8102
8102
40C4
4004
2008
1010
ENDCHAR
STARTCHAR u24B0
ENCODING 9392
SWIDTH 1000 0
DWIDTH 16 0
BBX 16 16 0 -3
BITMAP
0000
1010
2008
4004
4004
8002
8442
8442
8442
8442
84C2
8342
4004
4004
2008
1010
ENDCHAR
STARTCHAR u24B1
ENCODING 9393
SWIDTH 1000 0
DWIDTH 16 0
BBX 16 16 0 -3
BITMAP
0000
1010
2008
4004
4004
8002
8442
8442
8282
8282
8102
8102
4004
4004
2008
1010
ENDCHAR
STARTCHAR u24B2
ENCODING 9394
SWIDTH 1000 0
DWIDTH 16 0
BBX 16 16 0 -3
BITMAP
0000
1010
2008
4004
4004
8002
8922
8922
8AA2
8AA2
8442
8442
4004
4004
2008
1010
ENDCHAR
STARTCHAR u24B3
ENCODING 9395
SWIDTH 1000 0
DWIDTH 16 0
BBX 16 16 0 -3
BITMAP
0000
1010
2008
4004
4004
8002
8442
8282
8102
8102
8282
8442
4004
4004
2008
1010
ENDCHAR
STARTCHAR u24B4
ENCODING 9396
SWIDTH 1000 0
DWIDTH 16 0
BBX 16 16 0 -3
BITMAP
0000
1010
2008
4004
4004
8002
8442
8442
8442
8282
8282
8102
4104
4604
2008
1010
ENDCHAR
STARTCHAR u24B5
ENCODING 9397
SWIDTH 1000 0
DWIDTH 16 0
BBX 16 16 0 -3
BITMAP
0000
1010
2008
4004
4004
8002
87C2
8082
8102
8202
8402
87C2
4004
4004
2008
1010
ENDCHAR
STARTCHAR u24B6
ENCODING 9398
SWIDTH 1000 0
DWIDTH 16 0
BBX 16 16 0 -3
BITMAP
0000
07C0
1830
2008
4104
4104
8282
8282
8282
8382
8442
4444
4444
2008
1830
07C0
ENDCHAR
STARTCHAR u24B7
ENCODING 9399
SWIDTH 1000 0
DWIDTH 16 0
BBX 16 16 0 -3
BITMAP
0000
07C0
1830
2008
4784
4444
8442
8442
8782
8442
8442
4444
4784
2008
1830
07C0
ENDCHAR
STARTCHAR u24B8
ENCODING 9400
SWIDTH 1000 0
DWIDTH 16 0
BBX 16 16 0 -3
BITMAP
0000
07C0
1830
2008
4384
4444
8402
8402
8402
8402
8402
4444
4384
2008
1830
07C0
ENDCHAR
STARTCHAR u24B9
ENCODING 9401
SWIDTH 1000 0
DWIDTH 16 0
BBX 16 16 0 -3
BITMAP
0000
07C0
1830
2008
4704
4484
8442
8442
8442
8442
8442
4484
4704
2008
1830
07C0
ENDCHAR
STARTCHAR u24BA
ENCODING 9402
SWIDTH 1000 0
DWIDTH 16 0
BBX 16 16 0 -3
BITMAP
0000
07C0
1830
2008
47C4
4404
8402
8402
8782
8402
8402
4404
47C4
2008
1830
07C0
ENDCHAR
STARTCHAR u24BB
ENCODING 9403
SWIDTH 1000 0
DWIDTH 16 0
BBX 16 16 0 -3
BITMAP
0000
07C0
1830
2008
47C4
4404
8402
8402
8782
8402
8402
4404
4404
2008
1830
07C0
ENDCHAR
STARTCHAR u24BC
ENCODING 9404
SWIDTH 1000 0
DWIDTH 16 0
BBX 16 16 0 -3
BITMAP
0000
07C0
1830
2008
4384
4444
8402
8402
8402
84C2
8442
4444
43C4
2008
1830
07C0
ENDCHAR
STARTCHAR u24BD
ENCODING 9405
SWIDTH 1000 0
DWIDTH 16 0
BBX 16 16 0 -3
BITMAP
0000
07C0
1830
2008
4444
4444
8442
8442
87C2
8442
8442
4444
4444
2008
1830
07C0
ENDCHAR
STARTCHAR u24BE
ENCODING 9406
SWIDTH 1000 0
DWIDTH 16 0
BBX 16 16 0 -3
BITMAP
0000
07C0
1830
2008
4384
4104
8102
8102
8102
8102
8102
4104
4384
2008
1830
07C0
ENDCHAR
STARTCHAR u24BF
ENCODING 9407
SWIDTH 1000 0
DWIDTH 16 0
BBX 16 16 0 -3
BITMAP
0000
07C0
1830
2008
4044
4044
8042
8042
8042
8042
8442
4444
4384
2008
1830
07C0
ENDCHAR
STARTCHAR u24C0
ENCODING 9408
SWIDTH 1000 0
DWIDTH 16 0
BBX 16 16 0 -3
BITMAP
0000
07C0
1830
2008
4444
4484
8482
8502
8602
8502
8482
4484
4444
2008
1830
07C0
ENDCHAR
STARTCHAR u24C1
ENCODING 9409
SWIDTH 1000 0
DWIDTH 16 0
BBX 16 16 0 -3
BITMAP
0000
07C0
1830
2008
4404
4404
8402
8402
8402
8402
8402
4404
47C4
2008
1830
07C0
ENDCHAR
STARTCHAR u24C2
ENCODING 9410
SWIDTH 1000 0
DWIDTH 16 0
BBX 16 16 0 -3
BITMAP
0000
07C0
1830
2008
4824
4824
8C62
8C62
8AA2
8AA2
8922
4924
4924
2008
1830
07C0
ENDCHAR
STARTCHAR u24C3
ENCODING 9411
SWIDTH 1000 0
DWIDTH 16 0
BBX 16 16 0 -3
BITMAP
0000
07C0
1830
2008
4444
4644
8642
8542
8542
8542
84C2
44C4
4444
2008
1830
07C0
ENDCHAR
STARTCHAR u24C4
ENCODING 9412
SWIDTH 1000 0
DWIDTH 16 0
BBX 16 16 0 -3
BITMAP
0000
07C0
1830
2008
4384
4444
8442
8442
8442
8442
8442
4444
4384
2008
1830
07C0
ENDCHAR
STARTCHAR u24C5
ENCODING 9413
SWIDTH 1000 0
DWIDTH 16 0
BBX 16 16 0 -3
BITMAP
0000
07C0
1830
2008
4784
4444
8442
8442
8782
8402
8402
4404
4404
2008
1830
07C0
ENDCHAR
STARTCHAR u24C6
ENCODING 9414
SWIDTH 1000 0
DWIDTH 16 0
BBX 16 16 0 -3
BITMAP
0000
07C0
1830
2008
4384
4444
8442
8442
8442
8442
8542
4484
4344
2008
1830
07C0
ENDCHAR
STARTCHAR u24C7
ENCODING 9415
SWIDTH 1000 0
DWIDTH 16 0
BBX 16 16 0 -3
BITMAP
0000
07C0
1830
2008
4784
4444
8442
8442
8782
8502
8482
4484
4444
2008
1830
07C0
ENDCHAR
STARTCHAR u24C8
ENCODING 9416
SWIDTH 1000 0
DWIDTH 16 0
BBX 16 16 0 -3
BITMAP
0000
07C0
1830
2008
4384
4444
8402
8402
8382
8042
8042
4444
4384
2008
1830
07C0
ENDCHAR
STARTCHAR u24C9
ENCODING 9417
SWIDTH 1000 0
DWIDTH 16 0
BBX 16 16 0 -3
BITMAP
0000
07C0
1830
2008
47C4
4104
8102
8102
8102
8102
8102
4104
4104
2008
1830
07C0
ENDCHAR
STARTCHAR u24CA
ENCODING 9418
SWIDTH 1000 0
DWIDTH 16 0
BBX 16 16 0 -3
BITMAP
0000
07C0
1830
2008
4444
4444
8442
8442
8442
8442
8442
4444
4384
2008
1830
07C0
ENDCHAR
STARTCHAR u24CB
ENCODING 9419
SWIDTH 1000 0
DWIDTH 16 0
BBX 16 16 0 -3
BITMAP
0000
07C0
1830
2008
4444
4444
8442
8442
8282
8282
8282
4104
4104
2008
1830
07C0
ENDCHAR
STARTCHAR u24CC
ENCODING 9420
SWIDTH 1000 0
DWIDTH 16 0
BBX 16 16 0 -3
BITMAP
0000
07C0
1830
2008
4924
4924
8922
8922
8AA2
8AA2
8AA2
4444
4444
2008
1830
07C0
ENDCHAR
STARTCHAR u24CD
ENCODING 9421
SWIDTH 1000 0
DWIDTH 16 0
BBX 16 16 0 -3
BITMAP
0000
07C0
1830
2008
4444
4444
8282
8282
8102
8282
8282
4444
4444
2008
1830
07C0
ENDCHAR
STARTCHAR u24CE
ENCODING 9422
SWIDTH 1000 0
DWIDTH 16 0
BBX 16 16 0 -3
BITMAP
0000
07C0
1830
2008
4444
4444
8282
8282
8102
8102
8102
4104
4104
2008
1830
07C0
ENDCHAR
STARTCHAR u24CF
ENCODING 9423
SWIDTH 1000 0
DWIDTH 16 0
BBX 16 16 0 -3
BITMAP
0000
07C0
1830
2008
47C4
4044
8082
8082
8102
8202
8202
4404
47C4
2008
1830
07C0
ENDCHAR
STARTCHAR u24D0
ENCODING 9424
SWIDTH 1000 0
DWIDTH 16 0
BBX 16 16 0 -3
BITMAP
0000
07C0
1830
2008
4004
4004
8382
8042
83C2
8442
8442
43C4
4004
2008
1830
07C0
ENDCHAR
STARTCHAR u24D1
ENCODING 9425
SWIDTH 1000 0
DWIDTH 16 0
BBX 16 16 0 -3
BITMAP
0000
07C0
1830
2408
4404
4404
8782
8442
8442
8442
8442
4784
4004
2008
1830
07C0
ENDCHAR
STARTCHAR u24D2
ENCODING 9426
SWIDTH 1000 0
DWIDTH 16 0
BBX 16 16 0 -3
BITMAP
0000
07C0
1830
2008
4004
4004
8382
8442
8402
8402
8442
4384
4004
2008
1830
07C0
ENDCHAR
STARTCHAR u24D3
ENCODING 9427
SWIDTH 1000 0
DWIDTH 16 0
BBX 16 16 0 -3
BITMAP
0000
07C0
1830
2048
4044
4044
83C2
8442
8442
8442
8442
43C4
4004
2008
1830
07C0
ENDCHAR
STARTCHAR u24D4
ENCODING 9428
SWIDTH 1000 0
DWIDTH 16 0
BBX 16 16 0 -3
BITMAP
0000
07C0
1830
2008
4004
4004
8382
8442
87C2
8402
8442
4384
4004
2008
1830
07C0
ENDCHAR
STARTCHAR u24D5
ENCODING 9429
SWIDTH 1000 0
DWIDTH 16 0
BBX 16 16 0 -3
BITMAP
0000
07C0
1830
2008
40C4
4104
8102
87C2
8102
8102
8102
4104
4104
2008
1830
07C0
ENDCHAR
STARTCHAR u24D6
ENCODING 9430
SWIDTH 1000 0
DWIDTH 16 0
BBX 16 16 0 -3
BITMAP
0000
07C0
1830
2008
4004
43C4
8442
8442
8442
8442
83C2
4044
4044
2388
1830
07C0
ENDCHAR
STARTCHAR u24D7
ENCODING 9431
SWIDTH 1000 0
DWIDTH 16 0
BBX 16 16 0 -3
BITMAP
0000
07C0
1830
2408
4404
4404
8582
8642
8442
8442
8442
4444
4004
2008
1830
07C0
ENDCHAR
STARTCHAR u24D8
ENCODING 9432
SWIDTH 1000 0
DWIDTH 16 0
BBX 16 16 0 -3
BITMAP
0000
07C0
1830
2008
4104
4004
8302
8102
8102
8102
8102
4384
4004
2008
1830
07C0
ENDCHAR
STARTCHAR u24D9
ENCODING 9433
SWIDTH 1000 0
DWIDTH 16 0
BBX 16 16 0 -3
BITMAP
0000
07C0
1830
2008
4084
4004
8382
8082
8082
8082
8082
4084
4084
2308
1830
07C0
ENDCHAR
STARTCHAR u24DA
ENCODING 9434
SWIDTH 1000 0
DWIDTH 16 0
BBX 16 16 0 -3
BITMAP
0000
07C0
1830
2008
4404
4404
8402
8442
8582
8602
8502
4484
4444
2008
1830
07C0
ENDCHAR
STARTCHAR u24DB
ENCODING 9435
SWIDTH 1000 0
DWIDTH 16 0
BBX 16 16 0 -3
BITMAP
0000
07C0
1830
2008
4304
4104
8102
8102
8102
8102
8102
4104
4184
2008
1830
07C0
ENDCHAR
STARTCHAR u24DC
ENCODING 9436
SWIDTH 1000 0
DWIDTH 16 0
BBX 16 16 0 -3
BITMAP
0000
07C0
1830
2008
4004
4004
8EC2
8922
8922
8922
8922
4924
4004
2008
1830
07C0
ENDCHAR
STARTCHAR u24DD
ENCODING 9437
SWIDTH 1000 0
DWIDTH 16 0
BBX 16 16 0 -3
BITMAP
0000
07C0
1830
2008
4004
4004
8582
8642
8442
8442
8442
4444
4004
2008
1830
07C0
ENDCHAR
STARTCHAR u24DE
ENCODING 9438
SWIDTH 1000 0
DWIDTH 16 0
BBX 16 16 0 -3
BITMAP
0000
07C0
1830
2008
4004
4004
8382
8442
8442
8442
8442
4384
4004
2008
1830
07C0
ENDCHAR
STARTCHAR u24DF
ENCODING 9439
SWIDTH 1000 0
DWIDTH 16 0
BBX 16 16 0 -3
BITMAP
0000
07C0
1830
2008
4004
4784
8442
8442
8442
8442
8782
4404
4404
2408
1830
07C0
ENDCHAR
STARTCHAR u24E0
ENCODING 9440
SWIDTH 1000 0
DWIDTH 16 0
BBX 16 16 0 -3
BITMAP
0000
07C0
1830
2008
4004
43C4
8442
8442
8442
8442
83C2
4044
4044
2048
1830
07C0
ENDCHAR
STARTCHAR u24E1
ENCODING 9441
SWIDTH 1000 0
DWIDTH 16 0
BBX 16 16 0 -3
BITMAP
0000
07C0
1830
2008
4004
4004
85C2
8602
8402
8402
8402
4404
4004
2008
1830
07C0
ENDCHAR
STARTCHAR u24E2
ENCODING 9442
SWIDTH 1000 0
DWIDTH 16 0
BBX 16 16 0 -3
BITMAP
0000
07C0
1830
2008
4004
4004
8382
8442
8302
8082
8442
4384
4004
2008
1830
07C0
ENDCHAR
STARTCHAR u24E3
ENCODING 9443
SWIDTH 1000 0
DWIDTH 16 0
BBX 16 16 0 -3
BITMAP
0000
07C0
1830
2008
4104
4104
8102
87C2
8102
8102
8102
4104
40C4
2008
1830
07C0
ENDCHAR
STARTCHAR u24E4
ENCODING 9444
SWIDTH 1000 0
DWIDTH 16 0
BBX 16 16 0 -3
BITMAP
0000
07C0
1830
2008
4004
4004
8442
8442
8442
8442
84C2
4344
4004
2008
1830
07C0
ENDCHAR
STARTCHAR u24E5
ENCODING 9445
SWIDTH 1000 0
DWIDTH 16 0
BBX 16 16 0 -3
BITMAP
0000
07C0
1830
2008
4004
4004
8442
8442
8282
8282
8102
4104
4004
2008
1830
07C0
ENDCHAR
STARTCHAR u24E6
ENCODING 9446
SWIDTH 1000 0
DWIDTH 16 0
BBX 16 16 0 -3
BITMAP
0000
07C0
1830
2008
4004
4004
8922
8922
8AA2
8AA2
8442
4444
4004
2008
1830
07C0
ENDCHAR
STARTCHAR u24E7
ENCODING 9447
SWIDTH 1000 0
DWIDTH 16 0
BBX 16 16 0 -3
BITMAP
0000
07C0
1830
2008
4004
4004
8442
8282
8102
8102
8282
4444
4004
2008
1830
07C0
ENDCHAR
STARTCHAR u24E8
ENCODING 9448
SWIDTH 1000 0
DWIDTH 16 0
BBX 16 16 0 -3
BITMAP
0000
07C0
1830
2008
4004
4004
8442
8442
8442
8282
8282
4104
4104
2608
1830
07C0
ENDCHAR
STARTCHAR u24E9
ENCODING 9449
SWIDTH 1000 0
DWIDTH 16 0
BBX 16 16 0 -3
BITMAP
0000
07C0
1830
2008
4004
4004
87C2
8082
8102
8202
8402
47C4
4004
2008
1830
07C0
ENDCHAR
STARTCHAR u24EA
ENCODING 9450
SWIDTH 1000 0
DWIDTH 16 0
BBX 16 16 0 -3
BITMAP
0000
07C0
1830
2008
4384
4444
8442
84C2
8542
8642
8442
4444
4384
2008
1830
07C0
ENDCHAR
STARTCHAR u24EB
ENCODING 9451
SWIDTH 1000 0
DWIDTH 16 0
BBX 16 16 0 -3
BITMAP
0000
07C0
1FF0
3FF8
77DC
679C
F7DE
F7DE
F7DE
F7DE
F7DE
77DC
638C
3FF8
1FF0
07C0
ENDCHAR
STARTCHAR u24EC
ENCODING 9452
SWIDTH 1000 0
DWIDTH 16 0
BBX 16 16 0 -3
BITMAP
0000
07C0
1FF0
3FF8
771C
66EC
F7EE
F7EE
F7DE
F7BE
F77E
76FC
620C
3FF8
1FF0
07C0
ENDCHAR
STARTCHAR u24ED
ENCODING 9453
SWIDTH 1000 0
DWIDTH 16 0
BBX 16 16 0 -3
BITMAP
0000
07C0
1FF0
3FF8
771C
66EC
F7EE
F7EE
F79E
F7EE
F7EE
76EC
631C
3FF8
1FF0
07C0
ENDCHAR
STARTCHAR u24EE
ENCODING 9454
SWIDTH 1000 0
DWIDTH 16 0
BBX 16 16 0 -3
BITMAP
0000
07C0
1FF0
3FF8
779C
675C
F75E
F75E
F6DE
F6DE
F60E
77DC
63DC
3FF8
1FF0
07C0
ENDCHAR
STARTCHAR u24EF
ENCODING 9455
SWIDTH 1000 0
DWIDTH 16 0
BBX 16 16 0 -3
BITMAP
0000
07C0
1FF0
3FF8
760C
66FC
F6FE
F6FE
F61E
F7EE
F7EE
76EC
631C
3FF8
1FF0
07C0
ENDCHAR
STARTCHAR u24F0
ENCODING 9456
SWIDTH 1000 0
DWIDTH 16 0
BBX 16 16 0 -3
BITMAP
0000
07C0
1FF0
3FF8
771C
66EC
F6FE
F6FE
F61E
F6EE
F6EE
76EC
631C
3FF8
1FF0
07C0
ENDCHAR
STARTCHAR u24F1
ENCODING 9457
SWIDTH 1000 0
DWIDTH 16 0
BBX 16 16 0 -3
BITMAP
0000
07C0
1FF0
3FF8
760C
67EC
F7EE
F7DE
F7DE
F7BE
F7BE
77BC
63BC
3FF8
1FF0
07C0
ENDCHAR
STARTCHAR u24F2
ENCODING 9458
SWIDTH 1000 0
DWIDTH 16 0
BBX 16 16 0 -3
BITMAP
0000
07C0
1FF0
3FF8
771C
66EC
F6EE
F6EE
F71E
F6EE
F6EE
76EC
631C
3FF8
1FF0
07C0
ENDCHAR
STARTCHAR u24F3
ENCODING 9459
SWIDTH 1000 0
DWIDTH 16 0
BBX 16 16 0 -3
BITMAP
0000
07C0
1FF0
3FF8
771C
66EC
F6EE
F6EE
F70E
F7EE
F7EE
76EC
631C
3FF8
1FF0
07C0
ENDCHAR
STARTCHAR u24F4
ENCODING 9460
SWIDTH 1000 0
DWIDTH 16 0
BBX 16 16 0 -3
BITMAP
0000
07C0
1FF0
3FF8
739C
6D6C
FD6E
FD4E
FB2E
FB6E
F76E
6F6C
619C
3FF8
1FF0
07C0
ENDCHAR
STARTCHAR u24F5
ENCODING 9461
SWIDTH 1000 0
DWIDTH 16 0
BBX 16 16 0 -3
BITMAP
0000
07C0
1830
27C8
5834
5114
A70A
A10A
A10A
A10A
A10A
57D4
5834
27C8
1830
07C0
ENDCHAR
STARTCHAR u24F6
ENCODING 9462
SWIDTH 1000 0
DWIDTH 16 0
BBX 16 16 0 -3
BITMAP
0000
07C0
1830
27C8
5834
5394
A44A
A04A
A18A
A20A
A40A
57D4
5834
27C8
1830
07C0
ENDCHAR
STARTCHAR u24F7
ENCODING 9463
SWIDTH 1000 0
DWIDTH 16 0
BBX 16 16 0 -3
BITMAP
0000
07C0
1830
27C8
5834
5394
A44A
A04A
A18A
A04A
A44A
5394
5834
27C8
1830
07C0
ENDCHAR
STARTCHAR u24F8
ENCODING 9464
SWIDTH 1000 0
DWIDTH 16 0
BBX 16 16 0 -3
BITMAP
0000
07C0
1830
27C8
5834
5194
A28A
A28A
A48A
A48A
A7CA
5094
5834
27C8
1830
07C0
ENDCHAR
STARTCHAR u24F9
ENCODING 9465
SWIDTH 1000 0
DWIDTH 16 0
BBX 16 16 0 -3
BITMAP
0000
07C0
1830
27C8
5834
57D4
A40A
A40A
A78A
A04A
A04A
5794
5834
27C8
1830
07C0
ENDCHAR
STARTCHAR u24FA
ENCODING 9466
SWIDTH 1000 0
DWIDTH 16 0
BBX 16 16 0 -3
BITMAP
0000
07C0
1830
27C8
5834
5394
A44A
A40A
A78A
A44A
A44A
5394
5834
27C8
1830
07C0
ENDCHAR
STARTCHAR u24FB
ENCODING 9467
SWIDTH 1000 0
DWIDTH 16 0
BBX 16 16 0 -3
BITMAP
0000
07C0
1830
27C8
5834
57D4
A04A
A08A
A08A
A10A
A10A
5114
5834
27C8
1830
07C0
ENDCHAR
STARTCHAR u24FC
ENCODING 9468
SWIDTH 1000 0
DWIDTH 16 0
BBX 16 16 0 -3
BITMAP
0000
07C0
1830
27C8
5834
5394
A44A
A44A
A38A
A44A
A44A
5394
5834
27C8
1830
07C0
ENDCHAR
STARTCHAR u24FD
ENCODING 9469
SWIDTH 1000 0
DWIDTH 16 0
BBX 16 16 0 -3
BITMAP
0000
07C0
1830
27C8
5834
5394
A44A
A44A
A3CA
A04A
A44A
5394
5834
27C8
1830
07C0
ENDCHAR
STARTCHAR u24FE
ENCODING 9470
SWIDTH 1000 0
DWIDTH 16 0
BBX 16 16 0 -3
BITMAP
0000
07C0
1830
27C8
5834
54D4
AD2A
A52A
A52A
A52A
A52A
5ED4
5834
27C8
1830
07C0
ENDCHAR
STARTCHAR u24FF
ENCODING 9471
SWIDTH 1000 0
DWIDTH 16 0
BBX 16 16 0 -3
BITMAP
0000
07C0
1FF0
3FF8
7C7C
7BBC
FBBE
FB3E
FABE
F9BE
FBBE
7BBC
7C7C
3FF8
1FF0
07C0
ENDCHAR
STARTCHAR u2500
ENCODING 9472
SWIDTH 1000 0
DWIDTH 16 0
BBX 16 16 0 -3
BITMAP
0000
0000
0000
0000
0000
0000
0000
0000
FFFF
0000
0000
0000
0000
0000
0000
0000
ENDCHAR
STARTCHAR u2501
ENCODING 9473
SWIDTH 1000 0
DWIDTH 16 0
BBX 16 16 0 -3
BITMAP
0000
0000
0000
0000
0000
0000
0000
FFFF
FFFF
FFFF
0000
0000
0000
0000
0000
0000
ENDCHAR
STARTCHAR u2502
ENCODING 9474
SWIDTH 1000 0
DWIDTH 16 0
BBX 16 16 0 -3
BITMAP
0100
0100
0100
0100
0100
0100
0100
0100
0100
0100
0100
0100
0100
0100
0100
0100
ENDCHAR
STARTCHAR u2503
ENCODING 9475
SWIDTH 1000 0
DWIDTH 16 0
BBX 16 16 0 -3
BITMAP
0380
0380
0380
0380
0380
0380
0380
0380
0380
0380
0380
0380
0380
0380
0380
0380
ENDCHAR
STARTCHAR u2504
ENCODING 9476
SWIDTH 1000 0
DWIDTH 16 0
BBX 16 16 0 -3
BITMAP
0000
0000
0000
0000
0000
0000
0000
0000
F7DE
0000
0000
0000
0000
0000
0000
0000
ENDCHAR
STARTCHAR u2505
ENCODING 9477
SWIDTH 1000 0
DWIDTH 16 0
BBX 16 16 0 -3
BITMAP
0000
0000
0000
0000
0000
0000
0000
F7DE
F7DE
F7DE
0000
0000
0000
0000
0000
0000
ENDCHAR
STARTCHAR u2506
ENCODING 9478
SWIDTH 1000 0
DWIDTH 16 0
BBX 16 16 0 -3
BITMAP
0000
0100
0100
0100
0100
0000
0100
0100
0100
0100
0100
0000
0100
0100
0100
0100
ENDCHAR
STARTCHAR u2507
ENCODING 9479
SWIDTH 1000 0
DWIDTH 16 0
BBX 16 16 0 -3
BITMAP
0000
0380
0380
0380
0380
0000
0380
0380
0380
0380
0380
0000
0380
0380
0380
0380
ENDCHAR
STARTCHAR u2508
ENCODING 9480
SWIDTH 1000 0
DWIDTH 16 0
BBX 16 16 0 -3
BITMAP
0000
0000
0000
0000
0000
0000
0000
0000
EEEE
0000
0000
0000
0000
0000
0000
0000
ENDCHAR
STARTCHAR u2509
ENCODING 9481
SWIDTH 1000 0
DWIDTH 16 0
BBX 16 16 0 -3
BITMAP
0000
0000
0000
0000
0000
0000
0000
EEEE
EEEE
EEEE
0000
0000
0000
0000
0000
0000
ENDCHAR
STARTCHAR u250A
ENCODING 9482
SWIDTH 1000 0
DWIDTH 16 0
BBX 16 16 0 -3
BITMAP
0000
0100
0100
0100
0000
0100
0100
0100
0000
0100
0100
0100
0000
0100
0100
0100
ENDCHAR
STARTCHAR u250B
ENCODING 9483
SWIDTH 1000 0
DWIDTH 16 0
BBX 16 16 0 -3
BITMAP
0000
0380
0380
0380
0000
0380
0380
0380
0000
0380
0380
0380
0000
0380
0380
0380
ENDCHAR
STARTCHAR u250C
ENCODING 9484
SWIDTH 1000 0
DWIDTH 16 0
BBX 16 16 0 -3
BITMAP
0000
0000
0000
0000
0000
0000
0000
0000
01FF
0100
0100
0100
0100
0100
0100
0100
ENDCHAR
STARTCHAR u250D
ENCODING 9485
SWIDTH 1000 0
DWIDTH 16 0
BBX 16 16 0 -3
BITMAP
0000
0000
0000
0000
0000
0000
0000
01FF
01FF
01FF
0100
0100
0100
0100
0100
0100
ENDCHAR
STARTCHAR u250E
ENCODING 9486
SWIDTH 1000 0
DWIDTH 16 0
BBX 16 16 0 -3
BITMAP
0000
0000
0000
0000
0000
0000
0000
0000
03FF
0380
0380
0380
0380
0380
0380
0380
ENDCHAR
STARTCHAR u250F
ENCODING 9487
SWIDTH 1000 0
DWIDTH 16 0
BBX 16 16 0 -3
BITMAP
0000
0000
0000
0000
0000
0000
0000
03FF
03FF
03FF
0380
0380
0380
0380
0380
0380
ENDCHAR
STARTCHAR u2510
ENCODING 9488
SWIDTH 1000 0
DWIDTH 16 0
BBX 16 16 0 -3
BITMAP
0000
0000
0000
0000
0000
0000
0000
0000
FF00
0100
0100
0100
0100
0100
0100
0100
ENDCHAR
STARTCHAR u2511
ENCODING 9489
SWIDTH 1000 0
DWIDTH 16 0
BBX 16 16 0 -3
BITMAP
0000
0000
0000
0000
0000
0000
0000
FF00
FF00
FF00
0100
0100
0100
0100
0100
0100
ENDCHAR
STARTCHAR u2512
ENCODING 9490
SWIDTH 1000 0
DWIDTH 16 0
BBX 16 16 0 -3
BITMAP
0000
0000
0000
0000
0000
0000
0000
0000
FF80
0380
0380
0380
0380
0380
0380
0380
ENDCHAR
STARTCHAR u2513
ENCODING 9491
SWIDTH 1000 0
DWIDTH 16 0
BBX 16 16 0 -3
BITMAP
0000
0000
0000
0000
0000
0000
0000
FF80
FF80
FF80
0380
0380
0380
0380
0380
0380
ENDCHAR
STARTCHAR u2514
ENCODING 9492
SWIDTH 1000 0
DWIDTH 16 0
BBX 16 16 0 -3
BITMAP
0100
0100
0100
0100
0100
0100
0100
0100
01FF
0000
0000
0000
0000
0000
0000
0000
ENDCHAR
STARTCHAR u2515
ENCODING 9493
SWIDTH 1000 0
DWIDTH 16 0
BBX 16 16 0 -3
BITMAP
0100
0100
0100
0100
0100
0100
0100
01FF
01FF
01FF
0000
0000
0000
0000
0000
0000
ENDCHAR
STARTCHAR u2516
ENCODING 9494
SWIDTH 1000 0
DWIDTH 16 0
BBX 16 16 0 -3
BITMAP
0380
0380
0380
0380
0380
0380
0380
0380
03FF
0000
0000
0000
0000
0000
0000
0000
ENDCHAR
STARTCHAR u2517
ENCODING 9495
SWIDTH 1000 0
DWIDTH 16 0
BBX 16 16 0 -3
BITMAP
0380
0380
0380
0380
0380
0380
0380
03FF
03FF
03FF
0000
0000
0000
0000
0000
0000
ENDCHAR
STARTCHAR u2518
ENCODING 9496
SWIDTH 1000 0
DWIDTH 16 0
BBX 16 16 0 -3
BITMAP
0100
0100
0100
0100
0100
0100
0100
0100
FF00
0000
0000
0000
0000
0000
0000
0000
ENDCHAR
STARTCHAR u2519
ENCODING 9497
SWIDTH 1000 0
DWIDTH 16 0
BBX 16 16 0 -3
BITMAP
0100
0100
0100
0100
0100
0100
0100
FF00
FF00
FF00
0000
0000
0000
0000
0000
0000
ENDCHAR
STARTCHAR u251A
ENCODING 9498
SWIDTH 1000 0
DWIDTH 16 0
BBX 16 16 0 -3
BITMAP
0380
0380
0380
0380
0380
0380
0380
0380
FF80
0000
0000
0000
0000
0000
0000
0000
ENDCHAR
STARTCHAR u251B
ENCODING 9499
SWIDTH 1000 0
DWIDTH 16 0
BBX 16 16 0 -3
BITMAP
0380
0380
0380
0380
0380
0380
0380
FF80
FF80
FF80
0000
0000
0000
0000
0000
0000
ENDCHAR
STARTCHAR u251C
ENCODING 9500
SWIDTH 1000 0
DWIDTH 16 0
BBX 16 16 0 -3
BITMAP
0100
0100
0100
0100
0100
0100
0100
0100
01FF
0100
0100
0100
0100
0100
0100
0100
ENDCHAR
STARTCHAR u251D
ENCODING 9501
SWIDTH 1000 0
DWIDTH 16 0
BBX 16 16 0 -3
BITMAP
0100
0100
0100
0100
0100
0100
0100
01FF
01FF
01FF
0100
0100
0100
0100
0100
0100
ENDCHAR
STARTCHAR u251E
ENCODING 9502
SWIDTH 1000 0
DWIDTH 16 0
BBX 16 16 0 -3
BITMAP
0380
0380
0380
0380
0380
0380
0380
0380
03FF
0100
0100
0100
0100
0100
0100
0100
ENDCHAR
STARTCHAR u251F
ENCODING 9503
SWIDTH 1000 0
DWIDTH 16 0
BBX 16 16 0 -3
BITMAP
0100
0100
0100
0100
0100
0100
0100
0100
03FF
0380
0380
0380
0380
0380
0380
0380
ENDCHAR
STARTCHAR u2520
ENCODING 9504
SWIDTH 1000 0
DWIDTH 16 0
BBX 16 16 0 -3
BITMAP
0380
0380
0380
0380
0380
0380
0380
0380
03FF
0380
0380
0380
0380
0380
0380
0380
ENDCHAR
STARTCHAR u2521
ENCODING 9505
SWIDTH 1000 0
DWIDTH 16 0
BBX 16 16 0 -3
BITMAP
0380
0380
0380
0380
0380
0380
0380
03FF
03FF
03FF
0100
0100
0100
0100
0100
0100
ENDCHAR
STARTCHAR u2522
ENCODING 9506
SWIDTH 1000 0
DWIDTH 16 0
BBX 16 16 0 -3
BITMAP
0100
0100
0100
0100
0100
0100
0100
03FF
03FF
03FF
0380
0380
0380
0380
0380
0380
ENDCHAR
STARTCHAR u2523
ENCODING 9507
SWIDTH 1000 0
DWIDTH 16 0
BBX 16 16 0 -3
BITMAP
0380
0380
0380
0380
0380
0380
0380
03FF
03FF
03FF
0380
0380
0380
0380
0380
0380
ENDCHAR
STARTCHAR u2524
ENCODING 9508
SWIDTH 1000 0
DWIDTH 16 0
BBX 16 16 0 -3
BITMAP
0100
0100
0100
0100
0100
0100
0100
0100
FF00
0100
0100
0100
0100
0100
0100
0100
ENDCHAR
STARTCHAR u2525
ENCODING 9509
SWIDTH 1000 0
DWIDTH 16 0
BBX 16 16 0 -3
BITMAP
0100
0100
0100
0100
0100
0100
0100
FF00
FF00
FF00
0100
0100
0100
0100
0100
0100
ENDCHAR
STARTCHAR u2526
ENCODING 9510
SWIDTH 1000 0
DWIDTH 16 0
BBX 16 16 0 -3
BITMAP
0380
0380
0380
0380
0380
0380
0380
0380
FF80
0100
0100
0100
0100
0100
0100
0100
ENDCHAR
STARTCHAR u2527
ENCODING 9511
SWIDTH 1000 0
DWIDTH 16 0
BBX 16 16 0 -3
BITMAP
0100
0100
0100
0100
0100
0100
0100
0100
FF80
0380
0380
0380
0380
0380
0380
0380
ENDCHAR
STARTCHAR u2528
ENCODING 9512
SWIDTH 1000 0
DWIDTH 16 0
BBX 16 16 0 -3
BITMAP
0380
0380
0380
0380
0380
0380
0380
0380
FF80
0380
0380
0380
0380
0380
0380
0380
ENDCHAR
STARTCHAR u2529
ENCODING 9513
SWIDTH 1000 0
DWIDTH 16 0
BBX 16 16 0 -3
BITMAP
0380
0380
0380
0380
0380
0380
0380
FF80
FF80
FF80
0100
0100
0100
0100
0100
0100
ENDCHAR
STARTCHAR u252A
ENCODING 9514
SWIDTH 1000 0
DWIDTH 16 0
BBX 16 16 0 -3
BITMAP
0100
0100
0100
0100
0100
0100
0100
FF80
FF80
FF80
0380
0380
0380
0380
0380
0380
ENDCHAR
STARTCHAR u252B
ENCODING 9515
SWIDTH 1000 0
DWIDTH 16 0
BBX 16 16 0 -3
BITMAP
0380
0380
0380
0380
0380
0380
0380
FF80
FF80
FF80
0380
0380
0380
0380
0380
0380
ENDCHAR
STARTCHAR u252C
ENCODING 9516
SWIDTH 1000 0
DWIDTH 16 0
BBX 16 16 0 -3
BITMAP
0000
0000
0000
0000
0000
0000
0000
0000
FFFF
0100
0100
0100
0100
0100
0100
0100
ENDCHAR
STARTCHAR u252D
ENCODING 9517
SWIDTH 1000 0
DWIDTH 16 0
BBX 16 16 0 -3
BITMAP
0000
0000
0000
0000
0000
0000
0000
FF00
FFFF
FF00
0100
0100
0100
0100
0100
0100
ENDCHAR
STARTCHAR u252E
ENCODING 9518
SWIDTH 1000 0
DWIDTH 16 0
BBX 16 16 0 -3
BITMAP
0000
0000
0000
0000
0000
0000
0000
01FF
FFFF
01FF
0100
0100
0100
0100
0100
0100
ENDCHAR
STARTCHAR u252F
ENCODING 9519
SWIDTH 1000 0
DWIDTH 16 0
BBX 16 16 0 -3
BITMAP
0000
0000
0000
0000
0000
0000
0000
FFFF
FFFF
FFFF
0100
0100
0100
0100
0100
0100
ENDCHAR
STARTCHAR u2530
ENCODING 9520
SWIDTH 1000 0
DWIDTH 16 0
BBX 16 16 0 -3
BITMAP
0000
0000
0000
0000
0000
0000
0000
0000
FFFF
0380
0380
0380
0380
0380
0380
0380
ENDCHAR
STARTCHAR u2531
ENCODING 9521
SWIDTH 1000 0
DWIDTH 16 0
BBX 16 16 0 -3
BITMAP
0000
0000
0000
0000
0000
0000
0000
FF80
FFFF
FF80
0380
0380
0380
0380
0380
0380
ENDCHAR
STARTCHAR u2532
ENCODING 9522
SWIDTH 1000 0
DWIDTH 16 0
BBX 16 16 0 -3
BITMAP
0000
0000
0000
0000
0000
0000
0000
03FF
FFFF
03FF
0380
0380
0380
0380
0380
0380
ENDCHAR
STARTCHAR u2533
ENCODING 9523
SWIDTH 1000 0
DWIDTH 16 0
BBX 16 16 0 -3
BITMAP
0000
0000
0000
0000
0000
0000
0000
FFFF
FFFF
FFFF
0380
0380
0380
0380
0380
0380
ENDCHAR
STARTCHAR u2534
ENCODING 9524
SWIDTH 1000 0
DWIDTH 16 0
BBX 16 16 0 -3
BITMAP
0100
0100
0100
0100
0100
0100
0100
0100
FFFF
0000
0000
0000
0000
0000
0000
0000
ENDCHAR
STARTCHAR u2535
ENCODING 9525
SWIDTH 1000 0
DWIDTH 16 0
BBX 16 16 0 -3
BITMAP
0100
0100
0100
0100
0100
0100
0100
FF00
FFFF
FF00
0000
0000
0000
0000
0000
0000
ENDCHAR
STARTCHAR u2536
ENCODING 9526
SWIDTH 1000 0
DWIDTH 16 0
BBX 16 16 0 -3
BITMAP
0100
0100
0100
0100
0100
0100
0100
01FF
FFFF
01FF
0000
0000
0000
0000
0000
0000
ENDCHAR
STARTCHAR u2537
ENCODING 9527
SWIDTH 1000 0
DWIDTH 16 0
BBX 16 16 0 -3
BITMAP
0100
0100
0100
0100
0100
0100
0100
FFFF
FFFF
FFFF
0000
0000
0000
0000
0000
0000
ENDCHAR
STARTCHAR u2538
ENCODING 9528
SWIDTH 1000 0
DWIDTH 16 0
BBX 16 16 0 -3
BITMAP
0380
0380
0380
0380
0380
0380
0380
0380
FFFF
0000
0000
0000
0000
0000
0000
0000
ENDCHAR
STARTCHAR u2539
ENCODING 9529
SWIDTH 1000 0
DWIDTH 16 0
BBX 16 16 0 -3
BITMAP
0380
0380
0380
0380
0380
0380
0380
FF80
FFFF
FF80
0000
0000
0000
0000
0000
0000
ENDCHAR
STARTCHAR u253A
ENCODING 9530
SWIDTH 1000 0
DWIDTH 16 0
BBX 16 16 0 -3
BITMAP
0380
0380
0380
0380
0380
0380
0380
03FF
FFFF
03FF
0000
0000
0000
0000
0000
0000
ENDCHAR
STARTCHAR u253B
ENCODING 9531
SWIDTH 1000 0
DWIDTH 16 0
BBX 16 16 0 -3
BITMAP
0380
0380
0380
0380
0380
0380
0380
FFFF
FFFF
FFFF
0000
0000
0000
0000
0000
0000
ENDCHAR
STARTCHAR u253C
ENCODING 9532
SWIDTH 1000 0
DWIDTH 16 0
BBX 16 16 0 -3
BITMAP
0100
0100
0100
0100
0100
0100
0100
0100
FFFF
0100
0100
0100
0100
0100
0100
0100
ENDCHAR
STARTCHAR u253D
ENCODING 9533
SWIDTH 1000 0
DWIDTH 16 0
BBX 16 16 0 -3
BITMAP
0100
0100
0100
0100
0100
0100
0100
FF00
FFFF
FF00
0100
0100
0100
0100
0100
0100
ENDCHAR
STARTCHAR u253E
ENCODING 9534
SWIDTH 1000 0
DWIDTH 16 0
BBX 16 16 0 -3
BITMAP
0100
0100
0100
0100
0100
0100
0100
01FF
FFFF
01FF
0100
0100
0100
0100
0100
0100
ENDCHAR
STARTCHAR u253F
ENCODING 9535
SWIDTH 1000 0
DWIDTH 16 0
BBX 16 16 0 -3
BITMAP
0100
0100
0100
0100
0100
0100
0100
FFFF
FFFF
FFFF
0100
0100
0100
0100
0100
0100
ENDCHAR
STARTCHAR u2540
ENCODING 9536
SWIDTH 1000 0
DWIDTH 16 0
BBX 16 16 0 -3
BITMAP
0380
0380
0380
0380
0380
0380
0380
0380
FFFF
0100
0100
0100
0100
0100
0100
0100
ENDCHAR
STARTCHAR u2541
ENCODING 9537
SWIDTH 1000 0
DWIDTH 16 0
BBX 16 16 0 -3
BITMAP
0100
0100
0100
0100
0100
0100
0100
0100
FFFF
0380
0380
0380
0380
0380
0380
0380
ENDCHAR
STARTCHAR u2542
ENCODING 9538
SWIDTH 1000 0
DWIDTH 16 0
BBX 16 16 0 -3
BITMAP
0380
0380
0380
0380
0380
0380
0380
0380
FFFF
0380
0380
0380
0380
0380
0380
0380
ENDCHAR
STARTCHAR u2543
ENCODING 9539
SWIDTH 1000 0
DWIDTH 16 0
BBX 16 16 0 -3
BITMAP
0380
0380
0380
0380
0380
0380
0380
FF80
FFFF
FF80
0100
0100
0100
0100
0100
0100
ENDCHAR
STARTCHAR u2544
ENCODING 9540
SWIDTH 1000 0
DWIDTH 16 0
BBX 16 16 0 -3
BITMAP
0380
0380
0380
0380
0380
0380
0380
03FF
FFFF
03FF
0100
0100
0100
0100
0100
0100
ENDCHAR
STARTCHAR u2545
ENCODING 9541
SWIDTH 1000 0
DWIDTH 16 0
BBX 16 16 0 -3
BITMAP
0100
0100
0100
0100
0100
0100
0100
FF80
FFFF
FF80
0380
0380
0380
0380
0380
0380
ENDCHAR
STARTCHAR u2546
ENCODING 9542
SWIDTH 1000 0
DWIDTH 16 0
BBX 16 16 0 -3
BITMAP
0100
0100
0100
0100
0100
0100
0100
03FF
FFFF
03FF
0380
0380
0380
0380
0380
0380
ENDCHAR
STARTCHAR u2547
ENCODING 9543
SWIDTH 1000 0
DWIDTH 16 0
BBX 16 16 0 -3
BITMAP
0380
0380
0380
0380
0380
0380
0380
FFFF
FFFF
FFFF
0100
0100
0100
0100
0100
0100
ENDCHAR
STARTCHAR u2548
ENCODING 9544
SWIDTH 1000 0
DWIDTH 16 0
BBX 16 16 0 -3
BITMAP
0100
0100
0100
0100
0100
0100
0100
FFFF
FFFF
FFFF
0380
0380
0380
0380
0380
0380
ENDCHAR
STARTCHAR u2549
ENCODING 9545
SWIDTH 1000 0
DWIDTH 16 0
BBX 16 16 0 -3
BITMAP
0380
0380
0380
0380
0380
0380
0380
FF80
FFFF
FF80
0380
0380
0380
0380
0380
0380
ENDCHAR
STARTCHAR u254A
ENCODING 9546
SWIDTH 1000 0
DWIDTH 16 0
BBX 16 16 0 -3
BITMAP
0380
0380
0380
0380
0380
0380
0380
03FF
FFFF
03FF
0380
0380
0380
0380
0380
0380
ENDCHAR
STARTCHAR u254B
ENCODING 9547
SWIDTH 1000 0
DWIDTH 16 0
BBX 16 16 0 -3
BITMAP
0380
0380
0380
0380
0380
0380
0380
FFFF
FFFF
FFFF
0380
0380
0380
0380
0380
0380
ENDCHAR
STARTCHAR u254C
ENCODING 9548
SWIDTH 1000 0
DWIDTH 16 0
BBX 16 16 0 -3
BITMAP
0000
0000
0000
0000
0000
0000
0000
0000
7E7E
0000
0000
0000
0000
0000
0000
0000
ENDCHAR
STARTCHAR u254D
ENCODING 9549
SWIDTH 1000 0
DWIDTH 16 0
BBX 16 16 0 -3
BITMAP
0000
0000
0000
0000
0000
0000
0000
7E7E
7E7E
7E7E
0000
0000
0000
0000
0000
0000
ENDCHAR
STARTCHAR u254E
ENCODING 9550
SWIDTH 1000 0
DWIDTH 16 0
BBX 16 16 0 -3
BITMAP
0000
0100
0100
0100
0100
0100
0100
0000
0000
0100
0100
0100
0100
0100
0100
0000
ENDCHAR
STARTCHAR u254F
ENCODING 9551
SWIDTH 1000 0
DWIDTH 16 0
BBX 16 16 0 -3
BITMAP
0000
0380
0380
0380
0380
0380
0380
0000
0000
0380
0380
0380
0380
0380
0380
0000
ENDCHAR
STARTCHAR u2550
ENCODING 9552
SWIDTH 1000 0
DWIDTH 16 0
BBX 16 16 0 -3
BITMAP
0000
0000
0000
0000
0000
0000
0000
FFFF
0000
FFFF
0000
0000
0000
0000
0000
0000
ENDCHAR
STARTCHAR u2551
ENCODING 9553
SWIDTH 1000 0
DWIDTH 16 0
BBX 16 16 0 -3
BITMAP
0280
0280
0280
0280
0280
0280
0280
0280
0280
0280
0280
0280
0280
0280
0280
0280
ENDCHAR
STARTCHAR u2552
ENCODING 9554
SWIDTH 1000 0
DWIDTH 16 0
BBX 16 16 0 -3
BITMAP
0000
0000
0000
0000
0000
0000
0000
01FF
0100
01FF
0100
0100
0100
0100
0100
0100
ENDCHAR
STARTCHAR u2553
ENCODING 9555
SWIDTH 1000 0
DWIDTH 16 0
BBX 16 16 0 -3
BITMAP
0000
0000
0000
0000
0000
0000
0000
0000
03FF
0280
0280
0280
0280
0280
0280
0280
ENDCHAR
STARTCHAR u2554
ENCODING 9556
SWIDTH 1000 0
DWIDTH 16 0
BBX 16 16 0 -3
BITMAP
0000
0000
0000
0000
0000
0000
0000
03FF
0200
02FF
0280
0280
0280
0280
0280
0280
ENDCHAR
STARTCHAR u2555
ENCODING 9557
SWIDTH 1000 0
DWIDTH 16 0
BBX 16 16 0 -3
BITMAP
0000
0000
0000
0000
0000
0000
0000
FF00
0100
FF00
0100
0100
0100
0100
0100
0100
ENDCHAR
STARTCHAR u2556
ENCODING 9558
SWIDTH 1000 0
DWIDTH 16 0
BBX 16 16 0 -3
BITMAP
0000
0000
0000
0000
0000
0000
0000
0000
FF80
0280
0280
0280
0280
0280
0280
0280
ENDCHAR
STARTCHAR u2557
ENCODING 9559
SWIDTH 1000 0
DWIDTH 16 0
BBX 16 16 0 -3
BITMAP
0000
0000
0000
0000
0000
0000
0000
FF80
0080
FE80
0280
0280
0280
0280
0280
0280
ENDCHAR
STARTCHAR u2558
ENCODING 9560
SWIDTH 1000 0
DWIDTH 16 0
BBX 16 16 0 -3
BITMAP
0100
0100
0100
0100
0100
0100
0100
01FF
0100
01FF
0000
0000
0000
0000
0000
0000
ENDCHAR
STARTCHAR u2559
ENCODING 9561
SWIDTH 1000 0
DWIDTH 16 0
BBX 16 16 0 -3
BITMAP
0280
0280
0280
0280
0280
0280
0280
0280
03FF
0000
0000
0000
0000
0000
0000
0000
ENDCHAR
STARTCHAR u255A
ENCODING 9562
SWIDTH 1000 0
DWIDTH 16 0
BBX 16 16 0 -3
BITMAP
0280
0280
0280
0280
0280
0280
0280
02FF
0200
03FF
0000
0000
0000
0000
0000
0000
ENDCHAR
STARTCHAR u255B
ENCODING 9563
SWIDTH 1000 0
DWIDTH 16 0
BBX 16 16 0 -3
BITMAP
0100
0100
0100
0100
0100
0100
0100
FF00
0100
FF00
0000
0000
0000
0000
0000
0000
ENDCHAR
STARTCHAR u255C
ENCODING 9564
SWIDTH 1000 0
DWIDTH 16 0
BBX 16 16 0 -3
BITMAP
0280
0280
0280
0280
0280
0280
0280
0280
FF80
0000
0000
0000
0000
0000
0000
0000
ENDCHAR
STARTCHAR u255D
ENCODING 9565
SWIDTH 1000 0
DWIDTH 16 0
BBX 16 16 0 -3
BITMAP
0280
0280
0280
0280
0280
0280
0280
FE80
0080
FF80
0000
0000
0000
0000
0000
0000
ENDCHAR
STARTCHAR u255E
ENCODING 9566
SWIDTH 1000 0
DWIDTH 16 0
BBX 16 16 0 -3
BITMAP
0100
0100
0100
0100
0100
0100
0100
01FF
0100
01FF
0100
0100
0100
0100
0100
0100
ENDCHAR
STARTCHAR u255F
ENCODING 9567
SWIDTH 1000 0
DWIDTH 16 0
BBX 16 16 0 -3
BITMAP
0280
0280
0280
0280
0280
0280
0280
0280
02FF
0280
0280
0280
0280
0280
0280
0280
ENDCHAR
STARTCHAR u2560
ENCODING 9568
SWIDTH 1000 0
DWIDTH 16 0
BBX 16 16 0 -3
BITMAP
0280
0280
0280
0280
0280
0280
0280
02FF
0200
02FF
0280
0280
0280
0280
0280
0280
ENDCHAR
STARTCHAR u2561
ENCODING 9569
SWIDTH 1000 0
DWIDTH 16 0
BBX 16 16 0 -3
BITMAP
0100
0100
0100
0100
0100
0100
0100
FF00
0100
FF00
0100
0100
0100
0100
0100
0100
ENDCHAR
STARTCHAR u2562
ENCODING 9570
SWIDTH 1000 0
DWIDTH 16 0
BBX 16 16 0 -3
BITMAP
0280
0280
0280
0280
0280
0280
0280
0280
FE80
0280
0280
0280
0280
0280
0280
0280
ENDCHAR
STARTCHAR u2563
ENCODING 9571
SWIDTH 1000 0
DWIDTH 16 0
BBX 16 16 0 -3
BITMAP
0280
0280
0280
0280
0280
0280
0280
FE80
0080
FE80
0280
0280
0280
0280
0280
0280
ENDCHAR
STARTCHAR u2564
ENCODING 9572
SWIDTH 1000 0
DWIDTH 16 0
BBX 16 16 0 -3
BITMAP
0000
0000
0000
0000
0000
0000
0000
FFFF
0000
FFFF
0100
0100
0100
0100
0100
0100
ENDCHAR
STARTCHAR u2565
ENCODING 9573
SWIDTH 1000 0
DWIDTH 16 0
BBX 16 16 0 -3
BITMAP
0000
0000
0000
0000
0000
0000
0000
0000
FFFF
0280
0280
0280
0280
0280
0280
0280
ENDCHAR
STARTCHAR u2566
ENCODING 9574
SWIDTH 1000 0
DWIDTH 16 0
BBX 16 16 0 -3
BITMAP
0000
0000
0000
0000
0000
0000
0000
FFFF
0000
FEFF
0280
0280
0280
0280
0280
0280
ENDCHAR
STARTCHAR u2567
ENCODING 9575
SWIDTH 1000 0
DWIDTH 16 0
BBX 16 16 0 -3
BITMAP
0100
0100
0100
0100
0100
0100
0100
FFFF
0000
FFFF
0000
0000
0000
0000
0000
0000
ENDCHAR
STARTCHAR u2568
ENCODING 9576
SWIDTH 1000 0
DWIDTH 16 0
BBX 16 16 0 -3
BITMAP
0280
0280
0280
0280
0280
0280
0280
0280
FFFF
0000
0000
0000
0000
0000
0000
0000
ENDCHAR
STARTCHAR u2569
ENCODING 9577
SWIDTH 1000 0
DWIDTH 16 0
BBX 16 16 0 -3
BITMAP
0280
0280
0280
0280
0280
0280
0280
FEFF
0000
FFFF
0000
0000
0000
0000
0000
0000
ENDCHAR
STARTCHAR u256A
ENCODING 9578
SWIDTH 1000 0
DWIDTH 16 0
BBX 16 16 0 -3
BITMAP
0100
0100
0100
0100
0100
0100
0100
FFFF
0100
FFFF
0100
0100
0100
0100
0100
0100
ENDCHAR
STARTCHAR u256B
ENCODING 9579
SWIDTH 1000 0
DWIDTH 16 0
BBX 16 16 0 -3
BITMAP
0280
0280
0280
0280
0280
0280
0280
0280
FFFF
0280
0280
0280
0280
0280
0280
0280
ENDCHAR
STARTCHAR u256C
ENCODING 9580
SWIDTH 1000 0
DWIDTH 16 0
BBX 16 16 0 -3
BITMAP
0280
0280
0280
0280
0280
0280
0280
FEFF
0000
FEFF
0280
0280
0280
0280
0280
0280
ENDCHAR
STARTCHAR u256D
ENCODING 9581
SWIDTH 1000 0
DWIDTH 16 0
BBX 16 16 0 -3
BITMAP
0000
0000
0000
0000
0000
0000
0000
0000
0007
0018
0020
0040
0080
0080
0100
0100
ENDCHAR
STARTCHAR u256E
ENCODING 9582
SWIDTH 1000 0
DWIDTH 16 0
BBX 16 16 0 -3
BITMAP
0000
0000
0000
0000
0000
0000
0000
0000
C000
3000
0800
0400
0200
0200
0100
0100
ENDCHAR
STARTCHAR u256F
ENCODING 9583
SWIDTH 1000 0
DWIDTH 16 0
BBX 16 16 0 -3
BITMAP
0100
0100
0100
0200
0200
0400
0800
3000
C000
0000
0000
0000
0000
0000
0000
0000
ENDCHAR
STARTCHAR u2570
ENCODING 9584
SWIDTH 1000 0
DWIDTH 16 0
BBX 16 16 0 -3
BITMAP
0100
0100
0100
0080
0080
0040
0020
0018
0007
0000
0000
0000
0000
0000
0000
0000
ENDCHAR
STARTCHAR u2571
ENCODING 9585
SWIDTH 1000 0
DWIDTH 16 0
BBX 16 16 0 -3
BITMAP
0001
0002
0004
0008
0010
0020
0040
0080
0100
0200
0400
0800
1000
2000
4000
8000
ENDCHAR
STARTCHAR u2572
ENCODING 9586
SWIDTH 1000 0
DWIDTH 16 0
BBX 16 16 0 -3
BITMAP
8000
4000
2000
1000
0800
0400
0200
0100
0080
0040
0020
0010
0008
0004
0002
0001
ENDCHAR
STARTCHAR u2573
ENCODING 9587
SWIDTH 1000 0
DWIDTH 16 0
BBX 16 16 0 -3
BITMAP
8001
4002
2004
1008
0810
0420
0240
0180
0180
0240
0420
0810
1008
2004
4002
8001
ENDCHAR
STARTCHAR u2574
ENCODING 9588
SWIDTH 1000 0
DWIDTH 16 0
BBX 16 16 0 -3
BITMAP
0000
0000
0000
0000
0000
0000
0000
0000
FF00
0000
0000
0000
0000
0000
0000
0000
ENDCHAR
STARTCHAR u2575
ENCODING 9589
SWIDTH 1000 0
DWIDTH 16 0
BBX 16 16 0 -3
BITMAP
0100
0100
0100
0100
0100
0100
0100
0100
0100
0000
0000
0000
0000
0000
0000
0000
ENDCHAR
STARTCHAR u2576
ENCODING 9590
SWIDTH 1000 0
DWIDTH 16 0
BBX 16 16 0 -3
BITMAP
0000
0000
0000
0000
0000
0000
0000
0000
01FF
0000
0000
0000
0000
0000
0000
0000
ENDCHAR
STARTCHAR u2577
ENCODING 9591
SWIDTH 1000 0
DWIDTH 16 0
BBX 16 16 0 -3
BITMAP
0000
0000
0000
0000
0000
0000
0000
0000
0100
0100
0100
0100
0100
0100
0100
0100
ENDCHAR
STARTCHAR u2578
ENCODING 9592
SWIDTH 1000 0
DWIDTH 16 0
BBX 16 16 0 -3
BITMAP
0000
0000
0000
0000
0000
0000
0000
FF00
FF00
FF00
0000
0000
0000
0000
0000
0000
ENDCHAR
STARTCHAR u2579
ENCODING 9593
SWIDTH 1000 0
DWIDTH 16 0
BBX 16 16 0 -3
BITMAP
0380
0380
0380
0380
0380
0380
0380
0380
0380
0000
0000
0000
0000
0000
0000
0000
ENDCHAR
STARTCHAR u257A
ENCODING 9594
SWIDTH 1000 0
DWIDTH 16 0
BBX 16 16 0 -3
BITMAP
0000
0000
0000
0000
0000
0000
0000
01FF
01FF
01FF
0000
0000
0000
0000
0000
0000
ENDCHAR
STARTCHAR u257B
ENCODING 9595
SWIDTH 1000 0
DWIDTH 16 0
BBX 16 16 0 -3
BITMAP
0000
0000
0000
0000
0000
0000
0000
0000
0380
0380
0380
0380
0380
0380
0380
0380
ENDCHAR
STARTCHAR u257C
ENCODING 9596
SWIDTH 1000 0
DWIDTH 16 0
BBX 16 16 0 -3
BITMAP
0000
0000
0000
0000
0000
0000
0000
01FF
FFFF
01FF
0000
0000
0000
0000
0000
0000
ENDCHAR
STARTCHAR u257D
ENCODING 9597
SWIDTH 1000 0
DWIDTH 16 0
BBX 16 16 0 -3
BITMAP
0100
0100
0100
0100
0100
0100
0100
0100
0380
0380
0380
0380
0380
0380
0380
0380
ENDCHAR
STARTCHAR u257E
ENCODING 9598
SWIDTH 1000 0
DWIDTH 16 0
BBX 16 16 0 -3
BITMAP
0000
0000
0000
0000
0000
0000
0000
FF00
FFFF
FF00
0000
0000
0000
0000
0000
0000
ENDCHAR
STARTCHAR u257F
ENCODING 9599
SWIDTH 1000 0
DWIDTH 16 0
BBX 16 16 0 -3
BITMAP
0380
0380
0380
0380
0380
0380
0380
0380
0380
0100
0100
0100
0100
0100
0100
0100
ENDCHAR
STARTCHAR u2580
ENCODING 9600
SWIDTH 1000 0
DWIDTH 16 0
BBX 16 16 0 -3
BITMAP
FFFF
FFFF
FFFF
FFFF
FFFF
FFFF
FFFF
FFFF
0000
0000
0000
0000
0000
0000
0000
0000
ENDCHAR
STARTCHAR u2581
ENCODING 9601
SWIDTH 1000 0
DWIDTH 16 0
BBX 16 16 0 -3
BITMAP
0000
0000
0000
0000
0000
0000
0000
0000
0000
0000
0000
0000
0000
0000
FFFF
FFFF
ENDCHAR
STARTCHAR u2582
ENCODING 9602
SWIDTH 1000 0
DWIDTH 16 0
BBX 16 16 0 -3
BITMAP
0000
0000
0000
0000
0000
0000
0000
0000
0000
0000
0000
0000
FFFF
FFFF
FFFF
FFFF
ENDCHAR
STARTCHAR u2583
ENCODING 9603
SWIDTH 1000 0
DWIDTH 16 0
BBX 16 16 0 -3
BITMAP
0000
0000
0000
0000
0000
0000
0000
0000
0000
0000
FFFF
FFFF
FFFF
FFFF
FFFF
FFFF
ENDCHAR
STARTCHAR u2584
ENCODING 9604
SWIDTH 1000 0
DWIDTH 16 0
BBX 16 16 0 -3
BITMAP
0000
0000
0000
0000
0000
0000
0000
0000
FFFF
FFFF
FFFF
FFFF
FFFF
FFFF
FFFF
FFFF
ENDCHAR
STARTCHAR u2585
ENCODING 9605
SWIDTH 1000 0
DWIDTH 16 0
BBX 16 16 0 -3
BITMAP
0000
0000
0000
0000
0000
0000
FFFF
FFFF
FFFF
FFFF
FFFF
FFFF
FFFF
FFFF
FFFF
FFFF
ENDCHAR
STARTCHAR u2586
ENCODING 9606
SWIDTH 1000 0
DWIDTH 16 0
BBX 16 16 0 -3
BITMAP
0000
0000
0000
0000
FFFF
FFFF
FFFF
FFFF
FFFF
FFFF
FFFF
FFFF
FFFF
FFFF
FFFF
FFFF
ENDCHAR
STARTCHAR u2587
ENCODING 9607
SWIDTH 1000 0
DWIDTH 16 0
BBX 16 16 0 -3
BITMAP
0000
0000
FFFF
FFFF
FFFF
FFFF
FFFF
FFFF
FFFF
FFFF
FFFF
FFFF
FFFF
FFFF
FFFF
FFFF
ENDCHAR
STARTCHAR u2588
ENCODING 9608
SWIDTH 1000 0
DWIDTH 16 0
BBX 16 16 0 -3
BITMAP
FFFF
FFFF
FFFF
FFFF
FFFF
FFFF
FFFF
FFFF
FFFF
FFFF
FFFF
FFFF
FFFF
FFFF
FFFF
FFFF
ENDCHAR
STARTCHAR u2589
ENCODING 9609
SWIDTH 1000 0
DWIDTH 16 0
BBX 16 16 0 -3
BITMAP
FFFC
FFFC
FFFC
FFFC
FFFC
FFFC
FFFC
FFFC
FFFC
FFFC
FFFC
FFFC
FFFC
FFFC
FFFC
FFFC
ENDCHAR
STARTCHAR u258A
ENCODING 9610
SWIDTH 1000 0
DWIDTH 16 0
BBX 16 16 0 -3
BITMAP
FFF0
FFF0
FFF0
FFF0
FFF0
FFF0
FFF0
FFF0
FFF0
FFF0
FFF0
FFF0
FFF0
FFF0
FFF0
FFF0
ENDCHAR
STARTCHAR u258B
ENCODING 9611
SWIDTH 1000 0
DWIDTH 16 0
BBX 16 16 0 -3
BITMAP
FFC0
FFC0
FFC0
FFC0
FFC0
FFC0
FFC0
FFC0
FFC0
FFC0
FFC0
FFC0
FFC0
FFC0
FFC0
FFC0
ENDCHAR
STARTCHAR u258C
ENCODING 9612
SWIDTH 1000 0
DWIDTH 16 0
BBX 16 16 0 -3
BITMAP
FF00
FF00
FF00
FF00
FF00
FF00
FF00
FF00
FF00
FF00
FF00
FF00
FF00
FF00
FF00
FF00
ENDCHAR
STARTCHAR u258D
ENCODING 9613
SWIDTH 1000 0
DWIDTH 16 0
BBX 16 16 0 -3
BITMAP
FC00
FC00
FC00
FC00
FC00
FC00
FC00
FC00
FC00
FC00
FC00
FC00
FC00
FC00
FC00
FC00
ENDCHAR
STARTCHAR u258E
ENCODING 9614
SWIDTH 1000 0
DWIDTH 16 0
BBX 16 16 0 -3
BITMAP
F000
F000
F000
F000
F000
F000
F000
F000
F000
F000
F000
F000
F000
F000
F000
F000
ENDCHAR
STARTCHAR u258F
ENCODING 9615
SWIDTH 1000 0
DWIDTH 16 0
BBX 16 16 0 -3
BITMAP
C000
C000
C000
C000
C000
C000
C000
C000
C000
C000
C000
C000
C000
C000
C000
C000
ENDCHAR
STARTCHAR u2590
ENCODING 9616
SWIDTH 1000 0
DWIDTH 16 0
BBX 16 16 0 -3
BITMAP
00FF
00FF
00FF
00FF
00FF
00FF
00FF
00FF
00FF
00FF
00FF
00FF
00FF
00FF
00FF
00FF
ENDCHAR
STARTCHAR u2591
ENCODING 9617
SWIDTH 1000 0
DWIDTH 16 0
BBX 16 16 0 -3
BITMAP
AAAA
0000
AAAA
0000
AAAA
0000
AAAA
0000
AAAA
0000
AAAA
0000
AAAA
0000
AAAA
0000
ENDCHAR
STARTCHAR u2592
ENCODING 9618
SWIDTH 1000 0
DWIDTH 16 0
BBX 16 16 0 -3
BITMAP
AAAA
5555
AAAA
5555
AAAA
5555
AAAA
5555
AAAA
5555
AAAA
5555
AAAA
5555
AAAA
5555
ENDCHAR
STARTCHAR u2593
ENCODING 9619
SWIDTH 1000 0
DWIDTH 16 0
BBX 16 16 0 -3
BITMAP
FFFF
AAAA
FFFF
AAAA
FFFF
AAAA
FFFF
AAAA
FFFF
AAAA
FFFF
AAAA
FFFF
AAAA
FFFF
AAAA
ENDCHAR
STARTCHAR u2594
ENCODING 9620
SWIDTH 1000 0
DWIDTH 16 0
BBX 16 16 0 -3
BITMAP
FFFF
FFFF
0000
0000
0000
0000
0000
0000
0000
0000
0000
0000
0000
0000
0000
0000
ENDCHAR
STARTCHAR u2595
ENCODING 9621
SWIDTH 1000 0
DWIDTH 16 0
BBX 16 16 0 -3
BITMAP
0003
0003
0003
0003
0003
0003
0003
0003
0003
0003
0003
0003
0003
0003
0003
0003
ENDCHAR
STARTCHAR u2596
ENCODING 9622
SWIDTH 1000 0
DWIDTH 16 0
BBX 16 16 0 -3
BITMAP
0000
0000
0000
0000
0000
0000
0000
0000
FF00
FF00
FF00
FF00
FF00
FF00
FF00
FF00
ENDCHAR
STARTCHAR u2597
ENCODING 9623
SWIDTH 1000 0
DWIDTH 16 0
BBX 16 16 0 -3
BITMAP
0000
0000
0000
0000
0000
0000
0000
0000
00FF
00FF
00FF
00FF
00FF
00FF
00FF
00FF
ENDCHAR
STARTCHAR u2598
ENCODING 9624
SWIDTH 1000 0
DWIDTH 16 0
BBX 16 16 0 -3
BITMAP
FF00
FF00
FF00
FF00
FF00
FF00
FF00
FF00
0000
0000
0000
0000
0000
0000
0000
0000
ENDCHAR
STARTCHAR u2599
ENCODING 9625
SWIDTH 1000 0
DWIDTH 16 0
BBX 16 16 0 -3
BITMAP
FF00
FF00
FF00
FF00
FF00
FF00
FF00
FF00
FFFF
FFFF
FFFF
FFFF
FFFF
FFFF
FFFF
FFFF
ENDCHAR
STARTCHAR u259A
ENCODING 9626
SWIDTH 1000 0
DWIDTH 16 0
BBX 16 16 0 -3
BITMAP
FF00
FF00
FF00
FF00
FF00
FF00
FF00
FF00
00FF
00FF
00FF
00FF
00FF
00FF
00FF
00FF
ENDCHAR
STARTCHAR u259B
ENCODING 9627
SWIDTH 1000 0
DWIDTH 16 0
BBX 16 16 0 -3
BITMAP
FFFF
FFFF
FFFF
FFFF
FFFF
FFFF
FFFF
FFFF
FF00
FF00
FF00
FF00
FF00
FF00
FF00
FF00
ENDCHAR
STARTCHAR u259C
ENCODING 9628
SWIDTH 1000 0
DWIDTH 16 0
BBX 16 16 0 -3
BITMAP
FFFF
FFFF
FFFF
FFFF
FFFF
FFFF
FFFF
FFFF
00FF
00FF
00FF
00FF
00FF
00FF
00FF
00FF
ENDCHAR
STARTCHAR u259D
ENCODING 9629
SWIDTH 1000 0
DWIDTH 16 0
BBX 16 16 0 -3
BITMAP
00FF
00FF
00FF
00FF
00FF
00FF
00FF
00FF
0000
0000
0000
0000
0000
0000
0000
0000
ENDCHAR
STARTCHAR u259E
ENCODING 9630
SWIDTH 1000 0
DWIDTH 16 0
BBX 16 16 0 -3
BITMAP
00FF
00FF
00FF
00FF
00FF
00FF
00FF
00FF
FF00
FF00
FF00
FF00
FF00
FF00
FF00
FF00
ENDCHAR
STARTCHAR u259F
ENCODING 9631
SWIDTH 1000 0
DWIDTH 16 0
BBX 16 16 0 -3
BITMAP
00FF
00FF
00FF
00FF
00FF
00FF
00FF
00FF
FFFF
FFFF
FFFF
FFFF
FFFF
FFFF
FFFF
FFFF
ENDCHAR
STARTCHAR u25A0
ENCODING 9632
SWIDTH 1000 0
DWIDTH 16 0
BBX 16 16 0 -3
BITMAP
0000
0000
7FFC
7FFC
7FFC
7FFC
7FFC
7FFC
7FFC
7FFC
7FFC
7FFC
7FFC
7FFC
7FFC
0000
ENDCHAR
STARTCHAR u25A1
ENCODING 9633
SWIDTH 1000 0
DWIDTH 16 0
BBX 16 16 0 -3
BITMAP
0000
0000
7FFC
4004
4004
4004
4004
4004
4004
4004
4004
4004
4004
4004
7FFC
0000
ENDCHAR
STARTCHAR u25A2
ENCODING 9634
SWIDTH 1000 0
DWIDTH 16 0
BBX 16 16 0 -3
BITMAP
0000
0000
1FF0
2008
4004
4004
4004
4004
4004
4004
4004
4004
4004
2008
1FF0
0000
ENDCHAR
STARTCHAR u25A3
ENCODING 9635
SWIDTH 1000 0
DWIDTH 16 0
BBX 16 16 0 -3
BITMAP
0000
0000
7FFC
4004
4004
4FE4
4FE4
4FE4
4FE4
4FE4
4FE4
4FE4
4004
4004
7FFC
0000
ENDCHAR
STARTCHAR u25A4
ENCODING 9636
SWIDTH 1000 0
DWIDTH 16 0
BBX 16 16 0 -3
BITMAP
0000
0000
7FFC
4004
7FFC
4004
7FFC
4004
7FFC
4004
7FFC
4004
7FFC
4004
7FFC
0000
ENDCHAR
STARTCHAR u25A5
ENCODING 9637
SWIDTH 1000 0
DWIDTH 16 0
BBX 16 16 0 -3
BITMAP
0000
0000
7FFC
5554
5554
5554
5554
5554
5554
5554
5554
5554
5554
5554
7FFC
0000
ENDCHAR
STARTCHAR u25A6
ENCODING 9638
SWIDTH 1000 0
DWIDTH 16 0
BBX 16 16 0 -3
BITMAP
0000
0000
7FFC
5554
7FFC
5554
7FFC
5554
7FFC
5554
7FFC
5554
7FFC
5554
7FFC
0000
ENDCHAR
STARTCHAR u25A7
ENCODING 9639
SWIDTH 1000 0
DWIDTH 16 0
BBX 16 16 0 -3
BITMAP
0000
0000
7FFC
6494
524C
4924
6494
524C
4924
6494
524C
4924
6494
524C
7FFC
0000
ENDCHAR
STARTCHAR u25A8
ENCODING 9640
SWIDTH 1000 0
DWIDTH 16 0
BBX 16 16 0 -3
BITMAP
0000
0000
7FFC
524C
6494
4924
524C
6494
4924
524C
6494
4924
524C
6494
7FFC
0000
ENDCHAR
STARTCHAR u25A9
ENCODING 9641
SWIDTH 1000 0
DWIDTH 16 0
BBX 16 16 0 -3
BITMAP
0000
0000
7FFC
6AAC
5554
6AAC
5554
6AAC
5554
6AAC
5554
6AAC
5554
6AAC
7FFC
0000
ENDCHAR
STARTCHAR u25AA
ENCODING 9642
SWIDTH 1000 0
DWIDTH 16 0
BBX 16 16 0 -3
BITMAP
0000
0000
0000
0000
0000
0FE0
0FE0
0FE0
0FE0
0FE0
0FE0
0FE0
0000
0000
0000
0000
ENDCHAR
STARTCHAR u25AB
ENCODING 9643
SWIDTH 1000 0
DWIDTH 16 0
BBX 16 16 0 -3
BITMAP
0000
0000
0000
0000
0000
0FE0
0820
0820
0820
0820
0820
0FE0
0000
0000
0000
0000
ENDCHAR
STARTCHAR u25AC
ENCODING 9644
SWIDTH 1000 0
DWIDTH 16 0
BBX 16 16 0 -3
BITMAP
0000
0000
0000
0000
FFFE
FFFE
FFFE
FFFE
FFFE
FFFE
FFFE
FFFE
FFFE
0000
0000
0000
ENDCHAR
STARTCHAR u25AD
ENCODING 9645
SWIDTH 1000 0
DWIDTH 16 0
BBX 16 16 0 -3
BITMAP
0000
0000
0000
0000
FFFE
8002
8002
8002
8002
8002
8002
8002
FFFE
0000
0000
0000
ENDCHAR
STARTCHAR u25AE
ENCODING 9646
SWIDTH 1000 0
DWIDTH 16 0
BBX 16 16 0 -3
BITMAP
0000
1FF0
1FF0
1FF0
1FF0
1FF0
1FF0
1FF0
1FF0
1FF0
1FF0
1FF0
1FF0
1FF0
1FF0
1FF0
ENDCHAR
STARTCHAR u25AF
ENCODING 9647
SWIDTH 1000 0
DWIDTH 16 0
BBX 16 16 0 -3
BITMAP
0000
1FF0
1010
1010
1010
1010
1010
1010
1010
1010
1010
1010
1010
1010
1010
1FF0
ENDCHAR
STARTCHAR u25B0
ENCODING 9648
SWIDTH 1000 0
DWIDTH 16 0
BBX 16 16 0 -3
BITMAP
0000
0000
0000
0000
0FFE
0FFC
1FFC
1FF8
3FF8
3FF0
7FF0
7FE0
FFE0
0000
0000
0000
ENDCHAR
STARTCHAR u25B1
ENCODING 9649
SWIDTH 1000 0
DWIDTH 16 0
BBX 16 16 0 -3
BITMAP
0000
0000
0000
0000
0FFE
0804
1004
1008
2008
2010
4010
4020
FFE0
0000
0000
0000
ENDCHAR
STARTCHAR u25B2
ENCODING 9650
SWIDTH 1000 0
DWIDTH 16 0
BBX 16 16 0 -3
BITMAP
0000
0000
0100
0380
0380
07C0
07C0
0FE0
0FE0
1FF0
1FF0
3FF8
3FF8
7FFC
7FFC
0000
ENDCHAR
STARTCHAR u25B3
ENCODING 9651
SWIDTH 1000 0
DWIDTH 16 0
BBX 16 16 0 -3
BITMAP
0000
0000
0100
0280
0280
0440
0440
0820
0820
1010
1010
2008
2008
4004
7FFC
0000
ENDCHAR
STARTCHAR u25B4
ENCODING 9652
SWIDTH 1000 0
DWIDTH 16 0
BBX 16 16 0 -3
BITMAP
0000
0000
0000
0000
0000
0100
0380
0380
07C0
07C0
0FE0
0FE0
0000
0000
0000
0000
ENDCHAR
STARTCHAR u25B5
ENCODING 9653
SWIDTH 1000 0
DWIDTH 16 0
BBX 16 16 0 -3
BITMAP
0000
0000
0000
0000
0000
0100
0280
0280
0440
0440
0820
0FE0
0000
0000
0000
0000
ENDCHAR
STARTCHAR u25B6
ENCODING 9654
SWIDTH 1000 0
DWIDTH 16 0
BBX 16 16 0 -3
BITMAP
0000
0000
6000
7800
7E00
7F80
7FE0
7FF8
7FFC
7FF8
7FE0
7F80
7E00
7800
6000
0000
ENDCHAR
STARTCHAR u25B7
ENCODING 9655
SWIDTH 1000 0
DWIDTH 16 0
BBX 16 16 0 -3
BITMAP
0000
0000
6000
5800
4600
4180
4060
4018
4004
4018
4060
4180
4600
5800
6000
0000
ENDCHAR
STARTCHAR u25B8
ENCODING 9656
SWIDTH 1000 0
DWIDTH 16 0
BBX 16 16 0 -3
BITMAP
0000
0000
0000
0000
0000
0C00
0F00
0FC0
0FE0
0FC0
0F00
0C00
0000
0000
0000
0000
ENDCHAR
STARTCHAR u25B9
ENCODING 9657
SWIDTH 1000 0
DWIDTH 16 0
BBX 16 16 0 -3
BITMAP
0000
0000
0000
0000
0000
0C00
0B00
08C0
0820
08C0
0B00
0C00
0000
0000
0000
0000
ENDCHAR
STARTCHAR u25BA
ENCODING 9658
SWIDTH 1000 0
DWIDTH 16 0
BBX 16 16 0 -3
BITMAP
0000
0000
0000
0000
0000
7000
7E00
7FE0
7FFC
7FE0
7E00
7000
0000
0000
0000
0000
ENDCHAR
STARTCHAR u25BB
ENCODING 9659
SWIDTH 1000 0
DWIDTH 16 0
BBX 16 16 0 -3
BITMAP
0000
0000
0000
0000
0000
7000
4E00
41E0
401C
41E0
4E00
7000
0000
0000
0000
0000
ENDCHAR
STARTCHAR u25BC
ENCODING 9660
SWIDTH 1000 0
DWIDTH 16 0
BBX 16 16 0 -3
BITMAP
0000
0000
7FFC
7FFC
3FF8
3FF8
1FF0
1FF0
0FE0
0FE0
07C0
07C0
0380
0380
0100
0000
ENDCHAR
STARTCHAR u25BD
ENCODING 9661
SWIDTH 1000 0
DWIDTH 16 0
BBX 16 16 0 -3
BITMAP
0000
0000
7FFC
4004
2008
2008
1010
1010
0820
0820
0440
0440
0280
0280
0100
0000
ENDCHAR
STARTCHAR u25BE
ENCODING 9662
SWIDTH 1000 0
DWIDTH 16 0
BBX 16 16 0 -3
BITMAP
0000
0000
0000
0000
0000
0FE0
0FE0
07C0
07C0
0380
0380
0100
0000
0000
0000
0000
ENDCHAR
STARTCHAR u25BF
ENCODING 9663
SWIDTH 1000 0
DWIDTH 16 0
BBX 16 16 0 -3
BITMAP
0000
0000
0000
0000
0000
0FE0
0820
0440
0440
0280
0280
0100
0000
0000
0000
0000
ENDCHAR
STARTCHAR u25C0
ENCODING 9664
SWIDTH 1000 0
DWIDTH 16 0
BBX 16 16 0 -3
BITMAP
0000
0000
000C
003C
00FC
03FC
0FFC
3FFC
7FFC
3FFC
0FFC
03FC
00FC
003C
000C
0000
ENDCHAR
STARTCHAR u25C1
ENCODING 9665
SWIDTH 1000 0
DWIDTH 16 0
BBX 16 16 0 -3
BITMAP
0000
0000
000C
0034
00C4
0304
0C04
3004
4004
3004
0C04
0304
00C4
0034
000C
0000
ENDCHAR
STARTCHAR u25C2
ENCODING 9666
SWIDTH 1000 0
DWIDTH 16 0
BBX 16 16 0 -3
BITMAP
0000
0000
0000
0000
0000
0060
01E0
07E0
0FE0
07E0
01E0
0060
0000
0000
0000
0000
ENDCHAR
STARTCHAR u25C3
ENCODING 9667
SWIDTH 1000 0
DWIDTH 16 0
BBX 16 16 0 -3
BITMAP
0000
0000
0000
0000
0000
0060
01A0
0620
0820
0620
01A0
0060
0000
0000
0000
0000
ENDCHAR
STARTCHAR u25C4
ENCODING 9668
SWIDTH 1000 0
DWIDTH 16 0
BBX 16 16 0 -3
BITMAP
0000
0000
0000
0000
0000
001C
00FC
0FFC
7FFC
0FFC
00FC
001C
0000
0000
0000
0000
ENDCHAR
STARTCHAR u25C5
ENCODING 9669
SWIDTH 1000 0
DWIDTH 16 0
BBX 16 16 0 -3
BITMAP
0000
0000
0000
0000
0000
001C
00E4
0F04
7004
0F04
00E4
001C
0000
0000
0000
0000
ENDCHAR
STARTCHAR u25C6
ENCODING 9670
SWIDTH 1000 0
DWIDTH 16 0
BBX 16 16 0 -3
BITMAP
0000
0100
0380
07C0
0FE0
1FF0
3FF8
7FFC
FFFE
7FFC
3FF8
1FF0
0FE0
07C0
0380
0100
ENDCHAR
STARTCHAR u25C7
ENCODING 9671
SWIDTH 1000 0
DWIDTH 16 0
BBX 16 16 0 -3
BITMAP
0000
0100
0280
0440
0820
1010
2008
4004
8002
4004
2008
1010
0820
0440
0280
0100
ENDCHAR
STARTCHAR u25C8
ENCODING 9672
SWIDTH 1000 0
DWIDTH 16 0
BBX 16 16 0 -3
BITMAP
0000
0100
0280
0440
0920
1390
27C8
4FE4
9FF2
4FE4
27C8
1390
0920
0440
0280
0100
ENDCHAR
STARTCHAR u25C9
ENCODING 9673
SWIDTH 1000 0
DWIDTH 16 0
BBX 16 16 0 -3
BITMAP
0000
0000
0380
0C60
1010
2388
27C8
4FE4
4FE4
4FE4
27C8
2388
1010
0C60
0380
0000
ENDCHAR
STARTCHAR u25CA
ENCODING 9674
SWIDTH 1000 0
DWIDTH 16 0
BBX 16 16 0 -3
BITMAP
0000
0100
0280
0440
0440
0820
1010
1010
2008
1010
1010
0820
0440
0440
0280
0100
ENDCHAR
STARTCHAR u25CB
ENCODING 9675
SWIDTH 1000 0
DWIDTH 16 0
BBX 16 16 0 -3
BITMAP
0000
0000
0380
0C60
1010
2008
2008
4004
4004
4004
2008
2008
1010
0C60
0380
0000
ENDCHAR
STARTCHAR u25CC
ENCODING 9676
SWIDTH 1000 0
DWIDTH 16 0
BBX 16 16 0 -3
BITMAP
0000
0000
0280
0820
0000
2008
0000
4004
0000
4004
0000
2008
0000
0820
0280
0000
ENDCHAR
STARTCHAR u25CD
ENCODING 9677
SWIDTH 1000 0
DWIDTH 16 0
BBX 16 16 0 -3
BITMAP
0000
0000
0380
0D60
1550
3558
3558
5554
5554
5554
3558
3558
1550
0D60
0380
0000
ENDCHAR
STARTCHAR u25CE
ENCODING 9678
SWIDTH 1000 0
DWIDTH 16 0
BBX 16 16 0 -3
BITMAP
0000
0000
0380
0C60
1010
2388
2448
4824
4824
4824
2448
2388
1010
0C60
0380
0000
ENDCHAR
STARTCHAR u25CF
ENCODING 9679
SWIDTH 1000 0
DWIDTH 16 0
BBX 16 16 0 -3
BITMAP
0000
0000
0380
0FE0
1FF0
3FF8
3FF8
7FFC
7FFC
7FFC
3FF8
3FF8
1FF0
0FE0
0380
0000
ENDCHAR
STARTCHAR u25D0
ENCODING 9680
SWIDTH 1000 0
DWIDTH 16 0
BBX 16 16 0 -3
BITMAP
0000
0000
0380
0F60
1F10
3F08
3F08
7F04
7F04
7F04
3F08
3F08
1F10
0F60
0380
0000
ENDCHAR
STARTCHAR u25D1
ENCODING 9681
SWIDTH 1000 0
DWIDTH 16 0
BBX 16 16 0 -3
BITMAP
0000
0000
0380
0DE0
11F0
21F8
21F8
41FC
41FC
41FC
21F8
21F8
11F0
0DE0
0380
0000
ENDCHAR
STARTCHAR u25D2
ENCODING 9682
SWIDTH 1000 0
DWIDTH 16 0
BBX 16 16 0 -3
BITMAP
0000
0000
0380
0C60
1010
2008
2008
4004
7FFC
7FFC
3FF8
3FF8
1FF0
0FE0
0380
0000
ENDCHAR
STARTCHAR u25D3
ENCODING 9683
SWIDTH 1000 0
DWIDTH 16 0
BBX 16 16 0 -3
BITMAP
0000
0000
0380
0FE0
1FF0
3FF8
3FF8
7FFC
7FFC
4004
2008
2008
1010
0C60
0380
0000
ENDCHAR
STARTCHAR u25D4
ENCODING 9684
SWIDTH 1000 0
DWIDTH 16 0
BBX 16 16 0 -3
BITMAP
0000
0000
0380
0DE0
11F0
21F8
21F8
41FC
41FC
4004
2008
2008
1010
0C60
0380
0000
ENDCHAR
STARTCHAR u25D5
ENCODING 9685
SWIDTH 1000 0
DWIDTH 16 0
BBX 16 16 0 -3
BITMAP
0000
0000
0380
0DE0
11F0
21F8
21F8
41FC
7FFC
7FFC
3FF8
3FF8
1FF0
0FE0
0380
0000
ENDCHAR
STARTCHAR u25D6
ENCODING 9686
SWIDTH 1000 0
DWIDTH 16 0
BBX 16 16 0 -3
BITMAP
0000
0000
0300
0F00
1F00
3F00
3F00
7F00
7F00
7F00
3F00
3F00
1F00
0F00
0300
0000
ENDCHAR
STARTCHAR u25D7
ENCODING 9687
SWIDTH 1000 0
DWIDTH 16 0
BBX 16 16 0 -3
BITMAP
0000
0000
0180
01E0
01F0
01F8
01F8
01FC
01FC
01FC
01F8
01F8
01F0
01E0
0180
0000
ENDCHAR
ENDFONT
